G75*
G70*
%OFA0B0*%
%FSLAX24Y24*%
%IPPOS*%
%LPD*%
%AMOC8*
5,1,8,0,0,1.08239X$1,22.5*
%
%ADD10C,0.0050*%
%ADD11C,0.0004*%
%ADD12C,0.0433*%
%ADD13C,0.0787*%
%ADD14C,0.0240*%
%ADD15C,0.0800*%
%ADD16C,0.0100*%
%ADD17C,0.0400*%
%ADD18C,0.0340*%
%ADD19C,0.0200*%
D10*
X007231Y000825D02*
X007231Y003125D01*
X007233Y003151D01*
X007238Y003177D01*
X007246Y003202D01*
X007258Y003225D01*
X007272Y003247D01*
X007290Y003266D01*
X007309Y003284D01*
X007331Y003298D01*
X007354Y003310D01*
X007379Y003318D01*
X007405Y003323D01*
X007431Y003325D01*
X012231Y003325D01*
X012257Y003323D01*
X012283Y003318D01*
X012308Y003310D01*
X012331Y003298D01*
X012353Y003284D01*
X012372Y003266D01*
X012390Y003247D01*
X012404Y003225D01*
X012416Y003202D01*
X012424Y003177D01*
X012429Y003151D01*
X012431Y003125D01*
X012431Y000875D01*
X012429Y000838D01*
X012423Y000802D01*
X012414Y000767D01*
X012401Y000733D01*
X012384Y000700D01*
X012364Y000669D01*
X012341Y000641D01*
X012315Y000615D01*
X012287Y000592D01*
X012256Y000572D01*
X012223Y000555D01*
X012189Y000542D01*
X012154Y000533D01*
X012118Y000527D01*
X012081Y000525D01*
X007531Y000525D01*
X007531Y000775D02*
X007522Y000776D01*
X007504Y000783D01*
X007490Y000797D01*
X007482Y000815D01*
X007482Y000820D01*
X007503Y000831D01*
X007569Y000879D01*
X007627Y000937D01*
X007675Y001003D01*
X007712Y001076D01*
X007737Y001154D01*
X007750Y001234D01*
X007750Y001250D01*
X007481Y001250D01*
X007481Y001300D01*
X007750Y001300D01*
X007750Y001316D01*
X007737Y001396D01*
X007712Y001474D01*
X007675Y001547D01*
X007627Y001613D01*
X007569Y001671D01*
X007503Y001719D01*
X007481Y001730D01*
X007481Y003075D01*
X007792Y003075D01*
X007789Y003063D01*
X007789Y002936D01*
X007796Y002936D01*
X007796Y002886D01*
X007789Y002886D01*
X007789Y002759D01*
X007796Y002727D01*
X007796Y002693D01*
X007801Y002687D01*
X007813Y002667D01*
X007828Y002631D01*
X007865Y002575D01*
X007867Y002574D01*
X007885Y002542D01*
X007885Y002542D01*
X007885Y002542D01*
X007933Y002514D01*
X007969Y002490D01*
X007989Y002482D01*
X008041Y002452D01*
X008094Y002452D01*
X008097Y002452D01*
X008106Y002452D01*
X008156Y002452D01*
X008156Y002452D01*
X008164Y002452D01*
X008167Y002452D01*
X008220Y002452D01*
X008220Y002452D01*
X008273Y002482D01*
X008292Y002490D01*
X008328Y002514D01*
X008376Y002542D01*
X008394Y002574D01*
X008396Y002575D01*
X008433Y002631D01*
X008448Y002667D01*
X008460Y002687D01*
X008466Y002693D01*
X008466Y002727D01*
X008472Y002759D01*
X008472Y002886D01*
X008466Y002886D01*
X008466Y002936D01*
X008472Y002936D01*
X008472Y003063D01*
X008470Y003075D01*
X011193Y003075D01*
X011191Y003063D01*
X011191Y002936D01*
X011197Y002936D01*
X011197Y002886D01*
X011191Y002886D01*
X011191Y002759D01*
X011197Y002727D01*
X011197Y002693D01*
X011203Y002687D01*
X011215Y002667D01*
X011230Y002631D01*
X011267Y002575D01*
X011269Y002574D01*
X011287Y002542D01*
X011287Y002542D01*
X011335Y002514D01*
X011371Y002490D01*
X011390Y002482D01*
X011442Y002452D01*
X011496Y002452D01*
X011499Y002452D01*
X011507Y002452D01*
X011557Y002452D01*
X011557Y002452D01*
X011566Y002452D01*
X011569Y002452D01*
X011622Y002452D01*
X011674Y002482D01*
X011694Y002490D01*
X011730Y002514D01*
X011778Y002542D01*
X011796Y002574D01*
X011798Y002575D01*
X011835Y002631D01*
X011850Y002667D01*
X011862Y002687D01*
X011867Y002693D01*
X011867Y002727D01*
X011874Y002759D01*
X011874Y002886D01*
X011867Y002886D01*
X011867Y002936D01*
X011874Y002936D01*
X011874Y003063D01*
X011871Y003075D01*
X012181Y003075D01*
X012181Y002050D01*
X012006Y002225D01*
X011932Y002300D01*
X011834Y002340D01*
X010589Y002340D01*
X010570Y002359D01*
X010447Y002410D01*
X010313Y002410D01*
X010190Y002359D01*
X010171Y002340D01*
X009492Y002340D01*
X009473Y002359D01*
X009350Y002410D01*
X009216Y002410D01*
X009093Y002359D01*
X008999Y002265D01*
X008948Y002142D01*
X008948Y002008D01*
X008999Y001885D01*
X009093Y001791D01*
X009216Y001740D01*
X009350Y001740D01*
X009473Y001791D01*
X009492Y001810D01*
X010171Y001810D01*
X010190Y001791D01*
X010313Y001740D01*
X010447Y001740D01*
X010570Y001791D01*
X010589Y001810D01*
X011332Y001810D01*
X011315Y001799D01*
X011310Y001794D01*
X011287Y001781D01*
X011287Y001781D01*
X011287Y001781D01*
X011274Y001758D01*
X011267Y001751D01*
X011230Y001695D01*
X011209Y001646D01*
X011203Y001635D01*
X011197Y001629D01*
X011197Y001599D01*
X011191Y001567D01*
X011191Y001440D01*
X011197Y001440D01*
X011197Y001390D01*
X011191Y001390D01*
X011191Y001263D01*
X011197Y001231D01*
X011197Y001197D01*
X011203Y001191D01*
X011215Y001170D01*
X011230Y001135D01*
X011267Y001079D01*
X011269Y001078D01*
X011287Y001046D01*
X011287Y001046D01*
X011335Y001018D01*
X011366Y000997D01*
X011310Y000969D01*
X011244Y000921D01*
X011186Y000863D01*
X011138Y000797D01*
X011127Y000775D01*
X010883Y000775D01*
X010855Y000841D01*
X010698Y000999D01*
X010493Y001084D01*
X010270Y001084D01*
X010065Y000999D01*
X009908Y000841D01*
X009880Y000775D01*
X009736Y000775D01*
X009725Y000797D01*
X009677Y000863D01*
X009619Y000921D01*
X009553Y000969D01*
X009481Y001006D01*
X009403Y001031D01*
X009322Y001044D01*
X009306Y001044D01*
X009306Y000775D01*
X009256Y000775D01*
X009256Y001044D01*
X009241Y001044D01*
X009160Y001031D01*
X009082Y001006D01*
X009010Y000969D01*
X008944Y000921D01*
X008886Y000863D01*
X008838Y000797D01*
X008827Y000775D01*
X008536Y000775D01*
X008525Y000797D01*
X008477Y000863D01*
X008419Y000921D01*
X008353Y000969D01*
X008297Y000997D01*
X008328Y001018D01*
X008376Y001046D01*
X008394Y001078D01*
X008396Y001079D01*
X008433Y001135D01*
X008448Y001170D01*
X008460Y001191D01*
X008466Y001197D01*
X008466Y001231D01*
X008472Y001263D01*
X008472Y001390D01*
X008466Y001390D01*
X008466Y001440D01*
X008472Y001440D01*
X008472Y001567D01*
X008466Y001599D01*
X008466Y001629D01*
X008460Y001635D01*
X008454Y001646D01*
X008433Y001695D01*
X008396Y001751D01*
X008389Y001758D01*
X008376Y001781D01*
X008353Y001794D01*
X008348Y001799D01*
X008292Y001836D01*
X008248Y001854D01*
X008220Y001870D01*
X008187Y001870D01*
X008164Y001875D01*
X008156Y001875D01*
X008156Y001870D01*
X008106Y001870D01*
X008106Y001875D01*
X008097Y001875D01*
X008075Y001870D01*
X008041Y001870D01*
X008013Y001854D01*
X007969Y001836D01*
X007913Y001799D01*
X007908Y001794D01*
X007885Y001781D01*
X007885Y001781D01*
X007885Y001781D01*
X007872Y001758D01*
X007865Y001751D01*
X007828Y001695D01*
X007808Y001646D01*
X007801Y001635D01*
X007796Y001629D01*
X007796Y001599D01*
X007789Y001567D01*
X007789Y001440D01*
X007796Y001440D01*
X007796Y001390D01*
X007789Y001390D01*
X007789Y001263D01*
X007796Y001231D01*
X007796Y001197D01*
X007801Y001191D01*
X007813Y001170D01*
X007828Y001135D01*
X007865Y001079D01*
X007867Y001078D01*
X007885Y001046D01*
X007885Y001046D01*
X007885Y001046D01*
X007929Y001021D01*
X007882Y001006D01*
X007810Y000969D01*
X007744Y000921D01*
X007686Y000863D01*
X007638Y000797D01*
X007627Y000775D01*
X007531Y000775D01*
X007531Y000525D02*
X007497Y000527D01*
X007464Y000533D01*
X007432Y000542D01*
X007401Y000555D01*
X007371Y000571D01*
X007344Y000590D01*
X007319Y000613D01*
X007296Y000638D01*
X007277Y000665D01*
X007261Y000695D01*
X007248Y000726D01*
X007239Y000758D01*
X007233Y000791D01*
X007231Y000825D01*
X007482Y000816D02*
X007652Y000816D01*
X007687Y000865D02*
X007549Y000865D01*
X007603Y000913D02*
X007736Y000913D01*
X007800Y000962D02*
X007645Y000962D01*
X007679Y001010D02*
X007896Y001010D01*
X007878Y001059D02*
X007703Y001059D01*
X007722Y001107D02*
X007847Y001107D01*
X007820Y001156D02*
X007738Y001156D01*
X007745Y001204D02*
X007796Y001204D01*
X007791Y001253D02*
X007481Y001253D01*
X007750Y001301D02*
X007789Y001301D01*
X007789Y001350D02*
X007745Y001350D01*
X007737Y001398D02*
X007796Y001398D01*
X007789Y001447D02*
X007721Y001447D01*
X007702Y001495D02*
X007789Y001495D01*
X007789Y001544D02*
X007677Y001544D01*
X007642Y001592D02*
X007794Y001592D01*
X007805Y001641D02*
X007600Y001641D01*
X007544Y001689D02*
X007826Y001689D01*
X007856Y001738D02*
X007481Y001738D01*
X007481Y001786D02*
X007895Y001786D01*
X007967Y001835D02*
X007481Y001835D01*
X007481Y001883D02*
X009001Y001883D01*
X008980Y001932D02*
X007481Y001932D01*
X007481Y001980D02*
X008960Y001980D01*
X008948Y002029D02*
X007481Y002029D01*
X007481Y002077D02*
X008948Y002077D01*
X008948Y002126D02*
X007481Y002126D01*
X007481Y002174D02*
X008961Y002174D01*
X008982Y002223D02*
X007481Y002223D01*
X007481Y002271D02*
X009005Y002271D01*
X009054Y002320D02*
X007481Y002320D01*
X007481Y002368D02*
X009115Y002368D01*
X009451Y002368D02*
X010212Y002368D01*
X010548Y002368D02*
X012181Y002368D01*
X012181Y002320D02*
X011884Y002320D01*
X011960Y002271D02*
X012181Y002271D01*
X012181Y002223D02*
X012009Y002223D01*
X012057Y002174D02*
X012181Y002174D01*
X012181Y002126D02*
X012106Y002126D01*
X012154Y002077D02*
X012181Y002077D01*
X011296Y001786D02*
X010558Y001786D01*
X010202Y001786D02*
X009461Y001786D01*
X009105Y001786D02*
X008367Y001786D01*
X008376Y001781D02*
X008376Y001781D01*
X008376Y001781D01*
X008405Y001738D02*
X011258Y001738D01*
X011227Y001689D02*
X008436Y001689D01*
X008457Y001641D02*
X011206Y001641D01*
X011196Y001592D02*
X008467Y001592D01*
X008472Y001544D02*
X011191Y001544D01*
X011191Y001495D02*
X008472Y001495D01*
X008472Y001447D02*
X011191Y001447D01*
X011197Y001398D02*
X008466Y001398D01*
X008472Y001350D02*
X011191Y001350D01*
X011191Y001301D02*
X008472Y001301D01*
X008470Y001253D02*
X011193Y001253D01*
X011197Y001204D02*
X008466Y001204D01*
X008442Y001156D02*
X011221Y001156D01*
X011249Y001107D02*
X008414Y001107D01*
X008383Y001059D02*
X010210Y001059D01*
X010092Y001010D02*
X009467Y001010D01*
X009563Y000962D02*
X010028Y000962D01*
X009979Y000913D02*
X009627Y000913D01*
X009676Y000865D02*
X009931Y000865D01*
X009897Y000816D02*
X009711Y000816D01*
X009306Y000816D02*
X009256Y000816D01*
X009256Y000865D02*
X009306Y000865D01*
X009306Y000913D02*
X009256Y000913D01*
X009256Y000962D02*
X009306Y000962D01*
X009306Y001010D02*
X009256Y001010D01*
X009096Y001010D02*
X008316Y001010D01*
X008363Y000962D02*
X009000Y000962D01*
X008936Y000913D02*
X008427Y000913D01*
X008476Y000865D02*
X008887Y000865D01*
X008852Y000816D02*
X008511Y000816D01*
X008376Y001046D02*
X008376Y001046D01*
X008376Y001046D01*
X010553Y001059D02*
X011280Y001059D01*
X011287Y001046D02*
X011287Y001046D01*
X011347Y001010D02*
X010671Y001010D01*
X010735Y000962D02*
X011300Y000962D01*
X011236Y000913D02*
X010784Y000913D01*
X010832Y000865D02*
X011187Y000865D01*
X011152Y000816D02*
X010866Y000816D01*
X009050Y001835D02*
X008295Y001835D01*
X008243Y002465D02*
X011420Y002465D01*
X011507Y002452D02*
X011507Y002452D01*
X011644Y002465D02*
X012181Y002465D01*
X012181Y002417D02*
X007481Y002417D01*
X007481Y002465D02*
X008019Y002465D01*
X008106Y002452D02*
X008106Y002452D01*
X007934Y002514D02*
X007481Y002514D01*
X007481Y002562D02*
X007874Y002562D01*
X007842Y002611D02*
X007481Y002611D01*
X007481Y002659D02*
X007817Y002659D01*
X007796Y002708D02*
X007481Y002708D01*
X007481Y002756D02*
X007790Y002756D01*
X007789Y002805D02*
X007481Y002805D01*
X007481Y002853D02*
X007789Y002853D01*
X007796Y002902D02*
X007481Y002902D01*
X007481Y002950D02*
X007789Y002950D01*
X007789Y002999D02*
X007481Y002999D01*
X007481Y003047D02*
X007789Y003047D01*
X007931Y002926D02*
X008081Y002825D01*
X008131Y002911D02*
X007931Y002926D01*
X008466Y002902D02*
X011197Y002902D01*
X011191Y002950D02*
X008472Y002950D01*
X008472Y002999D02*
X011191Y002999D01*
X011191Y003047D02*
X008472Y003047D01*
X008472Y002853D02*
X011191Y002853D01*
X011191Y002805D02*
X008472Y002805D01*
X008472Y002756D02*
X011191Y002756D01*
X011197Y002708D02*
X008466Y002708D01*
X008445Y002659D02*
X011218Y002659D01*
X011244Y002611D02*
X008419Y002611D01*
X008388Y002562D02*
X011275Y002562D01*
X011336Y002514D02*
X008327Y002514D01*
X008376Y002542D02*
X008376Y002542D01*
X011532Y002911D02*
X011596Y002825D01*
X011874Y002805D02*
X012181Y002805D01*
X012181Y002853D02*
X011874Y002853D01*
X011867Y002902D02*
X012181Y002902D01*
X012181Y002950D02*
X011874Y002950D01*
X011874Y002999D02*
X012181Y002999D01*
X012181Y003047D02*
X011874Y003047D01*
X011873Y002756D02*
X012181Y002756D01*
X012181Y002708D02*
X011867Y002708D01*
X011846Y002659D02*
X012181Y002659D01*
X012181Y002611D02*
X011821Y002611D01*
X011789Y002562D02*
X012181Y002562D01*
X012181Y002514D02*
X011729Y002514D01*
X011778Y002542D02*
X011778Y002542D01*
X011778Y002542D01*
D11*
X011640Y002787D02*
X011640Y003031D01*
X011638Y003051D01*
X011633Y003070D01*
X011624Y003088D01*
X011612Y003104D01*
X011597Y003117D01*
X011580Y003128D01*
X011562Y003135D01*
X011542Y003139D01*
X011522Y003139D01*
X011502Y003135D01*
X011484Y003128D01*
X011467Y003117D01*
X011452Y003104D01*
X011440Y003088D01*
X011431Y003070D01*
X011426Y003051D01*
X011424Y003031D01*
X011424Y002787D01*
X011426Y002767D01*
X011431Y002748D01*
X011440Y002730D01*
X011452Y002714D01*
X011467Y002701D01*
X011484Y002690D01*
X011502Y002683D01*
X011522Y002679D01*
X011542Y002679D01*
X011562Y002683D01*
X011580Y002690D01*
X011597Y002701D01*
X011612Y002714D01*
X011624Y002730D01*
X011633Y002748D01*
X011638Y002767D01*
X011640Y002787D01*
X008239Y002787D02*
X008239Y003031D01*
X008237Y003051D01*
X008232Y003070D01*
X008223Y003088D01*
X008211Y003104D01*
X008196Y003117D01*
X008179Y003128D01*
X008161Y003135D01*
X008141Y003139D01*
X008121Y003139D01*
X008101Y003135D01*
X008083Y003128D01*
X008066Y003117D01*
X008051Y003104D01*
X008039Y003088D01*
X008030Y003070D01*
X008025Y003051D01*
X008023Y003031D01*
X008023Y002787D01*
X008025Y002767D01*
X008030Y002748D01*
X008039Y002730D01*
X008051Y002714D01*
X008066Y002701D01*
X008083Y002690D01*
X008101Y002683D01*
X008121Y002679D01*
X008141Y002679D01*
X008161Y002683D01*
X008179Y002690D01*
X008196Y002701D01*
X008211Y002714D01*
X008223Y002730D01*
X008232Y002748D01*
X008237Y002767D01*
X008239Y002787D01*
X008239Y001535D02*
X008239Y001291D01*
X008237Y001271D01*
X008232Y001252D01*
X008223Y001234D01*
X008211Y001218D01*
X008196Y001205D01*
X008179Y001194D01*
X008161Y001187D01*
X008141Y001183D01*
X008121Y001183D01*
X008101Y001187D01*
X008083Y001194D01*
X008066Y001205D01*
X008051Y001218D01*
X008039Y001234D01*
X008030Y001252D01*
X008025Y001271D01*
X008023Y001291D01*
X008023Y001535D01*
X008025Y001555D01*
X008030Y001574D01*
X008039Y001592D01*
X008051Y001608D01*
X008066Y001621D01*
X008083Y001632D01*
X008101Y001639D01*
X008121Y001643D01*
X008141Y001643D01*
X008161Y001639D01*
X008179Y001632D01*
X008196Y001621D01*
X008211Y001608D01*
X008223Y001592D01*
X008232Y001574D01*
X008237Y001555D01*
X008239Y001535D01*
X011424Y001535D02*
X011424Y001291D01*
X011426Y001271D01*
X011431Y001252D01*
X011440Y001234D01*
X011452Y001218D01*
X011467Y001205D01*
X011484Y001194D01*
X011502Y001187D01*
X011522Y001183D01*
X011542Y001183D01*
X011562Y001187D01*
X011580Y001194D01*
X011597Y001205D01*
X011612Y001218D01*
X011624Y001234D01*
X011633Y001252D01*
X011638Y001271D01*
X011640Y001291D01*
X011640Y001535D01*
X011638Y001555D01*
X011633Y001574D01*
X011624Y001592D01*
X011612Y001608D01*
X011597Y001621D01*
X011580Y001632D01*
X011562Y001639D01*
X011542Y001643D01*
X011522Y001643D01*
X011502Y001639D01*
X011484Y001632D01*
X011467Y001621D01*
X011452Y001608D01*
X011440Y001592D01*
X011431Y001574D01*
X011426Y001555D01*
X011424Y001535D01*
D12*
X011532Y001533D02*
X011532Y001533D01*
X011532Y001297D01*
X011532Y001297D01*
X011532Y001533D01*
X008131Y001533D02*
X008131Y001533D01*
X008131Y001297D01*
X008131Y001297D01*
X008131Y001533D01*
X008131Y003029D02*
X008131Y003029D01*
X008131Y002793D01*
X008131Y002793D01*
X008131Y003029D01*
X011532Y003029D02*
X011532Y003029D01*
X011532Y002793D01*
X011532Y002793D01*
X011532Y003029D01*
D13*
X012431Y001275D03*
X011581Y000525D03*
X010381Y000525D03*
X009281Y000525D03*
X008081Y000525D03*
X007231Y001275D03*
D14*
X008339Y002064D03*
X008589Y002064D03*
X010789Y001714D03*
X011039Y001714D03*
D15*
X011596Y002825D02*
X008081Y002825D01*
D16*
X008081Y002207D01*
X007939Y002064D01*
D17*
X008131Y001415D02*
X008131Y000574D01*
X008081Y000525D01*
X011532Y000574D02*
X011532Y001415D01*
X011532Y000574D02*
X011581Y000525D01*
D18*
X010380Y002075D03*
X009283Y002075D03*
D19*
X010380Y002075D01*
X011781Y002075D01*
X012431Y001425D01*
X012431Y001275D01*
M02*
