G75*
G70*
%OFA0B0*%
%FSLAX24Y24*%
%IPPOS*%
%LPD*%
%AMOC8*
5,1,8,0,0,1.08239X$1,22.5*
%
%ADD10C,0.0050*%
%ADD11C,0.0004*%
%ADD12C,0.0433*%
%ADD13C,0.0787*%
D10*
X007231Y000825D02*
X007231Y003125D01*
X007233Y003151D01*
X007238Y003177D01*
X007246Y003202D01*
X007258Y003225D01*
X007272Y003247D01*
X007290Y003266D01*
X007309Y003284D01*
X007331Y003298D01*
X007354Y003310D01*
X007379Y003318D01*
X007405Y003323D01*
X007431Y003325D01*
X012231Y003325D01*
X012257Y003323D01*
X012283Y003318D01*
X012308Y003310D01*
X012331Y003298D01*
X012353Y003284D01*
X012372Y003266D01*
X012390Y003247D01*
X012404Y003225D01*
X012416Y003202D01*
X012424Y003177D01*
X012429Y003151D01*
X012431Y003125D01*
X012431Y000875D01*
X012429Y000838D01*
X012423Y000802D01*
X012414Y000767D01*
X012401Y000733D01*
X012384Y000700D01*
X012364Y000669D01*
X012341Y000641D01*
X012315Y000615D01*
X012287Y000592D01*
X012256Y000572D01*
X012223Y000555D01*
X012189Y000542D01*
X012154Y000533D01*
X012118Y000527D01*
X012081Y000525D01*
X007531Y000525D01*
X007497Y000527D01*
X007464Y000533D01*
X007432Y000542D01*
X007401Y000555D01*
X007371Y000571D01*
X007344Y000590D01*
X007319Y000613D01*
X007296Y000638D01*
X007277Y000665D01*
X007261Y000695D01*
X007248Y000726D01*
X007239Y000758D01*
X007233Y000791D01*
X007231Y000825D01*
D11*
X008023Y001291D02*
X008023Y001535D01*
X008025Y001555D01*
X008030Y001574D01*
X008039Y001592D01*
X008051Y001608D01*
X008066Y001621D01*
X008083Y001632D01*
X008101Y001639D01*
X008121Y001643D01*
X008141Y001643D01*
X008161Y001639D01*
X008179Y001632D01*
X008196Y001621D01*
X008211Y001608D01*
X008223Y001592D01*
X008232Y001574D01*
X008237Y001555D01*
X008239Y001535D01*
X008239Y001291D01*
X008237Y001271D01*
X008232Y001252D01*
X008223Y001234D01*
X008211Y001218D01*
X008196Y001205D01*
X008179Y001194D01*
X008161Y001187D01*
X008141Y001183D01*
X008121Y001183D01*
X008101Y001187D01*
X008083Y001194D01*
X008066Y001205D01*
X008051Y001218D01*
X008039Y001234D01*
X008030Y001252D01*
X008025Y001271D01*
X008023Y001291D01*
X011424Y001291D02*
X011424Y001535D01*
X011426Y001555D01*
X011431Y001574D01*
X011440Y001592D01*
X011452Y001608D01*
X011467Y001621D01*
X011484Y001632D01*
X011502Y001639D01*
X011522Y001643D01*
X011542Y001643D01*
X011562Y001639D01*
X011580Y001632D01*
X011597Y001621D01*
X011612Y001608D01*
X011624Y001592D01*
X011633Y001574D01*
X011638Y001555D01*
X011640Y001535D01*
X011640Y001291D01*
X011638Y001271D01*
X011633Y001252D01*
X011624Y001234D01*
X011612Y001218D01*
X011597Y001205D01*
X011580Y001194D01*
X011562Y001187D01*
X011542Y001183D01*
X011522Y001183D01*
X011502Y001187D01*
X011484Y001194D01*
X011467Y001205D01*
X011452Y001218D01*
X011440Y001234D01*
X011431Y001252D01*
X011426Y001271D01*
X011424Y001291D01*
X011424Y002787D02*
X011424Y003031D01*
X011426Y003051D01*
X011431Y003070D01*
X011440Y003088D01*
X011452Y003104D01*
X011467Y003117D01*
X011484Y003128D01*
X011502Y003135D01*
X011522Y003139D01*
X011542Y003139D01*
X011562Y003135D01*
X011580Y003128D01*
X011597Y003117D01*
X011612Y003104D01*
X011624Y003088D01*
X011633Y003070D01*
X011638Y003051D01*
X011640Y003031D01*
X011640Y002787D01*
X011638Y002767D01*
X011633Y002748D01*
X011624Y002730D01*
X011612Y002714D01*
X011597Y002701D01*
X011580Y002690D01*
X011562Y002683D01*
X011542Y002679D01*
X011522Y002679D01*
X011502Y002683D01*
X011484Y002690D01*
X011467Y002701D01*
X011452Y002714D01*
X011440Y002730D01*
X011431Y002748D01*
X011426Y002767D01*
X011424Y002787D01*
X008239Y002787D02*
X008239Y003031D01*
X008237Y003051D01*
X008232Y003070D01*
X008223Y003088D01*
X008211Y003104D01*
X008196Y003117D01*
X008179Y003128D01*
X008161Y003135D01*
X008141Y003139D01*
X008121Y003139D01*
X008101Y003135D01*
X008083Y003128D01*
X008066Y003117D01*
X008051Y003104D01*
X008039Y003088D01*
X008030Y003070D01*
X008025Y003051D01*
X008023Y003031D01*
X008023Y002787D01*
X008025Y002767D01*
X008030Y002748D01*
X008039Y002730D01*
X008051Y002714D01*
X008066Y002701D01*
X008083Y002690D01*
X008101Y002683D01*
X008121Y002679D01*
X008141Y002679D01*
X008161Y002683D01*
X008179Y002690D01*
X008196Y002701D01*
X008211Y002714D01*
X008223Y002730D01*
X008232Y002748D01*
X008237Y002767D01*
X008239Y002787D01*
D12*
X008131Y003029D02*
X008131Y003029D01*
X008131Y002793D01*
X008131Y002793D01*
X008131Y003029D01*
X011532Y003029D02*
X011532Y003029D01*
X011532Y002793D01*
X011532Y002793D01*
X011532Y003029D01*
X011532Y001533D02*
X011532Y001533D01*
X011532Y001297D01*
X011532Y001297D01*
X011532Y001533D01*
X008131Y001533D02*
X008131Y001533D01*
X008131Y001297D01*
X008131Y001297D01*
X008131Y001533D01*
D13*
X007231Y001275D03*
X008081Y000525D03*
X009281Y000525D03*
X010381Y000525D03*
X011581Y000525D03*
X012431Y001275D03*
M02*
