G75*
G70*
%OFA0B0*%
%FSLAX24Y24*%
%IPPOS*%
%LPD*%
%AMOC8*
5,1,8,0,0,1.08239X$1,22.5*
%
%ADD10C,0.0050*%
%ADD11R,0.0197X0.0220*%
%ADD12R,0.0315X0.0472*%
%ADD13R,0.0250X0.0472*%
%ADD14C,0.0004*%
%ADD15C,0.0433*%
%ADD16C,0.0787*%
%ADD17C,0.0200*%
%ADD18C,0.0240*%
%ADD19C,0.0315*%
%ADD20C,0.0120*%
%ADD21C,0.0100*%
%ADD22C,0.0650*%
%ADD23C,0.0400*%
%ADD24C,0.0340*%
D10*
X007231Y000825D02*
X007231Y003125D01*
X007233Y003151D01*
X007238Y003177D01*
X007246Y003202D01*
X007258Y003225D01*
X007272Y003247D01*
X007290Y003266D01*
X007309Y003284D01*
X007331Y003298D01*
X007354Y003310D01*
X007379Y003318D01*
X007405Y003323D01*
X007431Y003325D01*
X012231Y003325D01*
X012257Y003323D01*
X012283Y003318D01*
X012308Y003310D01*
X012331Y003298D01*
X012353Y003284D01*
X012372Y003266D01*
X012390Y003247D01*
X012404Y003225D01*
X012416Y003202D01*
X012424Y003177D01*
X012429Y003151D01*
X012431Y003125D01*
X012431Y000875D01*
X012429Y000838D01*
X012423Y000802D01*
X012414Y000767D01*
X012401Y000733D01*
X012384Y000700D01*
X012364Y000669D01*
X012341Y000641D01*
X012315Y000615D01*
X012287Y000592D01*
X012256Y000572D01*
X012223Y000555D01*
X012189Y000542D01*
X012154Y000533D01*
X012118Y000527D01*
X012081Y000525D01*
X007531Y000525D01*
X007531Y000775D02*
X007522Y000776D01*
X007504Y000783D01*
X007490Y000797D01*
X007482Y000815D01*
X007482Y000820D01*
X007503Y000831D01*
X007569Y000879D01*
X007627Y000937D01*
X007675Y001003D01*
X007712Y001076D01*
X007737Y001154D01*
X007750Y001234D01*
X007750Y001250D01*
X007481Y001250D01*
X007481Y001300D01*
X007750Y001300D01*
X007750Y001316D01*
X007737Y001396D01*
X007712Y001474D01*
X007675Y001547D01*
X007627Y001613D01*
X007569Y001671D01*
X007503Y001719D01*
X007481Y001730D01*
X007481Y002283D01*
X007570Y002283D01*
X007642Y002210D01*
X008976Y002210D01*
X008948Y002142D01*
X008948Y002008D01*
X008966Y001964D01*
X008966Y001723D01*
X008957Y001714D01*
X008955Y001715D01*
X008923Y001724D01*
X008774Y001724D01*
X008774Y001388D01*
X008724Y001388D01*
X008724Y001724D01*
X008575Y001724D01*
X008543Y001715D01*
X008515Y001699D01*
X008491Y001676D01*
X008475Y001647D01*
X008466Y001615D01*
X008466Y001597D01*
X008466Y001599D01*
X008466Y001629D01*
X008460Y001635D01*
X008454Y001646D01*
X008433Y001695D01*
X008396Y001751D01*
X008389Y001758D01*
X008376Y001781D01*
X008353Y001794D01*
X008348Y001799D01*
X008292Y001836D01*
X008248Y001854D01*
X008220Y001870D01*
X008187Y001870D01*
X008164Y001875D01*
X008156Y001875D01*
X008156Y001870D01*
X008106Y001870D01*
X008106Y001875D01*
X008097Y001875D01*
X008075Y001870D01*
X008041Y001870D01*
X008013Y001854D01*
X007969Y001836D01*
X007913Y001799D01*
X007908Y001794D01*
X007885Y001781D01*
X007885Y001781D01*
X007885Y001781D01*
X007872Y001758D01*
X007865Y001751D01*
X007828Y001695D01*
X007808Y001646D01*
X007801Y001635D01*
X007796Y001629D01*
X007796Y001599D01*
X007789Y001567D01*
X007789Y001440D01*
X007796Y001440D01*
X007796Y001390D01*
X007789Y001390D01*
X007789Y001263D01*
X007796Y001231D01*
X007796Y001197D01*
X007801Y001191D01*
X007813Y001170D01*
X007828Y001135D01*
X007865Y001079D01*
X007867Y001078D01*
X007885Y001046D01*
X007885Y001046D01*
X007885Y001046D01*
X007929Y001021D01*
X007882Y001006D01*
X007810Y000969D01*
X007744Y000921D01*
X007686Y000863D01*
X007638Y000797D01*
X007627Y000775D01*
X007531Y000775D01*
X007531Y000525D02*
X007497Y000527D01*
X007464Y000533D01*
X007432Y000542D01*
X007401Y000555D01*
X007371Y000571D01*
X007344Y000590D01*
X007319Y000613D01*
X007296Y000638D01*
X007277Y000665D01*
X007261Y000695D01*
X007248Y000726D01*
X007239Y000758D01*
X007233Y000791D01*
X007231Y000825D01*
X007482Y000816D02*
X007652Y000816D01*
X007687Y000865D02*
X007549Y000865D01*
X007603Y000913D02*
X007736Y000913D01*
X007800Y000962D02*
X007645Y000962D01*
X007679Y001010D02*
X007896Y001010D01*
X007878Y001059D02*
X007703Y001059D01*
X007722Y001107D02*
X007847Y001107D01*
X007820Y001156D02*
X007738Y001156D01*
X007745Y001204D02*
X007796Y001204D01*
X007791Y001253D02*
X007481Y001253D01*
X007750Y001301D02*
X007789Y001301D01*
X007789Y001350D02*
X007745Y001350D01*
X007737Y001398D02*
X007796Y001398D01*
X007789Y001447D02*
X007721Y001447D01*
X007702Y001495D02*
X007789Y001495D01*
X007789Y001544D02*
X007677Y001544D01*
X007642Y001592D02*
X007794Y001592D01*
X007805Y001641D02*
X007600Y001641D01*
X007544Y001689D02*
X007826Y001689D01*
X007856Y001738D02*
X007481Y001738D01*
X007481Y001786D02*
X007895Y001786D01*
X007967Y001835D02*
X007481Y001835D01*
X007481Y001883D02*
X008966Y001883D01*
X008966Y001835D02*
X008295Y001835D01*
X008367Y001786D02*
X008966Y001786D01*
X008966Y001738D02*
X008405Y001738D01*
X008376Y001781D02*
X008376Y001781D01*
X008376Y001781D01*
X008436Y001689D02*
X008505Y001689D01*
X008473Y001641D02*
X008457Y001641D01*
X008724Y001641D02*
X008774Y001641D01*
X008774Y001689D02*
X008724Y001689D01*
X008724Y001592D02*
X008774Y001592D01*
X008774Y001544D02*
X008724Y001544D01*
X008724Y001495D02*
X008774Y001495D01*
X008774Y001447D02*
X008724Y001447D01*
X008724Y001398D02*
X008774Y001398D01*
X010695Y001725D02*
X010695Y001960D01*
X010715Y002008D01*
X010715Y002142D01*
X010687Y002210D01*
X012071Y002210D01*
X012143Y002283D01*
X012181Y002283D01*
X012181Y001776D01*
X012115Y001749D01*
X011958Y001591D01*
X011874Y001389D01*
X011874Y001390D01*
X011867Y001390D01*
X011867Y001440D01*
X011874Y001440D01*
X011874Y001567D01*
X011867Y001599D01*
X011867Y001629D01*
X011862Y001635D01*
X011855Y001646D01*
X011835Y001695D01*
X011798Y001751D01*
X011791Y001758D01*
X011778Y001781D01*
X011778Y001781D01*
X011778Y001781D01*
X011755Y001794D01*
X011750Y001799D01*
X011694Y001836D01*
X011650Y001854D01*
X011622Y001870D01*
X011588Y001870D01*
X011566Y001875D01*
X011557Y001875D01*
X011557Y001870D01*
X011507Y001870D01*
X011507Y001875D01*
X011499Y001875D01*
X011476Y001870D01*
X011442Y001870D01*
X011415Y001854D01*
X011371Y001836D01*
X011315Y001799D01*
X011310Y001794D01*
X011287Y001781D01*
X011287Y001781D01*
X011287Y001781D01*
X011274Y001758D01*
X011267Y001751D01*
X011230Y001695D01*
X011209Y001646D01*
X011203Y001635D01*
X011197Y001629D01*
X011197Y001599D01*
X011197Y001597D01*
X011197Y001615D01*
X011188Y001647D01*
X011172Y001676D01*
X011148Y001699D01*
X011120Y001715D01*
X011088Y001724D01*
X010939Y001724D01*
X010939Y001388D01*
X010889Y001388D01*
X010889Y001724D01*
X010740Y001724D01*
X010708Y001715D01*
X010706Y001714D01*
X010695Y001725D01*
X010695Y001738D02*
X011258Y001738D01*
X011227Y001689D02*
X011158Y001689D01*
X011190Y001641D02*
X011206Y001641D01*
X010939Y001641D02*
X010889Y001641D01*
X010889Y001689D02*
X010939Y001689D01*
X010939Y001592D02*
X010889Y001592D01*
X010889Y001544D02*
X010939Y001544D01*
X010939Y001495D02*
X010889Y001495D01*
X010889Y001447D02*
X010939Y001447D01*
X010939Y001398D02*
X010889Y001398D01*
X011867Y001398D02*
X011878Y001398D01*
X011874Y001447D02*
X011898Y001447D01*
X011918Y001495D02*
X011874Y001495D01*
X011874Y001544D02*
X011938Y001544D01*
X011958Y001592D02*
X011869Y001592D01*
X011858Y001641D02*
X012007Y001641D01*
X012055Y001689D02*
X011837Y001689D01*
X011807Y001738D02*
X012104Y001738D01*
X012181Y001786D02*
X011768Y001786D01*
X011696Y001835D02*
X012181Y001835D01*
X012181Y001883D02*
X010695Y001883D01*
X010695Y001835D02*
X011368Y001835D01*
X011296Y001786D02*
X010695Y001786D01*
X010695Y001932D02*
X012181Y001932D01*
X012181Y001980D02*
X010703Y001980D01*
X010715Y002029D02*
X012181Y002029D01*
X012181Y002077D02*
X010715Y002077D01*
X010715Y002126D02*
X012181Y002126D01*
X012181Y002174D02*
X010702Y002174D01*
X012083Y002223D02*
X012181Y002223D01*
X012181Y002271D02*
X012132Y002271D01*
X008961Y002174D02*
X007481Y002174D01*
X007481Y002126D02*
X008948Y002126D01*
X008948Y002077D02*
X007481Y002077D01*
X007481Y002029D02*
X008948Y002029D01*
X008960Y001980D02*
X007481Y001980D01*
X007481Y001932D02*
X008966Y001932D01*
X007630Y002223D02*
X007481Y002223D01*
X007481Y002271D02*
X007581Y002271D01*
D11*
X007556Y002558D03*
X007556Y003004D03*
X012107Y003004D03*
X012107Y002558D03*
D12*
X010914Y001363D03*
X010430Y001363D03*
X009233Y001363D03*
X008749Y001363D03*
D13*
X009635Y001363D03*
X010028Y001363D03*
D14*
X011424Y001291D02*
X011424Y001535D01*
X011426Y001555D01*
X011431Y001574D01*
X011440Y001592D01*
X011452Y001608D01*
X011467Y001621D01*
X011484Y001632D01*
X011502Y001639D01*
X011522Y001643D01*
X011542Y001643D01*
X011562Y001639D01*
X011580Y001632D01*
X011597Y001621D01*
X011612Y001608D01*
X011624Y001592D01*
X011633Y001574D01*
X011638Y001555D01*
X011640Y001535D01*
X011640Y001291D01*
X011638Y001271D01*
X011633Y001252D01*
X011624Y001234D01*
X011612Y001218D01*
X011597Y001205D01*
X011580Y001194D01*
X011562Y001187D01*
X011542Y001183D01*
X011522Y001183D01*
X011502Y001187D01*
X011484Y001194D01*
X011467Y001205D01*
X011452Y001218D01*
X011440Y001234D01*
X011431Y001252D01*
X011426Y001271D01*
X011424Y001291D01*
X008239Y001291D02*
X008239Y001535D01*
X008237Y001555D01*
X008232Y001574D01*
X008223Y001592D01*
X008211Y001608D01*
X008196Y001621D01*
X008179Y001632D01*
X008161Y001639D01*
X008141Y001643D01*
X008121Y001643D01*
X008101Y001639D01*
X008083Y001632D01*
X008066Y001621D01*
X008051Y001608D01*
X008039Y001592D01*
X008030Y001574D01*
X008025Y001555D01*
X008023Y001535D01*
X008023Y001291D01*
X008025Y001271D01*
X008030Y001252D01*
X008039Y001234D01*
X008051Y001218D01*
X008066Y001205D01*
X008083Y001194D01*
X008101Y001187D01*
X008121Y001183D01*
X008141Y001183D01*
X008161Y001187D01*
X008179Y001194D01*
X008196Y001205D01*
X008211Y001218D01*
X008223Y001234D01*
X008232Y001252D01*
X008237Y001271D01*
X008239Y001291D01*
X008239Y002787D02*
X008239Y003031D01*
X008237Y003051D01*
X008232Y003070D01*
X008223Y003088D01*
X008211Y003104D01*
X008196Y003117D01*
X008179Y003128D01*
X008161Y003135D01*
X008141Y003139D01*
X008121Y003139D01*
X008101Y003135D01*
X008083Y003128D01*
X008066Y003117D01*
X008051Y003104D01*
X008039Y003088D01*
X008030Y003070D01*
X008025Y003051D01*
X008023Y003031D01*
X008023Y002787D01*
X008025Y002767D01*
X008030Y002748D01*
X008039Y002730D01*
X008051Y002714D01*
X008066Y002701D01*
X008083Y002690D01*
X008101Y002683D01*
X008121Y002679D01*
X008141Y002679D01*
X008161Y002683D01*
X008179Y002690D01*
X008196Y002701D01*
X008211Y002714D01*
X008223Y002730D01*
X008232Y002748D01*
X008237Y002767D01*
X008239Y002787D01*
X011424Y002787D02*
X011424Y003031D01*
X011426Y003051D01*
X011431Y003070D01*
X011440Y003088D01*
X011452Y003104D01*
X011467Y003117D01*
X011484Y003128D01*
X011502Y003135D01*
X011522Y003139D01*
X011542Y003139D01*
X011562Y003135D01*
X011580Y003128D01*
X011597Y003117D01*
X011612Y003104D01*
X011624Y003088D01*
X011633Y003070D01*
X011638Y003051D01*
X011640Y003031D01*
X011640Y002787D01*
X011638Y002767D01*
X011633Y002748D01*
X011624Y002730D01*
X011612Y002714D01*
X011597Y002701D01*
X011580Y002690D01*
X011562Y002683D01*
X011542Y002679D01*
X011522Y002679D01*
X011502Y002683D01*
X011484Y002690D01*
X011467Y002701D01*
X011452Y002714D01*
X011440Y002730D01*
X011431Y002748D01*
X011426Y002767D01*
X011424Y002787D01*
D15*
X011532Y002793D02*
X011532Y002793D01*
X011532Y003029D01*
X011532Y003029D01*
X011532Y002793D01*
X008131Y002793D02*
X008131Y002793D01*
X008131Y003029D01*
X008131Y003029D01*
X008131Y002793D01*
X008131Y001297D02*
X008131Y001297D01*
X008131Y001533D01*
X008131Y001533D01*
X008131Y001297D01*
X011532Y001297D02*
X011532Y001297D01*
X011532Y001533D01*
X011532Y001533D01*
X011532Y001297D01*
D16*
X012431Y001275D03*
X011581Y000525D03*
X010381Y000525D03*
X009281Y000525D03*
X008081Y000525D03*
X007231Y001275D03*
D17*
X007231Y001425D01*
X007781Y001975D01*
X008631Y001975D01*
X008749Y001858D01*
X008749Y001363D01*
X008696Y001415D01*
X008131Y001415D01*
X008749Y001363D02*
X008749Y001058D01*
X009281Y000525D01*
X010381Y000525D02*
X010430Y000573D01*
X010430Y001363D01*
X010430Y002025D01*
X010380Y002075D01*
X009283Y002075D02*
X009231Y002073D01*
X009231Y001364D01*
X009233Y001363D01*
X010797Y001706D02*
X011039Y001714D01*
X010914Y001706D02*
X010797Y001706D01*
X010967Y001415D02*
X010914Y001363D01*
X010967Y001415D02*
X011532Y001415D01*
D18*
X011039Y001714D03*
X010789Y001714D03*
X008589Y002064D03*
X008339Y002064D03*
D19*
X010914Y001706D02*
X010914Y001363D01*
D20*
X011532Y003004D02*
X012107Y003004D01*
X008131Y003004D02*
X007556Y003004D01*
D21*
X008131Y003004D02*
X008131Y002911D01*
X007731Y002425D02*
X007599Y002558D01*
X007556Y002558D01*
X007731Y002425D02*
X009556Y002425D01*
X009580Y002423D01*
X009603Y002418D01*
X009625Y002408D01*
X009646Y002396D01*
X009664Y002380D01*
X009680Y002362D01*
X009692Y002341D01*
X009702Y002319D01*
X009707Y002296D01*
X009709Y002272D01*
X009710Y002272D02*
X009710Y001413D01*
X009635Y001363D01*
X009953Y001413D02*
X010028Y001363D01*
X009953Y001413D02*
X009953Y002272D01*
X009955Y002296D01*
X009960Y002319D01*
X009970Y002341D01*
X009982Y002362D01*
X009998Y002380D01*
X010016Y002396D01*
X010037Y002408D01*
X010059Y002418D01*
X010082Y002423D01*
X010106Y002425D01*
X011981Y002425D01*
X012107Y002551D01*
X012107Y002558D01*
X011532Y002911D02*
X011532Y003004D01*
D22*
X011532Y002911D02*
X008131Y002911D01*
D23*
X008131Y001415D02*
X008131Y000574D01*
X008081Y000525D01*
X011532Y000574D02*
X011532Y001415D01*
X011532Y000574D02*
X011581Y000525D01*
D24*
X010380Y002075D03*
X009283Y002075D03*
M02*
