G75*
G70*
%OFA0B0*%
%FSLAX24Y24*%
%IPPOS*%
%LPD*%
%AMOC8*
5,1,8,0,0,1.08239X$1,22.5*
%
%ADD10C,0.0050*%
%ADD11C,0.0004*%
%ADD12C,0.0433*%
%ADD13C,0.0787*%
%ADD14C,0.0800*%
%ADD15C,0.0400*%
%ADD16C,0.0100*%
%ADD17C,0.0200*%
%ADD18C,0.0340*%
D10*
X007231Y000892D02*
X007231Y003092D01*
X007233Y003118D01*
X007238Y003144D01*
X007246Y003169D01*
X007258Y003192D01*
X007272Y003214D01*
X007290Y003233D01*
X007309Y003251D01*
X007331Y003265D01*
X007354Y003277D01*
X007379Y003285D01*
X007405Y003290D01*
X007431Y003292D01*
X012231Y003292D01*
X012257Y003290D01*
X012283Y003285D01*
X012308Y003277D01*
X012331Y003265D01*
X012353Y003251D01*
X012372Y003233D01*
X012390Y003214D01*
X012404Y003192D01*
X012416Y003169D01*
X012424Y003144D01*
X012429Y003118D01*
X012431Y003092D01*
X012431Y000942D01*
X012429Y000905D01*
X012423Y000869D01*
X012414Y000834D01*
X012401Y000800D01*
X012384Y000767D01*
X012364Y000736D01*
X012341Y000708D01*
X012315Y000682D01*
X012287Y000659D01*
X012256Y000639D01*
X012223Y000622D01*
X012189Y000609D01*
X012154Y000600D01*
X012118Y000594D01*
X012081Y000592D01*
X007531Y000592D01*
X007497Y000594D01*
X007464Y000600D01*
X007432Y000609D01*
X007401Y000622D01*
X007371Y000638D01*
X007344Y000657D01*
X007319Y000680D01*
X007296Y000705D01*
X007277Y000732D01*
X007261Y000762D01*
X007248Y000793D01*
X007239Y000825D01*
X007233Y000858D01*
X007231Y000892D01*
X007831Y002842D02*
X007931Y002993D01*
X008131Y002828D01*
X011532Y002828D02*
X011831Y002842D01*
D11*
X011640Y002948D02*
X011640Y002704D01*
X011638Y002684D01*
X011633Y002665D01*
X011624Y002647D01*
X011612Y002631D01*
X011597Y002618D01*
X011580Y002607D01*
X011562Y002600D01*
X011542Y002596D01*
X011522Y002596D01*
X011502Y002600D01*
X011484Y002607D01*
X011467Y002618D01*
X011452Y002631D01*
X011440Y002647D01*
X011431Y002665D01*
X011426Y002684D01*
X011424Y002704D01*
X011424Y002948D01*
X011426Y002968D01*
X011431Y002987D01*
X011440Y003005D01*
X011452Y003021D01*
X011467Y003034D01*
X011484Y003045D01*
X011502Y003052D01*
X011522Y003056D01*
X011542Y003056D01*
X011562Y003052D01*
X011580Y003045D01*
X011597Y003034D01*
X011612Y003021D01*
X011624Y003005D01*
X011633Y002987D01*
X011638Y002968D01*
X011640Y002948D01*
X011640Y001452D02*
X011640Y001208D01*
X011638Y001188D01*
X011633Y001169D01*
X011624Y001151D01*
X011612Y001135D01*
X011597Y001122D01*
X011580Y001111D01*
X011562Y001104D01*
X011542Y001100D01*
X011522Y001100D01*
X011502Y001104D01*
X011484Y001111D01*
X011467Y001122D01*
X011452Y001135D01*
X011440Y001151D01*
X011431Y001169D01*
X011426Y001188D01*
X011424Y001208D01*
X011424Y001452D01*
X011426Y001472D01*
X011431Y001491D01*
X011440Y001509D01*
X011452Y001525D01*
X011467Y001538D01*
X011484Y001549D01*
X011502Y001556D01*
X011522Y001560D01*
X011542Y001560D01*
X011562Y001556D01*
X011580Y001549D01*
X011597Y001538D01*
X011612Y001525D01*
X011624Y001509D01*
X011633Y001491D01*
X011638Y001472D01*
X011640Y001452D01*
X008239Y001452D02*
X008239Y001208D01*
X008237Y001188D01*
X008232Y001169D01*
X008223Y001151D01*
X008211Y001135D01*
X008196Y001122D01*
X008179Y001111D01*
X008161Y001104D01*
X008141Y001100D01*
X008121Y001100D01*
X008101Y001104D01*
X008083Y001111D01*
X008066Y001122D01*
X008051Y001135D01*
X008039Y001151D01*
X008030Y001169D01*
X008025Y001188D01*
X008023Y001208D01*
X008023Y001452D01*
X008025Y001472D01*
X008030Y001491D01*
X008039Y001509D01*
X008051Y001525D01*
X008066Y001538D01*
X008083Y001549D01*
X008101Y001556D01*
X008121Y001560D01*
X008141Y001560D01*
X008161Y001556D01*
X008179Y001549D01*
X008196Y001538D01*
X008211Y001525D01*
X008223Y001509D01*
X008232Y001491D01*
X008237Y001472D01*
X008239Y001452D01*
X008239Y002704D02*
X008239Y002948D01*
X008237Y002968D01*
X008232Y002987D01*
X008223Y003005D01*
X008211Y003021D01*
X008196Y003034D01*
X008179Y003045D01*
X008161Y003052D01*
X008141Y003056D01*
X008121Y003056D01*
X008101Y003052D01*
X008083Y003045D01*
X008066Y003034D01*
X008051Y003021D01*
X008039Y003005D01*
X008030Y002987D01*
X008025Y002968D01*
X008023Y002948D01*
X008023Y002704D01*
X008025Y002684D01*
X008030Y002665D01*
X008039Y002647D01*
X008051Y002631D01*
X008066Y002618D01*
X008083Y002607D01*
X008101Y002600D01*
X008121Y002596D01*
X008141Y002596D01*
X008161Y002600D01*
X008179Y002607D01*
X008196Y002618D01*
X008211Y002631D01*
X008223Y002647D01*
X008232Y002665D01*
X008237Y002684D01*
X008239Y002704D01*
D12*
X008131Y002946D02*
X008131Y002946D01*
X008131Y002710D01*
X008131Y002710D01*
X008131Y002946D01*
X008131Y001450D02*
X008131Y001450D01*
X008131Y001214D01*
X008131Y001214D01*
X008131Y001450D01*
X011532Y001450D02*
X011532Y001450D01*
X011532Y001214D01*
X011532Y001214D01*
X011532Y001450D01*
X011532Y002946D02*
X011532Y002946D01*
X011532Y002710D01*
X011532Y002710D01*
X011532Y002946D01*
D13*
X012431Y001492D03*
X011631Y000592D03*
X010331Y000542D03*
X009331Y000542D03*
X008031Y000592D03*
X007231Y001492D03*
D14*
X007831Y002842D02*
X011831Y002842D01*
D15*
X011532Y001332D02*
X011532Y000641D01*
X011631Y000592D01*
X008131Y000641D02*
X008031Y000592D01*
X008131Y000641D02*
X008131Y001332D01*
D16*
X008081Y002779D02*
X008131Y002828D01*
D17*
X008331Y002828D01*
X008131Y002627D01*
X008131Y001332D01*
X009231Y002092D02*
X010430Y002092D01*
X011831Y002092D01*
X012431Y001492D01*
D18*
X010430Y002092D03*
X009231Y002092D03*
M02*
