G75*
G70*
%OFA0B0*%
%FSLAX24Y24*%
%IPPOS*%
%LPD*%
%AMOC8*
5,1,8,0,0,1.08239X$1,22.5*
%
%ADD10C,0.0050*%
%ADD11C,0.0100*%
%ADD12C,0.0004*%
%ADD13C,0.0433*%
D10*
X006846Y001382D02*
X006846Y001602D01*
X006891Y001702D02*
X006891Y001282D01*
X006936Y001232D02*
X006936Y001752D01*
X006981Y001802D02*
X006981Y001182D01*
X007026Y001157D02*
X007026Y001827D01*
X007071Y001852D02*
X007071Y001132D01*
X007116Y001132D02*
X007116Y001852D01*
X007161Y001877D02*
X007161Y001107D01*
X007206Y001107D02*
X007206Y001877D01*
X007251Y001877D02*
X007251Y001107D01*
X007296Y001107D02*
X007296Y001877D01*
X007341Y001877D02*
X007341Y001107D01*
X007386Y001132D02*
X007386Y001852D01*
X007431Y001852D02*
X007431Y001132D01*
X007231Y000892D02*
X007233Y000858D01*
X007239Y000825D01*
X007248Y000793D01*
X007261Y000762D01*
X007277Y000732D01*
X007296Y000705D01*
X007319Y000680D01*
X007344Y000657D01*
X007371Y000638D01*
X007401Y000622D01*
X007432Y000609D01*
X007464Y000600D01*
X007497Y000594D01*
X007531Y000592D01*
X012081Y000592D01*
X012016Y000612D02*
X011246Y000612D01*
X011246Y000567D02*
X012016Y000567D01*
X012016Y000522D02*
X011246Y000522D01*
X011271Y000477D02*
X011991Y000477D01*
X011991Y000432D02*
X011271Y000432D01*
X011296Y000387D02*
X011966Y000387D01*
X011941Y000342D02*
X011321Y000342D01*
X011371Y000297D02*
X011891Y000297D01*
X011841Y000252D02*
X011421Y000252D01*
X011521Y000207D02*
X011741Y000207D01*
X011991Y000792D02*
X012008Y000756D01*
X012021Y000719D01*
X012031Y000681D01*
X012037Y000643D01*
X012040Y000603D01*
X012039Y000564D01*
X012034Y000525D01*
X012025Y000487D01*
X012012Y000449D01*
X011997Y000414D01*
X011977Y000379D01*
X011955Y000347D01*
X011929Y000317D01*
X011901Y000290D01*
X011870Y000265D01*
X011837Y000244D01*
X011802Y000226D01*
X011766Y000211D01*
X011728Y000200D01*
X011690Y000192D01*
X011651Y000188D01*
X011611Y000188D01*
X011572Y000192D01*
X011534Y000200D01*
X011496Y000211D01*
X011460Y000226D01*
X011425Y000244D01*
X011392Y000265D01*
X011361Y000290D01*
X011333Y000317D01*
X011307Y000347D01*
X011285Y000379D01*
X011265Y000414D01*
X011250Y000449D01*
X011237Y000487D01*
X011228Y000525D01*
X011223Y000564D01*
X011222Y000603D01*
X011225Y000643D01*
X011231Y000681D01*
X011241Y000719D01*
X011254Y000756D01*
X011271Y000792D01*
X011991Y000792D01*
X011991Y000747D02*
X011271Y000747D01*
X011246Y000702D02*
X012016Y000702D01*
X012016Y000657D02*
X011246Y000657D01*
X010716Y000652D02*
X009946Y000652D01*
X009946Y000607D02*
X010716Y000607D01*
X010716Y000562D02*
X009946Y000562D01*
X009946Y000517D02*
X010716Y000517D01*
X010716Y000472D02*
X009946Y000472D01*
X009971Y000427D02*
X010691Y000427D01*
X010691Y000382D02*
X009971Y000382D01*
X009996Y000337D02*
X010666Y000337D01*
X010641Y000292D02*
X010021Y000292D01*
X010071Y000247D02*
X010591Y000247D01*
X010541Y000202D02*
X010121Y000202D01*
X010221Y000157D02*
X010441Y000157D01*
X010691Y000742D02*
X010708Y000706D01*
X010721Y000669D01*
X010731Y000631D01*
X010737Y000593D01*
X010740Y000553D01*
X010739Y000514D01*
X010734Y000475D01*
X010725Y000437D01*
X010712Y000399D01*
X010697Y000364D01*
X010677Y000329D01*
X010655Y000297D01*
X010629Y000267D01*
X010601Y000240D01*
X010570Y000215D01*
X010537Y000194D01*
X010502Y000176D01*
X010466Y000161D01*
X010428Y000150D01*
X010390Y000142D01*
X010351Y000138D01*
X010311Y000138D01*
X010272Y000142D01*
X010234Y000150D01*
X010196Y000161D01*
X010160Y000176D01*
X010125Y000194D01*
X010092Y000215D01*
X010061Y000240D01*
X010033Y000267D01*
X010007Y000297D01*
X009985Y000329D01*
X009965Y000364D01*
X009950Y000399D01*
X009937Y000437D01*
X009928Y000475D01*
X009923Y000514D01*
X009922Y000553D01*
X009925Y000593D01*
X009931Y000631D01*
X009941Y000669D01*
X009954Y000706D01*
X009971Y000742D01*
X010691Y000742D01*
X010691Y000697D02*
X009971Y000697D01*
X009716Y000652D02*
X008946Y000652D01*
X008946Y000607D02*
X009716Y000607D01*
X009716Y000562D02*
X008946Y000562D01*
X008946Y000517D02*
X009716Y000517D01*
X009716Y000472D02*
X008946Y000472D01*
X008971Y000427D02*
X009691Y000427D01*
X009691Y000382D02*
X008971Y000382D01*
X008996Y000337D02*
X009666Y000337D01*
X009641Y000292D02*
X009021Y000292D01*
X009071Y000247D02*
X009591Y000247D01*
X009541Y000202D02*
X009121Y000202D01*
X009221Y000157D02*
X009441Y000157D01*
X009691Y000742D02*
X009708Y000706D01*
X009721Y000669D01*
X009731Y000631D01*
X009737Y000593D01*
X009740Y000553D01*
X009739Y000514D01*
X009734Y000475D01*
X009725Y000437D01*
X009712Y000399D01*
X009697Y000364D01*
X009677Y000329D01*
X009655Y000297D01*
X009629Y000267D01*
X009601Y000240D01*
X009570Y000215D01*
X009537Y000194D01*
X009502Y000176D01*
X009466Y000161D01*
X009428Y000150D01*
X009390Y000142D01*
X009351Y000138D01*
X009311Y000138D01*
X009272Y000142D01*
X009234Y000150D01*
X009196Y000161D01*
X009160Y000176D01*
X009125Y000194D01*
X009092Y000215D01*
X009061Y000240D01*
X009033Y000267D01*
X009007Y000297D01*
X008985Y000329D01*
X008965Y000364D01*
X008950Y000399D01*
X008937Y000437D01*
X008928Y000475D01*
X008923Y000514D01*
X008922Y000553D01*
X008925Y000593D01*
X008931Y000631D01*
X008941Y000669D01*
X008954Y000706D01*
X008971Y000742D01*
X009691Y000742D01*
X009691Y000697D02*
X008971Y000697D01*
X008416Y000702D02*
X007646Y000702D01*
X007646Y000657D02*
X008416Y000657D01*
X008416Y000612D02*
X007646Y000612D01*
X007646Y000567D02*
X008416Y000567D01*
X008416Y000522D02*
X007646Y000522D01*
X007671Y000477D02*
X008391Y000477D01*
X008391Y000432D02*
X007671Y000432D01*
X007696Y000387D02*
X008366Y000387D01*
X008341Y000342D02*
X007721Y000342D01*
X007771Y000297D02*
X008291Y000297D01*
X008241Y000252D02*
X007821Y000252D01*
X007921Y000207D02*
X008141Y000207D01*
X008391Y000792D02*
X008408Y000756D01*
X008421Y000719D01*
X008431Y000681D01*
X008437Y000643D01*
X008440Y000603D01*
X008439Y000564D01*
X008434Y000525D01*
X008425Y000487D01*
X008412Y000449D01*
X008397Y000414D01*
X008377Y000379D01*
X008355Y000347D01*
X008329Y000317D01*
X008301Y000290D01*
X008270Y000265D01*
X008237Y000244D01*
X008202Y000226D01*
X008166Y000211D01*
X008128Y000200D01*
X008090Y000192D01*
X008051Y000188D01*
X008011Y000188D01*
X007972Y000192D01*
X007934Y000200D01*
X007896Y000211D01*
X007860Y000226D01*
X007825Y000244D01*
X007792Y000265D01*
X007761Y000290D01*
X007733Y000317D01*
X007707Y000347D01*
X007685Y000379D01*
X007665Y000414D01*
X007650Y000449D01*
X007637Y000487D01*
X007628Y000525D01*
X007623Y000564D01*
X007622Y000603D01*
X007625Y000643D01*
X007631Y000681D01*
X007641Y000719D01*
X007654Y000756D01*
X007671Y000792D01*
X008391Y000792D01*
X008391Y000747D02*
X007671Y000747D01*
X007231Y000892D02*
X007231Y003092D01*
X007233Y003118D01*
X007238Y003144D01*
X007246Y003169D01*
X007258Y003192D01*
X007272Y003214D01*
X007290Y003233D01*
X007309Y003251D01*
X007331Y003265D01*
X007354Y003277D01*
X007379Y003285D01*
X007405Y003290D01*
X007431Y003292D01*
X012231Y003292D01*
X012257Y003290D01*
X012283Y003285D01*
X012308Y003277D01*
X012331Y003265D01*
X012353Y003251D01*
X012372Y003233D01*
X012390Y003214D01*
X012404Y003192D01*
X012416Y003169D01*
X012424Y003144D01*
X012429Y003118D01*
X012431Y003092D01*
X012431Y000942D01*
X012411Y001107D02*
X012411Y001877D01*
X012366Y001877D02*
X012366Y001107D01*
X012321Y001107D02*
X012321Y001877D01*
X012276Y001852D02*
X012276Y001132D01*
X012231Y001132D02*
X012231Y001852D01*
X012456Y001877D02*
X012456Y001107D01*
X012501Y001107D02*
X012501Y001877D01*
X012546Y001852D02*
X012546Y001132D01*
X012591Y001132D02*
X012591Y001852D01*
X012636Y001827D02*
X012636Y001157D01*
X012681Y001182D02*
X012681Y001802D01*
X012726Y001752D02*
X012726Y001232D01*
X012771Y001282D02*
X012771Y001702D01*
X012816Y001602D02*
X012816Y001382D01*
X012231Y001132D02*
X012267Y001115D01*
X012304Y001102D01*
X012342Y001092D01*
X012380Y001086D01*
X012420Y001083D01*
X012459Y001084D01*
X012498Y001089D01*
X012536Y001098D01*
X012574Y001111D01*
X012609Y001126D01*
X012644Y001146D01*
X012676Y001168D01*
X012706Y001194D01*
X012733Y001222D01*
X012758Y001253D01*
X012779Y001286D01*
X012797Y001321D01*
X012812Y001357D01*
X012823Y001395D01*
X012831Y001433D01*
X012835Y001472D01*
X012835Y001512D01*
X012831Y001551D01*
X012823Y001589D01*
X012812Y001627D01*
X012797Y001663D01*
X012779Y001698D01*
X012758Y001731D01*
X012733Y001762D01*
X012706Y001790D01*
X012676Y001816D01*
X012644Y001838D01*
X012609Y001858D01*
X012574Y001873D01*
X012536Y001886D01*
X012498Y001895D01*
X012459Y001900D01*
X012420Y001901D01*
X012380Y001898D01*
X012342Y001892D01*
X012304Y001882D01*
X012267Y001869D01*
X012231Y001852D01*
X012431Y000942D02*
X012429Y000905D01*
X012423Y000869D01*
X012414Y000834D01*
X012401Y000800D01*
X012384Y000767D01*
X012364Y000736D01*
X012341Y000708D01*
X012315Y000682D01*
X012287Y000659D01*
X012256Y000639D01*
X012223Y000622D01*
X012189Y000609D01*
X012154Y000600D01*
X012118Y000594D01*
X012081Y000592D01*
X007432Y001132D02*
X007396Y001115D01*
X007359Y001102D01*
X007321Y001092D01*
X007283Y001086D01*
X007243Y001083D01*
X007204Y001084D01*
X007165Y001089D01*
X007127Y001098D01*
X007089Y001111D01*
X007054Y001126D01*
X007019Y001146D01*
X006987Y001168D01*
X006957Y001194D01*
X006930Y001222D01*
X006905Y001253D01*
X006884Y001286D01*
X006866Y001321D01*
X006851Y001357D01*
X006840Y001395D01*
X006832Y001433D01*
X006828Y001472D01*
X006828Y001512D01*
X006832Y001551D01*
X006840Y001589D01*
X006851Y001627D01*
X006866Y001663D01*
X006884Y001698D01*
X006905Y001731D01*
X006930Y001762D01*
X006957Y001790D01*
X006987Y001816D01*
X007019Y001838D01*
X007054Y001858D01*
X007089Y001873D01*
X007127Y001886D01*
X007165Y001895D01*
X007204Y001900D01*
X007243Y001901D01*
X007283Y001898D01*
X007321Y001892D01*
X007359Y001882D01*
X007396Y001869D01*
X007432Y001852D01*
D11*
X007819Y002559D02*
X007849Y002547D01*
X007881Y002542D01*
X008131Y002542D01*
X008131Y003112D01*
X007881Y003112D01*
X007847Y003105D01*
X007816Y003090D01*
X007788Y003069D01*
X007766Y003042D01*
X007750Y003011D01*
X007742Y002977D01*
X007741Y002942D01*
X007741Y002692D01*
X007744Y002660D01*
X007754Y002629D01*
X007770Y002601D01*
X007792Y002577D01*
X007819Y002559D01*
X007814Y002562D02*
X008131Y002562D01*
X008131Y002661D02*
X007744Y002661D01*
X007741Y002759D02*
X008131Y002759D01*
X008131Y002858D02*
X007741Y002858D01*
X007742Y002956D02*
X008131Y002956D01*
X008131Y003055D02*
X007776Y003055D01*
X011531Y003055D02*
X011900Y003055D01*
X011899Y003056D02*
X011914Y003025D01*
X011921Y002992D01*
X011921Y002742D01*
X011924Y002703D01*
X011918Y002665D01*
X011903Y002629D01*
X011881Y002598D01*
X011852Y002572D01*
X011819Y002553D01*
X011781Y002542D01*
X011531Y002542D01*
X011531Y003112D01*
X011781Y003112D01*
X011815Y003110D01*
X011848Y003100D01*
X011876Y003081D01*
X011899Y003056D01*
X011921Y002956D02*
X011531Y002956D01*
X011531Y002858D02*
X011921Y002858D01*
X011921Y002759D02*
X011531Y002759D01*
X011531Y002661D02*
X011916Y002661D01*
X011835Y002562D02*
X011531Y002562D01*
D12*
X011424Y002704D02*
X011426Y002684D01*
X011431Y002665D01*
X011440Y002647D01*
X011452Y002631D01*
X011467Y002618D01*
X011484Y002607D01*
X011502Y002600D01*
X011522Y002596D01*
X011542Y002596D01*
X011562Y002600D01*
X011580Y002607D01*
X011597Y002618D01*
X011612Y002631D01*
X011624Y002647D01*
X011633Y002665D01*
X011638Y002684D01*
X011640Y002704D01*
X011640Y002948D01*
X011638Y002968D01*
X011633Y002987D01*
X011624Y003005D01*
X011612Y003021D01*
X011597Y003034D01*
X011580Y003045D01*
X011562Y003052D01*
X011542Y003056D01*
X011522Y003056D01*
X011502Y003052D01*
X011484Y003045D01*
X011467Y003034D01*
X011452Y003021D01*
X011440Y003005D01*
X011431Y002987D01*
X011426Y002968D01*
X011424Y002948D01*
X011424Y002704D01*
X011424Y001452D02*
X011424Y001208D01*
X011426Y001188D01*
X011431Y001169D01*
X011440Y001151D01*
X011452Y001135D01*
X011467Y001122D01*
X011484Y001111D01*
X011502Y001104D01*
X011522Y001100D01*
X011542Y001100D01*
X011562Y001104D01*
X011580Y001111D01*
X011597Y001122D01*
X011612Y001135D01*
X011624Y001151D01*
X011633Y001169D01*
X011638Y001188D01*
X011640Y001208D01*
X011640Y001452D01*
X011638Y001472D01*
X011633Y001491D01*
X011624Y001509D01*
X011612Y001525D01*
X011597Y001538D01*
X011580Y001549D01*
X011562Y001556D01*
X011542Y001560D01*
X011522Y001560D01*
X011502Y001556D01*
X011484Y001549D01*
X011467Y001538D01*
X011452Y001525D01*
X011440Y001509D01*
X011431Y001491D01*
X011426Y001472D01*
X011424Y001452D01*
X008239Y001452D02*
X008239Y001208D01*
X008237Y001188D01*
X008232Y001169D01*
X008223Y001151D01*
X008211Y001135D01*
X008196Y001122D01*
X008179Y001111D01*
X008161Y001104D01*
X008141Y001100D01*
X008121Y001100D01*
X008101Y001104D01*
X008083Y001111D01*
X008066Y001122D01*
X008051Y001135D01*
X008039Y001151D01*
X008030Y001169D01*
X008025Y001188D01*
X008023Y001208D01*
X008023Y001452D01*
X008025Y001472D01*
X008030Y001491D01*
X008039Y001509D01*
X008051Y001525D01*
X008066Y001538D01*
X008083Y001549D01*
X008101Y001556D01*
X008121Y001560D01*
X008141Y001560D01*
X008161Y001556D01*
X008179Y001549D01*
X008196Y001538D01*
X008211Y001525D01*
X008223Y001509D01*
X008232Y001491D01*
X008237Y001472D01*
X008239Y001452D01*
X008239Y002704D02*
X008239Y002948D01*
X008237Y002968D01*
X008232Y002987D01*
X008223Y003005D01*
X008211Y003021D01*
X008196Y003034D01*
X008179Y003045D01*
X008161Y003052D01*
X008141Y003056D01*
X008121Y003056D01*
X008101Y003052D01*
X008083Y003045D01*
X008066Y003034D01*
X008051Y003021D01*
X008039Y003005D01*
X008030Y002987D01*
X008025Y002968D01*
X008023Y002948D01*
X008023Y002704D01*
X008025Y002684D01*
X008030Y002665D01*
X008039Y002647D01*
X008051Y002631D01*
X008066Y002618D01*
X008083Y002607D01*
X008101Y002600D01*
X008121Y002596D01*
X008141Y002596D01*
X008161Y002600D01*
X008179Y002607D01*
X008196Y002618D01*
X008211Y002631D01*
X008223Y002647D01*
X008232Y002665D01*
X008237Y002684D01*
X008239Y002704D01*
D13*
X008131Y002946D02*
X008131Y002946D01*
X008131Y002710D01*
X008131Y002710D01*
X008131Y002946D01*
X008131Y001450D02*
X008131Y001450D01*
X008131Y001214D01*
X008131Y001214D01*
X008131Y001450D01*
X011532Y001450D02*
X011532Y001450D01*
X011532Y001214D01*
X011532Y001214D01*
X011532Y001450D01*
X011532Y002946D02*
X011532Y002946D01*
X011532Y002710D01*
X011532Y002710D01*
X011532Y002946D01*
M02*
