G75*
G70*
%OFA0B0*%
%FSLAX24Y24*%
%IPPOS*%
%LPD*%
%AMOC8*
5,1,8,0,0,1.08239X$1,22.5*
%
%ADD10C,0.0060*%
%ADD11C,0.0050*%
%ADD12C,0.0004*%
%ADD13C,0.0020*%
%ADD14C,0.0040*%
D10*
X008577Y002882D02*
X008627Y002832D01*
X008777Y002832D01*
X008777Y003132D01*
X008627Y003132D01*
X008577Y003082D01*
X008577Y003032D01*
X008627Y002982D01*
X008777Y002982D01*
X008908Y002932D02*
X008908Y002882D01*
X008958Y002832D01*
X009058Y002832D01*
X009109Y002882D01*
X009058Y002982D02*
X008958Y002982D01*
X008908Y002932D01*
X008908Y003082D02*
X008958Y003132D01*
X009058Y003132D01*
X009109Y003082D01*
X009109Y003032D01*
X009058Y002982D01*
X009240Y002882D02*
X009240Y003132D01*
X009440Y003132D02*
X009440Y002882D01*
X009390Y002832D01*
X009290Y002832D01*
X009240Y002882D01*
X008627Y002982D02*
X008577Y002932D01*
X008577Y002882D01*
X008823Y001892D02*
X008773Y001842D01*
X008773Y001792D01*
X008823Y001742D01*
X008773Y001692D01*
X008773Y001642D01*
X008823Y001592D01*
X008923Y001592D01*
X008973Y001642D01*
X009104Y001642D02*
X009154Y001592D01*
X009254Y001592D01*
X009304Y001642D01*
X009104Y001842D01*
X009104Y001642D01*
X008873Y001742D02*
X008823Y001742D01*
X008823Y001892D02*
X008923Y001892D01*
X008973Y001842D01*
X009104Y001842D02*
X009154Y001892D01*
X009254Y001892D01*
X009304Y001842D01*
X009304Y001642D01*
X009453Y001442D02*
X009453Y001142D01*
X009553Y001142D02*
X009353Y001142D01*
X009553Y001342D02*
X009453Y001442D01*
X009636Y001592D02*
X009436Y001892D01*
X009767Y001842D02*
X009767Y001792D01*
X009817Y001742D01*
X009767Y001692D01*
X009767Y001642D01*
X009817Y001592D01*
X009917Y001592D01*
X009967Y001642D01*
X010099Y001592D02*
X010299Y001592D01*
X010099Y001792D01*
X010099Y001842D01*
X010149Y001892D01*
X010249Y001892D01*
X010299Y001842D01*
X010430Y001842D02*
X010630Y001642D01*
X010580Y001592D01*
X010480Y001592D01*
X010430Y001642D01*
X010430Y001842D01*
X010480Y001892D01*
X010580Y001892D01*
X010630Y001842D01*
X010630Y001642D01*
X010762Y001592D02*
X010962Y001592D01*
X010762Y001792D01*
X010762Y001842D01*
X010812Y001892D01*
X010912Y001892D01*
X010962Y001842D01*
X010382Y001442D02*
X010382Y001242D01*
X010282Y001142D01*
X010181Y001242D01*
X010181Y001442D01*
X010050Y001342D02*
X009950Y001442D01*
X009950Y001142D01*
X010050Y001142D02*
X009850Y001142D01*
X009719Y001142D02*
X009669Y001142D01*
X009669Y001192D01*
X009719Y001192D01*
X009719Y001142D01*
X009817Y001742D02*
X009867Y001742D01*
X009767Y001842D02*
X009817Y001892D01*
X009917Y001892D01*
X009967Y001842D01*
X009953Y002832D02*
X010053Y002832D01*
X010103Y002882D01*
X010053Y002982D02*
X009953Y002982D01*
X009903Y002932D01*
X009903Y002882D01*
X009953Y002832D01*
X010053Y002982D02*
X010103Y003032D01*
X010103Y003082D01*
X010053Y003132D01*
X009953Y003132D01*
X009903Y003082D01*
X010234Y003082D02*
X010234Y002882D01*
X010284Y002832D01*
X010434Y002832D01*
X010434Y003132D01*
X010284Y003132D01*
X010234Y003082D01*
X010566Y003082D02*
X010566Y003032D01*
X010616Y002982D01*
X010566Y002932D01*
X010566Y002882D01*
X010616Y002832D01*
X010716Y002832D01*
X010766Y002882D01*
X010897Y002832D02*
X010897Y003132D01*
X010766Y003082D02*
X010716Y003132D01*
X010616Y003132D01*
X010566Y003082D01*
X010616Y002982D02*
X010666Y002982D01*
X010897Y002832D02*
X011097Y003132D01*
X011097Y002832D01*
D11*
X007231Y003092D02*
X007231Y000892D01*
X007233Y000858D01*
X007239Y000825D01*
X007248Y000793D01*
X007261Y000762D01*
X007277Y000732D01*
X007296Y000705D01*
X007319Y000680D01*
X007344Y000657D01*
X007371Y000638D01*
X007401Y000622D01*
X007432Y000609D01*
X007464Y000600D01*
X007497Y000594D01*
X007531Y000592D01*
X012081Y000592D01*
X012118Y000594D01*
X012154Y000600D01*
X012189Y000609D01*
X012223Y000622D01*
X012256Y000639D01*
X012287Y000659D01*
X012315Y000682D01*
X012341Y000708D01*
X012364Y000736D01*
X012384Y000767D01*
X012401Y000800D01*
X012414Y000834D01*
X012423Y000869D01*
X012429Y000905D01*
X012431Y000942D01*
X012431Y003092D01*
X012429Y003118D01*
X012424Y003144D01*
X012416Y003169D01*
X012404Y003192D01*
X012390Y003214D01*
X012372Y003233D01*
X012353Y003251D01*
X012331Y003265D01*
X012308Y003277D01*
X012283Y003285D01*
X012257Y003290D01*
X012231Y003292D01*
X007431Y003292D01*
X007405Y003290D01*
X007379Y003285D01*
X007354Y003277D01*
X007331Y003265D01*
X007309Y003251D01*
X007290Y003233D01*
X007272Y003214D01*
X007258Y003192D01*
X007246Y003169D01*
X007238Y003144D01*
X007233Y003118D01*
X007231Y003092D01*
X008886Y002472D02*
X008929Y002522D01*
X008951Y002537D01*
X009014Y002537D01*
X009066Y002502D01*
X009089Y002457D01*
X009089Y002397D01*
X009069Y002360D01*
X009046Y002332D01*
X009014Y002317D01*
X008979Y002310D02*
X008914Y002337D01*
X008881Y002400D01*
X008886Y002472D01*
D12*
X008239Y002704D02*
X008239Y002948D01*
X008237Y002968D01*
X008232Y002987D01*
X008223Y003005D01*
X008211Y003021D01*
X008196Y003034D01*
X008179Y003045D01*
X008161Y003052D01*
X008141Y003056D01*
X008121Y003056D01*
X008101Y003052D01*
X008083Y003045D01*
X008066Y003034D01*
X008051Y003021D01*
X008039Y003005D01*
X008030Y002987D01*
X008025Y002968D01*
X008023Y002948D01*
X008023Y002704D01*
X008025Y002684D01*
X008030Y002665D01*
X008039Y002647D01*
X008051Y002631D01*
X008066Y002618D01*
X008083Y002607D01*
X008101Y002600D01*
X008121Y002596D01*
X008141Y002596D01*
X008161Y002600D01*
X008179Y002607D01*
X008196Y002618D01*
X008211Y002631D01*
X008223Y002647D01*
X008232Y002665D01*
X008237Y002684D01*
X008239Y002704D01*
X008239Y001452D02*
X008239Y001208D01*
X008237Y001188D01*
X008232Y001169D01*
X008223Y001151D01*
X008211Y001135D01*
X008196Y001122D01*
X008179Y001111D01*
X008161Y001104D01*
X008141Y001100D01*
X008121Y001100D01*
X008101Y001104D01*
X008083Y001111D01*
X008066Y001122D01*
X008051Y001135D01*
X008039Y001151D01*
X008030Y001169D01*
X008025Y001188D01*
X008023Y001208D01*
X008023Y001452D01*
X008025Y001472D01*
X008030Y001491D01*
X008039Y001509D01*
X008051Y001525D01*
X008066Y001538D01*
X008083Y001549D01*
X008101Y001556D01*
X008121Y001560D01*
X008141Y001560D01*
X008161Y001556D01*
X008179Y001549D01*
X008196Y001538D01*
X008211Y001525D01*
X008223Y001509D01*
X008232Y001491D01*
X008237Y001472D01*
X008239Y001452D01*
X011424Y001452D02*
X011424Y001208D01*
X011426Y001188D01*
X011431Y001169D01*
X011440Y001151D01*
X011452Y001135D01*
X011467Y001122D01*
X011484Y001111D01*
X011502Y001104D01*
X011522Y001100D01*
X011542Y001100D01*
X011562Y001104D01*
X011580Y001111D01*
X011597Y001122D01*
X011612Y001135D01*
X011624Y001151D01*
X011633Y001169D01*
X011638Y001188D01*
X011640Y001208D01*
X011640Y001452D01*
X011638Y001472D01*
X011633Y001491D01*
X011624Y001509D01*
X011612Y001525D01*
X011597Y001538D01*
X011580Y001549D01*
X011562Y001556D01*
X011542Y001560D01*
X011522Y001560D01*
X011502Y001556D01*
X011484Y001549D01*
X011467Y001538D01*
X011452Y001525D01*
X011440Y001509D01*
X011431Y001491D01*
X011426Y001472D01*
X011424Y001452D01*
X011424Y002704D02*
X011424Y002948D01*
X011426Y002968D01*
X011431Y002987D01*
X011440Y003005D01*
X011452Y003021D01*
X011467Y003034D01*
X011484Y003045D01*
X011502Y003052D01*
X011522Y003056D01*
X011542Y003056D01*
X011562Y003052D01*
X011580Y003045D01*
X011597Y003034D01*
X011612Y003021D01*
X011624Y003005D01*
X011633Y002987D01*
X011638Y002968D01*
X011640Y002948D01*
X011640Y002704D01*
X011638Y002684D01*
X011633Y002665D01*
X011624Y002647D01*
X011612Y002631D01*
X011597Y002618D01*
X011580Y002607D01*
X011562Y002600D01*
X011542Y002596D01*
X011522Y002596D01*
X011502Y002600D01*
X011484Y002607D01*
X011467Y002618D01*
X011452Y002631D01*
X011440Y002647D01*
X011431Y002665D01*
X011426Y002684D01*
X011424Y002704D01*
D13*
X011116Y002500D02*
X011126Y002482D01*
X011134Y002450D01*
X011134Y002405D01*
X011129Y002385D01*
X011119Y002360D01*
X011104Y002337D01*
X011081Y002315D01*
X011031Y002295D01*
X010989Y002295D01*
X010941Y002310D01*
X010924Y002315D01*
X010924Y002270D01*
X010939Y002252D01*
X010959Y002235D01*
X010979Y002225D01*
X010999Y002220D01*
X011029Y002220D01*
X011079Y002232D01*
X011089Y002192D01*
X011026Y002175D01*
X010996Y002175D01*
X010961Y002180D01*
X010939Y002192D01*
X010914Y002210D01*
X010894Y002235D01*
X010884Y002260D01*
X010876Y002287D01*
X010876Y002445D01*
X010881Y002465D01*
X010889Y002487D01*
X010904Y002510D01*
X010924Y002532D01*
X010944Y002545D01*
X010971Y002557D01*
X010986Y002560D01*
X011029Y002560D01*
X011061Y002550D01*
X011084Y002537D01*
X011101Y002520D01*
X011116Y002500D01*
X011114Y002475D02*
X011071Y002525D01*
X011019Y002545D01*
X010974Y002540D01*
X010931Y002520D01*
X010896Y002465D01*
X010894Y002455D02*
X010911Y002457D01*
X010909Y002262D01*
X010956Y002212D01*
X011014Y002205D01*
X011069Y002217D01*
X011081Y002207D02*
X011014Y002190D01*
X010954Y002197D01*
X010911Y002237D01*
X010894Y002275D01*
X010894Y002455D01*
X010911Y002465D02*
X010936Y002512D01*
X010976Y002525D01*
X011029Y002530D01*
X011064Y002515D01*
X011094Y002480D01*
X011101Y002412D01*
X011086Y002360D01*
X011046Y002325D01*
X010989Y002317D01*
X010924Y002347D01*
X010924Y002325D01*
X011004Y002302D01*
X011071Y002322D01*
X011104Y002367D01*
X011116Y002400D01*
X011114Y002475D01*
X011089Y002462D02*
X011086Y002397D01*
X011069Y002365D01*
X011051Y002345D01*
X011029Y002335D01*
X010986Y002335D01*
X010979Y002337D01*
X010946Y002350D01*
X010919Y002367D01*
X010924Y002365D02*
X010924Y002457D01*
X010929Y002472D01*
X010941Y002492D01*
X010961Y002507D01*
X010981Y002517D01*
X011019Y002517D01*
X011036Y002515D01*
X011054Y002502D01*
X011066Y002490D01*
X011079Y002475D01*
X011086Y002460D01*
X010801Y002555D02*
X010801Y002300D01*
X010756Y002300D01*
X010756Y002555D01*
X010801Y002555D01*
X010789Y002542D02*
X010784Y002312D01*
X010769Y002312D01*
X010774Y002542D01*
X010771Y002602D02*
X010761Y002607D01*
X010756Y002615D01*
X010751Y002625D01*
X010751Y002632D01*
X010754Y002642D01*
X010764Y002652D01*
X010771Y002657D01*
X010786Y002657D01*
X010796Y002650D01*
X010804Y002637D01*
X010804Y002622D01*
X010799Y002612D01*
X010789Y002602D01*
X010779Y002602D01*
X010769Y002632D01*
X010779Y002642D01*
X010789Y002635D01*
X010786Y002617D01*
X010779Y002605D02*
X010771Y002602D01*
X010674Y002672D02*
X010629Y002672D01*
X010629Y002300D01*
X010674Y002300D01*
X010674Y002302D02*
X010674Y002672D01*
X010661Y002660D02*
X010641Y002660D01*
X010641Y002310D01*
X010659Y002310D02*
X010661Y002660D01*
X010554Y002625D02*
X010554Y002377D01*
X010541Y002342D01*
X010526Y002320D01*
X010504Y002307D01*
X010481Y002302D01*
X010461Y002297D01*
X010444Y002310D01*
X010481Y002317D01*
X010514Y002327D01*
X010529Y002355D01*
X010541Y002385D01*
X010541Y002610D01*
X010521Y002612D01*
X010524Y002382D01*
X010501Y002337D01*
X010441Y002320D01*
X010431Y002337D02*
X010466Y002337D01*
X010481Y002345D01*
X010491Y002352D01*
X010499Y002360D01*
X010506Y002375D01*
X010506Y002512D01*
X010499Y002515D01*
X010429Y002515D01*
X010429Y002557D01*
X010509Y002557D01*
X010506Y002565D01*
X010506Y002625D01*
X010554Y002625D01*
X010511Y002542D02*
X010441Y002542D01*
X010441Y002525D01*
X010514Y002527D01*
X010369Y002482D02*
X010344Y002520D01*
X010319Y002540D01*
X010291Y002555D01*
X010274Y002560D01*
X010226Y002560D01*
X010199Y002552D01*
X010176Y002540D01*
X010159Y002525D01*
X010141Y002505D01*
X010126Y002482D01*
X010296Y002387D01*
X010294Y002387D02*
X010314Y002417D01*
X010199Y002485D01*
X010201Y002497D01*
X010209Y002510D01*
X010221Y002517D01*
X010274Y002517D01*
X010296Y002505D01*
X010316Y002485D01*
X010324Y002472D01*
X010331Y002462D01*
X010334Y002432D01*
X010334Y002410D01*
X010324Y002385D01*
X010311Y002360D01*
X010291Y002347D01*
X010276Y002340D01*
X010269Y002335D01*
X010229Y002335D01*
X010214Y002342D01*
X010196Y002355D01*
X010181Y002370D01*
X010171Y002387D01*
X010164Y002417D01*
X010119Y002410D01*
X010129Y002377D01*
X010144Y002345D01*
X010161Y002325D01*
X010179Y002312D01*
X010199Y002302D01*
X010221Y002295D01*
X010271Y002295D01*
X010291Y002300D01*
X010316Y002310D01*
X010336Y002325D01*
X010354Y002345D01*
X010371Y002375D01*
X010379Y002400D01*
X010381Y002425D01*
X010376Y002455D01*
X010369Y002482D01*
X010356Y002467D02*
X010364Y002400D01*
X010334Y002337D01*
X010274Y002307D01*
X010219Y002307D01*
X010161Y002345D01*
X010136Y002402D01*
X010154Y002400D02*
X010169Y002357D01*
X010216Y002327D01*
X010231Y002320D01*
X010274Y002320D01*
X010321Y002345D01*
X010349Y002407D01*
X010344Y002467D01*
X010324Y002502D01*
X010281Y002527D01*
X010229Y002530D01*
X010201Y002517D01*
X010189Y002500D01*
X010184Y002482D01*
X010296Y002417D01*
X010294Y002402D01*
X010146Y002487D01*
X010181Y002527D01*
X010169Y002487D01*
X010181Y002510D02*
X010221Y002547D01*
X010239Y002547D01*
X010276Y002547D02*
X010339Y002510D01*
X010356Y002467D01*
X010276Y002545D02*
X010189Y002532D01*
X010064Y002512D02*
X010066Y002495D01*
X010066Y002480D01*
X010059Y002462D01*
X010046Y002445D01*
X010009Y002420D01*
X009931Y002387D01*
X009921Y002375D01*
X009916Y002362D01*
X009926Y002350D01*
X009939Y002340D01*
X010066Y002340D01*
X010066Y002300D01*
X009951Y002300D01*
X009911Y002307D01*
X009891Y002320D01*
X009876Y002342D01*
X009876Y002385D01*
X009884Y002405D01*
X009901Y002420D01*
X010009Y002467D01*
X010019Y002477D01*
X010021Y002482D01*
X010021Y002500D01*
X010016Y002510D01*
X010014Y002512D01*
X010006Y002515D01*
X009889Y002515D01*
X009889Y002555D01*
X010001Y002555D01*
X010024Y002550D01*
X010039Y002542D01*
X010054Y002527D01*
X010064Y002512D01*
X010044Y002522D02*
X010049Y002475D01*
X010024Y002445D01*
X009919Y002397D01*
X009909Y002367D01*
X009904Y002347D01*
X009929Y002330D01*
X009939Y002325D02*
X010054Y002325D01*
X010059Y002322D01*
X010031Y002320D01*
X010056Y002312D02*
X009929Y002315D01*
X009939Y002325D01*
X009921Y002315D02*
X009891Y002345D01*
X009899Y002395D01*
X009921Y002417D01*
X010026Y002462D01*
X010039Y002482D01*
X010029Y002512D01*
X010014Y002527D01*
X009904Y002530D01*
X009901Y002540D01*
X010014Y002537D01*
X010044Y002522D01*
X010064Y002302D02*
X010066Y002300D01*
X009819Y002402D02*
X009806Y002365D01*
X009786Y002335D01*
X009769Y002317D01*
X009746Y002307D01*
X009716Y002295D01*
X009674Y002295D01*
X009626Y002310D01*
X009621Y002312D01*
X009614Y002312D01*
X009604Y002300D01*
X009596Y002300D01*
X009591Y002300D02*
X009561Y002300D01*
X009561Y002440D01*
X009566Y002465D01*
X009574Y002485D01*
X009589Y002512D01*
X009609Y002532D01*
X009639Y002550D01*
X009659Y002557D01*
X009674Y002560D01*
X009714Y002560D01*
X009739Y002552D01*
X009761Y002542D01*
X009784Y002522D01*
X009801Y002500D01*
X009811Y002477D01*
X009819Y002452D01*
X009819Y002402D01*
X009801Y002392D02*
X009761Y002330D01*
X009714Y002307D01*
X009671Y002312D01*
X009629Y002330D01*
X009609Y002322D01*
X009594Y002312D01*
X009594Y002322D01*
X009624Y002340D01*
X009589Y002330D01*
X009599Y002352D01*
X009589Y002352D01*
X009596Y002452D01*
X009624Y002510D01*
X009681Y002530D01*
X009739Y002522D01*
X009779Y002485D01*
X009789Y002410D01*
X009774Y002367D01*
X009744Y002332D01*
X009671Y002317D01*
X009666Y002332D02*
X009646Y002340D01*
X009629Y002352D01*
X009626Y002355D01*
X009619Y002347D01*
X009611Y002352D02*
X009609Y002355D01*
X009606Y002360D01*
X009609Y002455D01*
X009614Y002467D01*
X009624Y002487D01*
X009641Y002505D01*
X009661Y002515D01*
X009669Y002517D01*
X009711Y002517D01*
X009734Y002510D01*
X009751Y002497D01*
X009764Y002480D01*
X009774Y002462D01*
X009774Y002392D01*
X009764Y002377D01*
X009746Y002352D01*
X009726Y002337D01*
X009709Y002332D01*
X009666Y002332D01*
X009574Y002307D02*
X009579Y002445D01*
X009601Y002505D01*
X009631Y002527D01*
X009676Y002542D01*
X009721Y002542D01*
X009761Y002525D01*
X009796Y002477D01*
X009804Y002445D01*
X009801Y002392D01*
X009474Y002335D02*
X009474Y002315D01*
X009471Y002307D01*
X009461Y002297D01*
X009451Y002295D01*
X009434Y002312D01*
X009431Y002330D01*
X009444Y002340D01*
X009456Y002330D01*
X009454Y002315D01*
X009446Y002322D01*
X009446Y002295D02*
X009436Y002295D01*
X009429Y002297D01*
X009419Y002305D01*
X009416Y002312D01*
X009416Y002330D01*
X009421Y002340D01*
X009434Y002352D01*
X009456Y002352D01*
X009466Y002345D01*
X009474Y002335D01*
X009334Y002385D02*
X009321Y002360D01*
X009309Y002345D01*
X009294Y002330D01*
X009274Y002315D01*
X009256Y002307D01*
X009236Y002302D01*
X009209Y002297D01*
X009166Y002297D01*
X009166Y002340D01*
X009216Y002340D01*
X009234Y002345D01*
X009256Y002355D01*
X009274Y002372D01*
X009286Y002390D01*
X009291Y002402D01*
X009294Y002407D01*
X009294Y002447D01*
X009284Y002462D01*
X009271Y002485D01*
X009249Y002500D01*
X009234Y002507D01*
X009209Y002512D01*
X009166Y002512D01*
X009166Y002555D01*
X009216Y002555D01*
X009239Y002552D01*
X009261Y002545D01*
X009286Y002530D01*
X009304Y002512D01*
X009316Y002497D01*
X009326Y002477D01*
X009334Y002457D01*
X009339Y002440D01*
X009339Y002410D01*
X009334Y002385D01*
X009321Y002395D02*
X009321Y002462D01*
X009284Y002512D01*
X009236Y002540D01*
X009181Y002542D01*
X009181Y002527D01*
X009236Y002525D01*
X009281Y002492D01*
X009306Y002457D01*
X009304Y002392D01*
X009274Y002350D01*
X009236Y002330D01*
X009181Y002325D01*
X009176Y002310D02*
X009244Y002315D01*
X009294Y002347D01*
X009321Y002395D01*
X009211Y002297D02*
X009209Y002297D01*
X009101Y002365D02*
X009109Y002385D01*
X009114Y002402D01*
X009114Y002450D01*
X009104Y002487D01*
X009089Y002510D01*
X009066Y002532D01*
X009039Y002550D01*
X009011Y002560D01*
X008969Y002560D01*
X008941Y002555D01*
X008914Y002540D01*
X008876Y002502D01*
X008866Y002482D01*
X008859Y002455D01*
X008859Y002397D01*
X008864Y002372D01*
X008876Y002355D01*
X008894Y002330D01*
X008916Y002310D01*
X008941Y002300D01*
X008964Y002295D01*
X008996Y002295D01*
X008999Y002295D02*
X009009Y002295D01*
X009034Y002302D01*
X009054Y002312D01*
X009074Y002330D01*
X009091Y002347D01*
X009101Y002365D01*
X009059Y002380D02*
X009046Y002360D01*
X009029Y002345D01*
X009011Y002335D01*
X008971Y002335D01*
X008979Y002332D02*
X008959Y002337D01*
X008939Y002347D01*
X008926Y002360D01*
X008914Y002377D01*
X008909Y002390D01*
X008906Y002400D01*
X008906Y002452D01*
X008914Y002472D01*
X008926Y002492D01*
X008941Y002507D01*
X008956Y002515D01*
X008964Y002517D01*
X009004Y002517D01*
X009021Y002512D01*
X009041Y002500D01*
X009051Y002487D01*
X009064Y002467D01*
X009069Y002452D01*
X009069Y002402D01*
X009059Y002380D01*
X008794Y002297D02*
X008751Y002297D01*
X008751Y002472D01*
X008744Y002487D01*
X008736Y002500D01*
X008726Y002510D01*
X008709Y002517D01*
X008679Y002517D01*
X008659Y002507D01*
X008646Y002497D01*
X008634Y002480D01*
X008634Y002300D01*
X008589Y002300D01*
X008589Y002480D01*
X008586Y002485D01*
X008576Y002500D01*
X008559Y002515D01*
X008519Y002515D01*
X008509Y002510D01*
X008494Y002505D01*
X008484Y002490D01*
X008476Y002472D01*
X008476Y002300D01*
X008431Y002300D01*
X008431Y002455D01*
X008434Y002477D01*
X008439Y002492D01*
X008449Y002515D01*
X008461Y002530D01*
X008479Y002545D01*
X008499Y002555D01*
X008516Y002560D01*
X008551Y002560D01*
X008564Y002557D01*
X008581Y002547D01*
X008596Y002535D01*
X008609Y002527D01*
X008619Y002527D01*
X008629Y002537D01*
X008654Y002552D01*
X008674Y002560D01*
X008714Y002560D01*
X008746Y002547D01*
X008769Y002530D01*
X008784Y002505D01*
X008794Y002470D01*
X008794Y002297D01*
X010431Y002297D02*
X010431Y002337D01*
X010431Y002297D02*
X010456Y002297D01*
D14*
X008771Y002320D02*
X008774Y002470D01*
X008739Y002525D01*
X008701Y002540D01*
X008649Y002525D01*
X008616Y002500D01*
X008611Y002312D01*
X008451Y002320D02*
X008454Y002475D01*
X008481Y002520D01*
X008531Y002535D01*
X008569Y002532D01*
X008601Y002505D01*
M02*
