G75*
G70*
%OFA0B0*%
%FSLAX24Y24*%
%IPPOS*%
%LPD*%
%AMOC8*
5,1,8,0,0,1.08239X$1,22.5*
%
%ADD10C,0.0060*%
%ADD11C,0.0050*%
%ADD12C,0.0020*%
%ADD13C,0.0040*%
D10*
X008577Y002869D02*
X008627Y002819D01*
X008777Y002819D01*
X008777Y003120D01*
X008627Y003120D01*
X008577Y003070D01*
X008577Y003019D01*
X008627Y002969D01*
X008777Y002969D01*
X008908Y002919D02*
X008908Y002869D01*
X008958Y002819D01*
X009058Y002819D01*
X009109Y002869D01*
X009058Y002969D02*
X008958Y002969D01*
X008908Y002919D01*
X008908Y003070D02*
X008958Y003120D01*
X009058Y003120D01*
X009109Y003070D01*
X009109Y003019D01*
X009058Y002969D01*
X009240Y002869D02*
X009240Y003120D01*
X009440Y003120D02*
X009440Y002869D01*
X009390Y002819D01*
X009290Y002819D01*
X009240Y002869D01*
X008627Y002969D02*
X008577Y002919D01*
X008577Y002869D01*
X008823Y001880D02*
X008773Y001830D01*
X008773Y001780D01*
X008823Y001730D01*
X008923Y001730D01*
X008973Y001780D01*
X008973Y001830D01*
X008923Y001880D01*
X008823Y001880D01*
X008823Y001730D02*
X008773Y001679D01*
X008773Y001629D01*
X008823Y001579D01*
X008923Y001579D01*
X008973Y001629D01*
X008973Y001679D01*
X008923Y001730D01*
X009104Y001830D02*
X009104Y001629D01*
X009154Y001579D01*
X009254Y001579D01*
X009304Y001629D01*
X009104Y001830D01*
X009154Y001880D01*
X009254Y001880D01*
X009304Y001830D01*
X009304Y001629D01*
X009403Y001430D02*
X009503Y001430D01*
X009553Y001380D01*
X009403Y001430D02*
X009353Y001380D01*
X009353Y001330D01*
X009553Y001129D01*
X009353Y001129D01*
X009669Y001129D02*
X009719Y001129D01*
X009719Y001179D01*
X009669Y001179D01*
X009669Y001129D01*
X009850Y001129D02*
X010050Y001129D01*
X009950Y001129D02*
X009950Y001430D01*
X010050Y001330D01*
X010181Y001430D02*
X010181Y001229D01*
X010282Y001129D01*
X010382Y001229D01*
X010382Y001430D01*
X010299Y001579D02*
X010099Y001780D01*
X010099Y001830D01*
X010149Y001880D01*
X010249Y001880D01*
X010299Y001830D01*
X010430Y001830D02*
X010630Y001629D01*
X010580Y001579D01*
X010480Y001579D01*
X010430Y001629D01*
X010430Y001830D01*
X010480Y001880D01*
X010580Y001880D01*
X010630Y001830D01*
X010630Y001629D01*
X010762Y001579D02*
X010962Y001579D01*
X010762Y001780D01*
X010762Y001830D01*
X010812Y001880D01*
X010912Y001880D01*
X010962Y001830D01*
X010299Y001579D02*
X010099Y001579D01*
X009967Y001629D02*
X009917Y001579D01*
X009817Y001579D01*
X009767Y001629D01*
X009767Y001679D01*
X009817Y001730D01*
X009867Y001730D01*
X009817Y001730D02*
X009767Y001780D01*
X009767Y001830D01*
X009817Y001880D01*
X009917Y001880D01*
X009967Y001830D01*
X009636Y001579D02*
X009436Y001880D01*
X009953Y002819D02*
X010053Y002819D01*
X010103Y002869D01*
X010053Y002969D02*
X009953Y002969D01*
X009903Y002919D01*
X009903Y002869D01*
X009953Y002819D01*
X010053Y002969D02*
X010103Y003019D01*
X010103Y003070D01*
X010053Y003120D01*
X009953Y003120D01*
X009903Y003070D01*
X010234Y003070D02*
X010234Y002869D01*
X010284Y002819D01*
X010434Y002819D01*
X010434Y003120D01*
X010284Y003120D01*
X010234Y003070D01*
X010566Y003070D02*
X010566Y003019D01*
X010616Y002969D01*
X010566Y002919D01*
X010566Y002869D01*
X010616Y002819D01*
X010716Y002819D01*
X010766Y002869D01*
X010897Y002819D02*
X010897Y003120D01*
X010766Y003070D02*
X010716Y003120D01*
X010616Y003120D01*
X010566Y003070D01*
X010616Y002969D02*
X010666Y002969D01*
X010897Y002819D02*
X011097Y003120D01*
X011097Y002819D01*
D11*
X007231Y003079D02*
X007231Y000879D01*
X007233Y000845D01*
X007239Y000812D01*
X007248Y000780D01*
X007261Y000749D01*
X007277Y000719D01*
X007296Y000692D01*
X007319Y000667D01*
X007344Y000644D01*
X007371Y000625D01*
X007401Y000609D01*
X007432Y000596D01*
X007464Y000587D01*
X007497Y000581D01*
X007531Y000579D01*
X012081Y000579D01*
X012118Y000581D01*
X012154Y000587D01*
X012189Y000596D01*
X012223Y000609D01*
X012256Y000626D01*
X012287Y000646D01*
X012315Y000669D01*
X012341Y000695D01*
X012364Y000723D01*
X012384Y000754D01*
X012401Y000787D01*
X012414Y000821D01*
X012423Y000856D01*
X012429Y000892D01*
X012431Y000929D01*
X012431Y003079D01*
X012429Y003105D01*
X012424Y003131D01*
X012416Y003156D01*
X012404Y003179D01*
X012390Y003201D01*
X012372Y003220D01*
X012353Y003238D01*
X012331Y003252D01*
X012308Y003264D01*
X012283Y003272D01*
X012257Y003277D01*
X012231Y003279D01*
X007431Y003279D01*
X007405Y003277D01*
X007379Y003272D01*
X007354Y003264D01*
X007331Y003252D01*
X007309Y003238D01*
X007290Y003220D01*
X007272Y003201D01*
X007258Y003179D01*
X007246Y003156D01*
X007238Y003131D01*
X007233Y003105D01*
X007231Y003079D01*
X008886Y002459D02*
X008929Y002509D01*
X008951Y002524D01*
X009014Y002524D01*
X009066Y002489D01*
X009089Y002444D01*
X009089Y002384D01*
X009069Y002347D01*
X009046Y002319D01*
X009014Y002304D01*
X008979Y002297D02*
X008914Y002324D01*
X008881Y002387D01*
X008886Y002459D01*
D12*
X008866Y002469D02*
X008876Y002489D01*
X008914Y002527D01*
X008941Y002542D01*
X008969Y002547D01*
X009011Y002547D01*
X009039Y002537D01*
X009066Y002519D01*
X009089Y002497D01*
X009104Y002474D01*
X009114Y002437D01*
X009114Y002389D01*
X009109Y002372D01*
X009101Y002352D01*
X009091Y002334D01*
X009074Y002317D01*
X009054Y002299D01*
X009034Y002289D01*
X009009Y002282D01*
X008999Y002282D01*
X008996Y002282D02*
X008964Y002282D01*
X008941Y002287D01*
X008916Y002297D01*
X008894Y002317D01*
X008876Y002342D01*
X008864Y002359D01*
X008859Y002384D01*
X008859Y002442D01*
X008866Y002469D01*
X008914Y002459D02*
X008926Y002479D01*
X008941Y002494D01*
X008956Y002502D01*
X008964Y002504D01*
X009004Y002504D01*
X009021Y002499D01*
X009041Y002487D01*
X009051Y002474D01*
X009064Y002454D01*
X009069Y002439D01*
X009069Y002389D01*
X009059Y002367D01*
X009046Y002347D01*
X009029Y002332D01*
X009011Y002322D01*
X008971Y002322D01*
X008979Y002319D02*
X008959Y002324D01*
X008939Y002334D01*
X008926Y002347D01*
X008914Y002364D01*
X008909Y002377D01*
X008906Y002387D01*
X008906Y002439D01*
X008914Y002459D01*
X008794Y002457D02*
X008794Y002284D01*
X008751Y002284D01*
X008751Y002459D01*
X008744Y002474D01*
X008736Y002487D01*
X008726Y002497D01*
X008709Y002504D01*
X008679Y002504D01*
X008659Y002494D01*
X008646Y002484D01*
X008634Y002467D01*
X008634Y002287D01*
X008589Y002287D01*
X008589Y002467D01*
X008586Y002472D01*
X008576Y002487D01*
X008559Y002502D01*
X008519Y002502D01*
X008509Y002497D01*
X008494Y002492D01*
X008484Y002477D01*
X008476Y002459D01*
X008476Y002287D01*
X008431Y002287D01*
X008431Y002442D01*
X008434Y002464D01*
X008439Y002479D01*
X008449Y002502D01*
X008461Y002517D01*
X008479Y002532D01*
X008499Y002542D01*
X008516Y002547D01*
X008551Y002547D01*
X008564Y002544D01*
X008581Y002534D01*
X008596Y002522D01*
X008609Y002514D01*
X008619Y002514D01*
X008629Y002524D01*
X008654Y002539D01*
X008674Y002547D01*
X008714Y002547D01*
X008746Y002534D01*
X008769Y002517D01*
X008784Y002492D01*
X008794Y002457D01*
X009166Y002499D02*
X009166Y002542D01*
X009216Y002542D01*
X009239Y002539D01*
X009261Y002532D01*
X009286Y002517D01*
X009304Y002499D01*
X009316Y002484D01*
X009326Y002464D01*
X009334Y002444D01*
X009339Y002427D01*
X009339Y002397D01*
X009334Y002372D01*
X009321Y002347D01*
X009309Y002332D01*
X009294Y002317D01*
X009274Y002302D01*
X009256Y002294D01*
X009236Y002289D01*
X009209Y002284D01*
X009166Y002284D01*
X009166Y002327D01*
X009216Y002327D01*
X009234Y002332D01*
X009256Y002342D01*
X009274Y002359D01*
X009286Y002377D01*
X009291Y002389D01*
X009294Y002394D01*
X009294Y002434D01*
X009284Y002449D01*
X009271Y002472D01*
X009249Y002487D01*
X009234Y002494D01*
X009209Y002499D01*
X009166Y002499D01*
X009181Y002514D02*
X009236Y002512D01*
X009281Y002479D01*
X009306Y002444D01*
X009304Y002379D01*
X009274Y002337D01*
X009236Y002317D01*
X009181Y002312D01*
X009176Y002297D02*
X009244Y002302D01*
X009294Y002334D01*
X009321Y002382D01*
X009321Y002449D01*
X009284Y002499D01*
X009236Y002527D01*
X009181Y002529D01*
X009181Y002514D01*
X009211Y002284D02*
X009209Y002284D01*
X009416Y002299D02*
X009416Y002317D01*
X009421Y002327D01*
X009434Y002339D01*
X009456Y002339D01*
X009466Y002332D01*
X009474Y002322D01*
X009474Y002302D01*
X009471Y002294D01*
X009461Y002284D01*
X009451Y002282D01*
X009434Y002299D01*
X009431Y002317D01*
X009444Y002327D01*
X009456Y002317D01*
X009454Y002302D01*
X009446Y002309D01*
X009446Y002282D02*
X009436Y002282D01*
X009429Y002284D01*
X009419Y002292D01*
X009416Y002299D01*
X009561Y002287D02*
X009561Y002427D01*
X009566Y002452D01*
X009574Y002472D01*
X009589Y002499D01*
X009609Y002519D01*
X009639Y002537D01*
X009659Y002544D01*
X009674Y002547D01*
X009714Y002547D01*
X009739Y002539D01*
X009761Y002529D01*
X009784Y002509D01*
X009801Y002487D01*
X009811Y002464D01*
X009819Y002439D01*
X009819Y002389D01*
X009806Y002352D01*
X009786Y002322D01*
X009769Y002304D01*
X009746Y002294D01*
X009716Y002282D01*
X009674Y002282D01*
X009626Y002297D01*
X009621Y002299D01*
X009614Y002299D01*
X009604Y002287D01*
X009596Y002287D01*
X009591Y002287D02*
X009561Y002287D01*
X009574Y002294D02*
X009579Y002432D01*
X009601Y002492D01*
X009631Y002514D01*
X009676Y002529D01*
X009721Y002529D01*
X009761Y002512D01*
X009796Y002464D01*
X009804Y002432D01*
X009801Y002379D01*
X009761Y002317D01*
X009714Y002294D01*
X009671Y002299D01*
X009629Y002317D01*
X009609Y002309D01*
X009594Y002299D01*
X009594Y002309D01*
X009624Y002327D01*
X009589Y002317D01*
X009599Y002339D01*
X009589Y002339D01*
X009596Y002439D01*
X009624Y002497D01*
X009681Y002517D01*
X009739Y002509D01*
X009779Y002472D01*
X009789Y002397D01*
X009774Y002354D01*
X009744Y002319D01*
X009671Y002304D01*
X009666Y002319D02*
X009646Y002327D01*
X009629Y002339D01*
X009626Y002342D01*
X009619Y002334D01*
X009611Y002339D02*
X009609Y002342D01*
X009606Y002347D01*
X009609Y002442D01*
X009614Y002454D01*
X009624Y002474D01*
X009641Y002492D01*
X009661Y002502D01*
X009669Y002504D01*
X009711Y002504D01*
X009734Y002497D01*
X009751Y002484D01*
X009764Y002467D01*
X009774Y002449D01*
X009774Y002379D01*
X009764Y002364D01*
X009746Y002339D01*
X009726Y002324D01*
X009709Y002319D01*
X009666Y002319D01*
X009876Y002329D02*
X009876Y002372D01*
X009884Y002392D01*
X009901Y002407D01*
X010009Y002454D01*
X010019Y002464D01*
X010021Y002469D01*
X010021Y002487D01*
X010016Y002497D01*
X010014Y002499D01*
X010006Y002502D01*
X009889Y002502D01*
X009889Y002542D01*
X010001Y002542D01*
X010024Y002537D01*
X010039Y002529D01*
X010054Y002514D01*
X010064Y002499D01*
X010066Y002482D01*
X010066Y002467D01*
X010059Y002449D01*
X010046Y002432D01*
X010009Y002407D01*
X009931Y002374D01*
X009921Y002362D01*
X009916Y002349D01*
X009926Y002337D01*
X009939Y002327D01*
X010066Y002327D01*
X010066Y002287D01*
X009951Y002287D01*
X009911Y002294D01*
X009891Y002307D01*
X009876Y002329D01*
X009891Y002332D02*
X009899Y002382D01*
X009921Y002404D01*
X010026Y002449D01*
X010039Y002469D01*
X010029Y002499D01*
X010014Y002514D01*
X009904Y002517D01*
X009901Y002527D01*
X010014Y002524D01*
X010044Y002509D01*
X010049Y002462D01*
X010024Y002432D01*
X009919Y002384D01*
X009909Y002354D01*
X009904Y002334D01*
X009929Y002317D01*
X009939Y002312D02*
X010054Y002312D01*
X010059Y002309D01*
X010031Y002307D01*
X010056Y002299D02*
X009929Y002302D01*
X009939Y002312D01*
X009921Y002302D02*
X009891Y002332D01*
X010064Y002289D02*
X010066Y002287D01*
X010144Y002332D02*
X010129Y002364D01*
X010119Y002397D01*
X010164Y002404D01*
X010171Y002374D01*
X010181Y002357D01*
X010196Y002342D01*
X010214Y002329D01*
X010229Y002322D01*
X010269Y002322D01*
X010276Y002327D01*
X010291Y002334D01*
X010311Y002347D01*
X010324Y002372D01*
X010334Y002397D01*
X010334Y002419D01*
X010331Y002449D01*
X010324Y002459D01*
X010316Y002472D01*
X010296Y002492D01*
X010274Y002504D01*
X010221Y002504D01*
X010209Y002497D01*
X010201Y002484D01*
X010199Y002472D01*
X010314Y002404D01*
X010294Y002374D01*
X010296Y002374D02*
X010126Y002469D01*
X010141Y002492D01*
X010159Y002512D01*
X010176Y002527D01*
X010199Y002539D01*
X010226Y002547D01*
X010274Y002547D01*
X010291Y002542D01*
X010319Y002527D01*
X010344Y002507D01*
X010369Y002469D01*
X010376Y002442D01*
X010381Y002412D01*
X010379Y002387D01*
X010371Y002362D01*
X010354Y002332D01*
X010336Y002312D01*
X010316Y002297D01*
X010291Y002287D01*
X010271Y002282D01*
X010221Y002282D01*
X010199Y002289D01*
X010179Y002299D01*
X010161Y002312D01*
X010144Y002332D01*
X010161Y002332D02*
X010136Y002389D01*
X010154Y002387D02*
X010169Y002344D01*
X010216Y002314D01*
X010231Y002307D01*
X010274Y002307D01*
X010321Y002332D01*
X010349Y002394D01*
X010344Y002454D01*
X010324Y002489D01*
X010281Y002514D01*
X010229Y002517D01*
X010201Y002504D01*
X010189Y002487D01*
X010184Y002469D01*
X010296Y002404D01*
X010294Y002389D01*
X010146Y002474D01*
X010181Y002514D01*
X010169Y002474D01*
X010181Y002497D02*
X010221Y002534D01*
X010239Y002534D01*
X010276Y002534D02*
X010339Y002497D01*
X010356Y002454D01*
X010364Y002387D01*
X010334Y002324D01*
X010274Y002294D01*
X010219Y002294D01*
X010161Y002332D01*
X010189Y002519D02*
X010276Y002532D01*
X010429Y002544D02*
X010509Y002544D01*
X010506Y002552D01*
X010506Y002612D01*
X010554Y002612D01*
X010554Y002364D01*
X010541Y002329D01*
X010526Y002307D01*
X010504Y002294D01*
X010481Y002289D01*
X010461Y002284D01*
X010444Y002297D01*
X010481Y002304D01*
X010514Y002314D01*
X010529Y002342D01*
X010541Y002372D01*
X010541Y002597D01*
X010521Y002599D01*
X010524Y002369D01*
X010501Y002324D01*
X010441Y002307D01*
X010431Y002324D02*
X010466Y002324D01*
X010481Y002332D01*
X010491Y002339D01*
X010499Y002347D01*
X010506Y002362D01*
X010506Y002499D01*
X010499Y002502D01*
X010429Y002502D01*
X010429Y002544D01*
X010441Y002529D02*
X010511Y002529D01*
X010514Y002514D02*
X010441Y002512D01*
X010441Y002529D01*
X010629Y002659D02*
X010629Y002287D01*
X010674Y002287D01*
X010674Y002289D02*
X010674Y002659D01*
X010629Y002659D01*
X010641Y002647D02*
X010641Y002297D01*
X010659Y002297D02*
X010661Y002647D01*
X010641Y002647D01*
X010751Y002619D02*
X010754Y002629D01*
X010764Y002639D01*
X010771Y002644D01*
X010786Y002644D01*
X010796Y002637D01*
X010804Y002624D01*
X010804Y002609D01*
X010799Y002599D01*
X010789Y002589D01*
X010779Y002589D01*
X010769Y002619D01*
X010779Y002629D01*
X010789Y002622D01*
X010786Y002604D01*
X010779Y002592D02*
X010771Y002589D01*
X010761Y002594D01*
X010756Y002602D01*
X010751Y002612D01*
X010751Y002619D01*
X010756Y002542D02*
X010801Y002542D01*
X010801Y002287D01*
X010756Y002287D01*
X010756Y002542D01*
X010774Y002529D02*
X010769Y002299D01*
X010784Y002299D01*
X010789Y002529D01*
X010889Y002474D02*
X010904Y002497D01*
X010924Y002519D01*
X010944Y002532D01*
X010971Y002544D01*
X010986Y002547D01*
X011029Y002547D01*
X011061Y002537D01*
X011084Y002524D01*
X011101Y002507D01*
X011116Y002487D01*
X011126Y002469D01*
X011134Y002437D01*
X011134Y002392D01*
X011129Y002372D01*
X011119Y002347D01*
X011104Y002324D01*
X011081Y002302D01*
X011031Y002282D01*
X010989Y002282D01*
X010941Y002297D01*
X010924Y002302D01*
X010924Y002257D01*
X010939Y002239D01*
X010959Y002222D01*
X010979Y002212D01*
X010999Y002207D01*
X011029Y002207D01*
X011079Y002219D01*
X011089Y002179D01*
X011026Y002162D01*
X010996Y002162D01*
X010961Y002167D01*
X010939Y002179D01*
X010914Y002197D01*
X010894Y002222D01*
X010884Y002247D01*
X010876Y002274D01*
X010876Y002432D01*
X010881Y002452D01*
X010889Y002474D01*
X010896Y002452D02*
X010931Y002507D01*
X010974Y002527D01*
X011019Y002532D01*
X011071Y002512D01*
X011114Y002462D01*
X011116Y002387D01*
X011104Y002354D01*
X011071Y002309D01*
X011004Y002289D01*
X010924Y002312D01*
X010924Y002334D01*
X010989Y002304D01*
X011046Y002312D01*
X011086Y002347D01*
X011101Y002399D01*
X011094Y002467D01*
X011064Y002502D01*
X011029Y002517D01*
X010976Y002512D01*
X010936Y002499D01*
X010911Y002452D01*
X010911Y002444D02*
X010909Y002249D01*
X010956Y002199D01*
X011014Y002192D01*
X011069Y002204D01*
X011081Y002194D02*
X011014Y002177D01*
X010954Y002184D01*
X010911Y002224D01*
X010894Y002262D01*
X010894Y002442D01*
X010911Y002444D01*
X010924Y002444D02*
X010924Y002352D01*
X010919Y002354D02*
X010946Y002337D01*
X010979Y002324D01*
X010986Y002322D01*
X011029Y002322D01*
X011051Y002332D01*
X011069Y002352D01*
X011086Y002384D01*
X011089Y002449D01*
X011086Y002447D02*
X011079Y002462D01*
X011066Y002477D01*
X011054Y002489D01*
X011036Y002502D01*
X011019Y002504D01*
X010981Y002504D01*
X010961Y002494D01*
X010941Y002479D01*
X010929Y002459D01*
X010924Y002444D01*
X010456Y002284D02*
X010431Y002284D01*
X010431Y002324D01*
D13*
X008771Y002307D02*
X008774Y002457D01*
X008739Y002512D01*
X008701Y002527D01*
X008649Y002512D01*
X008616Y002487D01*
X008611Y002299D01*
X008451Y002307D02*
X008454Y002462D01*
X008481Y002507D01*
X008531Y002522D01*
X008569Y002519D01*
X008601Y002492D01*
M02*
