G75*
G70*
%OFA0B0*%
%FSLAX24Y24*%
%IPPOS*%
%LPD*%
%AMOC8*
5,1,8,0,0,1.08239X$1,22.5*
%
%ADD10C,0.0050*%
%ADD11C,0.0100*%
%ADD12C,0.0040*%
%ADD13C,0.0080*%
D10*
X007231Y000879D02*
X007231Y003079D01*
X007233Y003105D01*
X007238Y003131D01*
X007246Y003156D01*
X007258Y003179D01*
X007272Y003201D01*
X007290Y003220D01*
X007309Y003238D01*
X007331Y003252D01*
X007354Y003264D01*
X007379Y003272D01*
X007405Y003277D01*
X007431Y003279D01*
X012231Y003279D01*
X012257Y003277D01*
X012283Y003272D01*
X012308Y003264D01*
X012331Y003252D01*
X012353Y003238D01*
X012372Y003220D01*
X012390Y003201D01*
X012404Y003179D01*
X012416Y003156D01*
X012424Y003131D01*
X012429Y003105D01*
X012431Y003079D01*
X012431Y000929D01*
X012429Y000892D01*
X012423Y000856D01*
X012414Y000821D01*
X012401Y000787D01*
X012384Y000754D01*
X012364Y000723D01*
X012341Y000695D01*
X012315Y000669D01*
X012287Y000646D01*
X012256Y000626D01*
X012223Y000609D01*
X012189Y000596D01*
X012154Y000587D01*
X012118Y000581D01*
X012081Y000579D01*
X007531Y000579D01*
X007497Y000581D01*
X007464Y000587D01*
X007432Y000596D01*
X007401Y000609D01*
X007371Y000625D01*
X007344Y000644D01*
X007319Y000667D01*
X007296Y000692D01*
X007277Y000719D01*
X007261Y000749D01*
X007248Y000780D01*
X007239Y000812D01*
X007233Y000845D01*
X007231Y000879D01*
X010256Y000899D02*
X010406Y000899D01*
X010331Y000824D02*
X010331Y000974D01*
X012156Y002029D02*
X012306Y002029D01*
X012231Y001954D02*
X012231Y002104D01*
D11*
X011181Y001279D02*
X011181Y000929D01*
X010631Y000929D01*
X010031Y000929D02*
X008481Y000929D01*
X008481Y001279D01*
D12*
X007714Y002341D02*
X007397Y002341D01*
X007397Y003130D01*
X007714Y003130D01*
X007714Y002341D01*
X011948Y002341D02*
X012265Y002341D01*
X012265Y003130D01*
X011948Y003130D01*
X011948Y002341D01*
D13*
X011532Y002384D02*
X011532Y001788D01*
X008131Y001788D02*
X008131Y002384D01*
M02*
