G75*
G70*
%OFA0B0*%
%FSLAX24Y24*%
%IPPOS*%
%LPD*%
%AMOC8*
5,1,8,0,0,1.08239X$1,22.5*
%
%ADD10C,0.0050*%
%ADD11C,0.0277*%
%ADD12C,0.0004*%
%ADD13C,0.0787*%
%ADD14C,0.0800*%
%ADD15C,0.0400*%
%ADD16C,0.0100*%
%ADD17C,0.0200*%
%ADD18C,0.0340*%
D10*
X007231Y000879D02*
X007231Y003079D01*
X007233Y003105D01*
X007238Y003131D01*
X007246Y003156D01*
X007258Y003179D01*
X007272Y003201D01*
X007290Y003220D01*
X007309Y003238D01*
X007331Y003252D01*
X007354Y003264D01*
X007379Y003272D01*
X007405Y003277D01*
X007431Y003279D01*
X012231Y003279D01*
X012257Y003277D01*
X012283Y003272D01*
X012308Y003264D01*
X012331Y003252D01*
X012353Y003238D01*
X012372Y003220D01*
X012390Y003201D01*
X012404Y003179D01*
X012416Y003156D01*
X012424Y003131D01*
X012429Y003105D01*
X012431Y003079D01*
X012431Y000929D01*
X012429Y000892D01*
X012423Y000856D01*
X012414Y000821D01*
X012401Y000787D01*
X012384Y000754D01*
X012364Y000723D01*
X012341Y000695D01*
X012315Y000669D01*
X012287Y000646D01*
X012256Y000626D01*
X012223Y000609D01*
X012189Y000596D01*
X012154Y000587D01*
X012118Y000581D01*
X012081Y000579D01*
X007531Y000579D01*
X007497Y000581D01*
X007464Y000587D01*
X007432Y000596D01*
X007401Y000609D01*
X007371Y000625D01*
X007344Y000644D01*
X007319Y000667D01*
X007296Y000692D01*
X007277Y000719D01*
X007261Y000749D01*
X007248Y000780D01*
X007239Y000812D01*
X007233Y000845D01*
X007231Y000879D01*
X007831Y002829D02*
X007931Y002980D01*
X008131Y002816D01*
X011532Y002816D02*
X011831Y002829D01*
D11*
X011531Y002816D03*
X011531Y001320D03*
X008131Y001320D03*
X008131Y002816D03*
D12*
X008345Y002817D02*
X007915Y002817D01*
X007915Y002819D02*
X008345Y002819D01*
X008345Y002822D02*
X007915Y002822D01*
X007915Y002824D02*
X008345Y002824D01*
X008345Y002827D02*
X007915Y002827D01*
X007915Y002829D02*
X008345Y002829D01*
X008345Y002831D02*
X007915Y002831D01*
X007915Y002834D02*
X008345Y002834D01*
X008345Y002836D02*
X007915Y002836D01*
X007915Y002839D02*
X008345Y002839D01*
X008345Y002841D02*
X007915Y002841D01*
X007915Y002844D02*
X008345Y002844D01*
X008345Y002846D02*
X007915Y002846D01*
X007915Y002848D02*
X008345Y002848D01*
X008345Y002851D02*
X007915Y002851D01*
X007915Y002853D02*
X008345Y002853D01*
X008345Y002856D02*
X007915Y002856D01*
X007915Y002858D02*
X008345Y002858D01*
X008345Y002861D02*
X007915Y002861D01*
X007915Y002863D02*
X008345Y002863D01*
X008345Y002866D02*
X007915Y002866D01*
X007915Y002868D02*
X008345Y002868D01*
X008345Y002870D02*
X007915Y002870D01*
X007915Y002873D02*
X008345Y002873D01*
X008345Y002875D02*
X007915Y002875D01*
X007915Y002878D02*
X008345Y002878D01*
X008345Y002880D02*
X007915Y002880D01*
X007915Y002883D02*
X008345Y002883D01*
X008345Y002885D02*
X007915Y002885D01*
X007915Y002887D02*
X008345Y002887D01*
X008345Y002890D02*
X007915Y002890D01*
X007915Y002892D02*
X008345Y002892D01*
X008345Y002895D02*
X007915Y002895D01*
X007915Y002897D02*
X008345Y002897D01*
X008345Y002900D02*
X007915Y002900D01*
X007915Y002902D02*
X008345Y002902D01*
X008345Y002905D02*
X007915Y002905D01*
X007915Y002907D02*
X008345Y002907D01*
X008345Y002909D02*
X007915Y002909D01*
X007915Y002912D02*
X008345Y002912D01*
X008345Y002914D02*
X007915Y002914D01*
X007915Y002917D02*
X008345Y002917D01*
X008345Y002919D02*
X007915Y002919D01*
X007915Y002922D02*
X008345Y002922D01*
X008345Y002924D02*
X007915Y002924D01*
X007915Y002926D02*
X008345Y002926D01*
X008345Y002929D02*
X007915Y002929D01*
X007915Y002931D02*
X008345Y002931D01*
X008345Y002934D02*
X008339Y002982D01*
X008339Y002983D02*
X007921Y002983D01*
X007920Y002982D02*
X007915Y002934D01*
X008345Y002934D01*
X008345Y002697D01*
X007915Y002697D01*
X007920Y002650D01*
X007936Y002604D01*
X007962Y002564D01*
X007996Y002530D01*
X008037Y002504D01*
X008082Y002488D01*
X008130Y002483D01*
X008178Y002488D01*
X008223Y002504D01*
X008264Y002530D01*
X008298Y002564D01*
X008323Y002604D01*
X008339Y002650D01*
X008345Y002697D01*
X008344Y002695D02*
X007915Y002695D01*
X007915Y002697D02*
X007915Y002934D01*
X007915Y002936D02*
X008344Y002936D01*
X008344Y002939D02*
X007916Y002939D01*
X007916Y002941D02*
X008344Y002941D01*
X008344Y002944D02*
X007916Y002944D01*
X007916Y002946D02*
X008343Y002946D01*
X008343Y002948D02*
X007917Y002948D01*
X007917Y002951D02*
X008343Y002951D01*
X008343Y002953D02*
X007917Y002953D01*
X007918Y002956D02*
X008342Y002956D01*
X008342Y002958D02*
X007918Y002958D01*
X007918Y002961D02*
X008342Y002961D01*
X008341Y002963D02*
X007918Y002963D01*
X007919Y002965D02*
X008341Y002965D01*
X008341Y002968D02*
X007919Y002968D01*
X007919Y002970D02*
X008341Y002970D01*
X008340Y002973D02*
X007919Y002973D01*
X007920Y002975D02*
X008340Y002975D01*
X008340Y002978D02*
X007920Y002978D01*
X007920Y002980D02*
X008340Y002980D01*
X008339Y002982D02*
X008323Y003027D01*
X008298Y003068D01*
X007962Y003068D01*
X007936Y003027D01*
X007920Y002982D01*
X007922Y002985D02*
X008338Y002985D01*
X008337Y002987D02*
X007923Y002987D01*
X007923Y002990D02*
X008336Y002990D01*
X008336Y002992D02*
X007924Y002992D01*
X007925Y002995D02*
X008335Y002995D01*
X008334Y002997D02*
X007926Y002997D01*
X007927Y003000D02*
X008333Y003000D01*
X008332Y003002D02*
X007928Y003002D01*
X007928Y003004D02*
X008331Y003004D01*
X008331Y003007D02*
X007929Y003007D01*
X007930Y003009D02*
X008330Y003009D01*
X008329Y003012D02*
X007931Y003012D01*
X007932Y003014D02*
X008328Y003014D01*
X008327Y003017D02*
X007933Y003017D01*
X007934Y003019D02*
X008326Y003019D01*
X008325Y003022D02*
X007934Y003022D01*
X007935Y003024D02*
X008325Y003024D01*
X008324Y003026D02*
X007936Y003026D01*
X007938Y003029D02*
X008322Y003029D01*
X008321Y003031D02*
X007939Y003031D01*
X007941Y003034D02*
X008319Y003034D01*
X008318Y003036D02*
X007942Y003036D01*
X007944Y003039D02*
X008316Y003039D01*
X008315Y003041D02*
X007945Y003041D01*
X007947Y003043D02*
X008313Y003043D01*
X008312Y003046D02*
X007948Y003046D01*
X007950Y003048D02*
X008310Y003048D01*
X008309Y003051D02*
X007951Y003051D01*
X007953Y003053D02*
X008307Y003053D01*
X008305Y003056D02*
X007954Y003056D01*
X007956Y003058D02*
X008304Y003058D01*
X008302Y003061D02*
X007957Y003061D01*
X007959Y003063D02*
X008301Y003063D01*
X008299Y003065D02*
X007961Y003065D01*
X007962Y003068D02*
X007996Y003102D01*
X008037Y003127D01*
X008082Y003143D01*
X008130Y003149D01*
X008178Y003143D01*
X008223Y003127D01*
X008264Y003102D01*
X008298Y003068D01*
X008295Y003070D02*
X007965Y003070D01*
X007967Y003073D02*
X008293Y003073D01*
X008290Y003075D02*
X007969Y003075D01*
X007972Y003078D02*
X008288Y003078D01*
X008286Y003080D02*
X007974Y003080D01*
X007977Y003082D02*
X008283Y003082D01*
X008281Y003085D02*
X007979Y003085D01*
X007982Y003087D02*
X008278Y003087D01*
X008276Y003090D02*
X007984Y003090D01*
X007986Y003092D02*
X008273Y003092D01*
X008271Y003095D02*
X007989Y003095D01*
X007991Y003097D02*
X008269Y003097D01*
X008266Y003099D02*
X007994Y003099D01*
X007996Y003102D02*
X008263Y003102D01*
X008260Y003104D02*
X008000Y003104D01*
X008004Y003107D02*
X008256Y003107D01*
X008252Y003109D02*
X008008Y003109D01*
X008012Y003112D02*
X008248Y003112D01*
X008244Y003114D02*
X008016Y003114D01*
X008020Y003117D02*
X008240Y003117D01*
X008236Y003119D02*
X008024Y003119D01*
X008027Y003121D02*
X008232Y003121D01*
X008229Y003124D02*
X008031Y003124D01*
X008035Y003126D02*
X008225Y003126D01*
X008219Y003129D02*
X008041Y003129D01*
X008048Y003131D02*
X008212Y003131D01*
X008205Y003134D02*
X008055Y003134D01*
X008062Y003136D02*
X008198Y003136D01*
X008191Y003138D02*
X008069Y003138D01*
X008076Y003141D02*
X008184Y003141D01*
X008176Y003143D02*
X008084Y003143D01*
X008105Y003146D02*
X008154Y003146D01*
X008133Y003148D02*
X008127Y003148D01*
X007915Y002814D02*
X008345Y002814D01*
X008345Y002812D02*
X007915Y002812D01*
X007915Y002809D02*
X008345Y002809D01*
X008345Y002807D02*
X007915Y002807D01*
X007915Y002805D02*
X008345Y002805D01*
X008345Y002802D02*
X007915Y002802D01*
X007915Y002800D02*
X008345Y002800D01*
X008345Y002797D02*
X007915Y002797D01*
X007915Y002795D02*
X008345Y002795D01*
X008345Y002792D02*
X007915Y002792D01*
X007915Y002790D02*
X008345Y002790D01*
X008345Y002788D02*
X007915Y002788D01*
X007915Y002785D02*
X008345Y002785D01*
X008345Y002783D02*
X007915Y002783D01*
X007915Y002780D02*
X008345Y002780D01*
X008345Y002778D02*
X007915Y002778D01*
X007915Y002775D02*
X008345Y002775D01*
X008345Y002773D02*
X007915Y002773D01*
X007915Y002770D02*
X008345Y002770D01*
X008345Y002768D02*
X007915Y002768D01*
X007915Y002766D02*
X008345Y002766D01*
X008345Y002763D02*
X007915Y002763D01*
X007915Y002761D02*
X008345Y002761D01*
X008345Y002758D02*
X007915Y002758D01*
X007915Y002756D02*
X008345Y002756D01*
X008345Y002753D02*
X007915Y002753D01*
X007915Y002751D02*
X008345Y002751D01*
X008345Y002749D02*
X007915Y002749D01*
X007915Y002746D02*
X008345Y002746D01*
X008345Y002744D02*
X007915Y002744D01*
X007915Y002741D02*
X008345Y002741D01*
X008345Y002739D02*
X007915Y002739D01*
X007915Y002736D02*
X008345Y002736D01*
X008345Y002734D02*
X007915Y002734D01*
X007915Y002731D02*
X008345Y002731D01*
X008345Y002729D02*
X007915Y002729D01*
X007915Y002727D02*
X008345Y002727D01*
X008345Y002724D02*
X007915Y002724D01*
X007915Y002722D02*
X008345Y002722D01*
X008345Y002719D02*
X007915Y002719D01*
X007915Y002717D02*
X008345Y002717D01*
X008345Y002714D02*
X007915Y002714D01*
X007915Y002712D02*
X008345Y002712D01*
X008345Y002710D02*
X007915Y002710D01*
X007915Y002707D02*
X008345Y002707D01*
X008345Y002705D02*
X007915Y002705D01*
X007915Y002702D02*
X008345Y002702D01*
X008345Y002700D02*
X007915Y002700D01*
X007916Y002692D02*
X008344Y002692D01*
X008344Y002690D02*
X007916Y002690D01*
X007916Y002688D02*
X008344Y002688D01*
X008343Y002685D02*
X007916Y002685D01*
X007917Y002683D02*
X008343Y002683D01*
X008343Y002680D02*
X007917Y002680D01*
X007917Y002678D02*
X008343Y002678D01*
X008342Y002675D02*
X007918Y002675D01*
X007918Y002673D02*
X008342Y002673D01*
X008342Y002671D02*
X007918Y002671D01*
X007918Y002668D02*
X008341Y002668D01*
X008341Y002666D02*
X007919Y002666D01*
X007919Y002663D02*
X008341Y002663D01*
X008341Y002661D02*
X007919Y002661D01*
X007919Y002658D02*
X008340Y002658D01*
X008340Y002656D02*
X007920Y002656D01*
X007920Y002653D02*
X008340Y002653D01*
X008340Y002651D02*
X007920Y002651D01*
X007921Y002649D02*
X008339Y002649D01*
X008338Y002646D02*
X007922Y002646D01*
X007923Y002644D02*
X008337Y002644D01*
X008336Y002641D02*
X007923Y002641D01*
X007924Y002639D02*
X008336Y002639D01*
X008335Y002636D02*
X007925Y002636D01*
X007926Y002634D02*
X008334Y002634D01*
X008333Y002632D02*
X007927Y002632D01*
X007928Y002629D02*
X008332Y002629D01*
X008331Y002627D02*
X007929Y002627D01*
X007929Y002624D02*
X008330Y002624D01*
X008330Y002622D02*
X007930Y002622D01*
X007931Y002619D02*
X008329Y002619D01*
X008328Y002617D02*
X007932Y002617D01*
X007933Y002614D02*
X008327Y002614D01*
X008326Y002612D02*
X007934Y002612D01*
X007934Y002610D02*
X008325Y002610D01*
X008325Y002607D02*
X007935Y002607D01*
X007936Y002605D02*
X008324Y002605D01*
X008322Y002602D02*
X007938Y002602D01*
X007939Y002600D02*
X008321Y002600D01*
X008319Y002597D02*
X007941Y002597D01*
X007942Y002595D02*
X008318Y002595D01*
X008316Y002593D02*
X007944Y002593D01*
X007945Y002590D02*
X008315Y002590D01*
X008313Y002588D02*
X007947Y002588D01*
X007948Y002585D02*
X008312Y002585D01*
X008310Y002583D02*
X007950Y002583D01*
X007951Y002580D02*
X008308Y002580D01*
X008307Y002578D02*
X007953Y002578D01*
X007954Y002575D02*
X008305Y002575D01*
X008304Y002573D02*
X007956Y002573D01*
X007957Y002571D02*
X008302Y002571D01*
X008301Y002568D02*
X007959Y002568D01*
X007961Y002566D02*
X008299Y002566D01*
X008298Y002563D02*
X007962Y002563D01*
X007965Y002561D02*
X008295Y002561D01*
X008293Y002558D02*
X007967Y002558D01*
X007969Y002556D02*
X008290Y002556D01*
X008288Y002554D02*
X007972Y002554D01*
X007974Y002551D02*
X008285Y002551D01*
X008283Y002549D02*
X007977Y002549D01*
X007979Y002546D02*
X008281Y002546D01*
X008278Y002544D02*
X007982Y002544D01*
X007984Y002541D02*
X008276Y002541D01*
X008273Y002539D02*
X007987Y002539D01*
X007989Y002536D02*
X008271Y002536D01*
X008268Y002534D02*
X007991Y002534D01*
X007994Y002532D02*
X008266Y002532D01*
X008263Y002529D02*
X007996Y002529D01*
X008000Y002527D02*
X008259Y002527D01*
X008256Y002524D02*
X008004Y002524D01*
X008008Y002522D02*
X008252Y002522D01*
X008248Y002519D02*
X008012Y002519D01*
X008016Y002517D02*
X008244Y002517D01*
X008240Y002515D02*
X008020Y002515D01*
X008024Y002512D02*
X008236Y002512D01*
X008232Y002510D02*
X008028Y002510D01*
X008031Y002507D02*
X008228Y002507D01*
X008225Y002505D02*
X008035Y002505D01*
X008041Y002502D02*
X008219Y002502D01*
X008212Y002500D02*
X008048Y002500D01*
X008055Y002497D02*
X008205Y002497D01*
X008198Y002495D02*
X008062Y002495D01*
X008069Y002493D02*
X008191Y002493D01*
X008184Y002490D02*
X008076Y002490D01*
X008085Y002488D02*
X008175Y002488D01*
X008154Y002485D02*
X008106Y002485D01*
X008128Y002483D02*
X008132Y002483D01*
X008130Y001652D02*
X008178Y001647D01*
X008223Y001631D01*
X008264Y001606D01*
X008298Y001572D01*
X008323Y001531D01*
X008339Y001485D01*
X008345Y001438D01*
X008345Y001201D01*
X007915Y001201D01*
X007920Y001154D01*
X007936Y001108D01*
X007962Y001067D01*
X007996Y001033D01*
X008037Y001008D01*
X008082Y000992D01*
X008130Y000987D01*
X008178Y000992D01*
X008223Y001008D01*
X008264Y001033D01*
X008298Y001067D01*
X008323Y001108D01*
X008339Y001154D01*
X008345Y001201D01*
X008345Y001203D02*
X007915Y001203D01*
X007915Y001201D02*
X007915Y001438D01*
X007920Y001485D01*
X007936Y001531D01*
X007962Y001572D01*
X007996Y001606D01*
X008037Y001631D01*
X008082Y001647D01*
X008130Y001652D01*
X008136Y001652D02*
X008123Y001652D01*
X008102Y001649D02*
X008158Y001649D01*
X008178Y001647D02*
X008081Y001647D01*
X008075Y001644D02*
X008185Y001644D01*
X008192Y001642D02*
X008068Y001642D01*
X008061Y001640D02*
X008199Y001640D01*
X008206Y001637D02*
X008054Y001637D01*
X008047Y001635D02*
X008213Y001635D01*
X008220Y001632D02*
X008040Y001632D01*
X008034Y001630D02*
X008225Y001630D01*
X008229Y001627D02*
X008031Y001627D01*
X008027Y001625D02*
X008233Y001625D01*
X008237Y001623D02*
X008023Y001623D01*
X008019Y001620D02*
X008241Y001620D01*
X008245Y001618D02*
X008015Y001618D01*
X008011Y001615D02*
X008249Y001615D01*
X008253Y001613D02*
X008007Y001613D01*
X008003Y001610D02*
X008256Y001610D01*
X008260Y001608D02*
X008000Y001608D01*
X007996Y001605D02*
X008264Y001605D01*
X008266Y001603D02*
X007993Y001603D01*
X007991Y001601D02*
X008269Y001601D01*
X008271Y001598D02*
X007988Y001598D01*
X007986Y001596D02*
X008274Y001596D01*
X008276Y001593D02*
X007984Y001593D01*
X007981Y001591D02*
X008279Y001591D01*
X008281Y001588D02*
X007979Y001588D01*
X007976Y001586D02*
X008284Y001586D01*
X008286Y001584D02*
X007974Y001584D01*
X007971Y001581D02*
X008288Y001581D01*
X008291Y001579D02*
X007969Y001579D01*
X007967Y001576D02*
X008293Y001576D01*
X008296Y001574D02*
X007964Y001574D01*
X007962Y001571D02*
X008298Y001571D01*
X008300Y001569D02*
X007960Y001569D01*
X007959Y001566D02*
X008301Y001566D01*
X008303Y001564D02*
X007957Y001564D01*
X007956Y001562D02*
X008304Y001562D01*
X008306Y001559D02*
X007954Y001559D01*
X007953Y001557D02*
X008307Y001557D01*
X008309Y001554D02*
X007951Y001554D01*
X007950Y001552D02*
X008310Y001552D01*
X008312Y001549D02*
X007948Y001549D01*
X007946Y001547D02*
X008313Y001547D01*
X008315Y001545D02*
X007945Y001545D01*
X007943Y001542D02*
X008316Y001542D01*
X008318Y001540D02*
X007942Y001540D01*
X007940Y001537D02*
X008320Y001537D01*
X008321Y001535D02*
X007939Y001535D01*
X007937Y001532D02*
X008323Y001532D01*
X008324Y001530D02*
X007936Y001530D01*
X007935Y001527D02*
X008325Y001527D01*
X008326Y001525D02*
X007934Y001525D01*
X007933Y001523D02*
X008326Y001523D01*
X008327Y001520D02*
X007933Y001520D01*
X007932Y001518D02*
X008328Y001518D01*
X008329Y001515D02*
X007931Y001515D01*
X007930Y001513D02*
X008330Y001513D01*
X008331Y001510D02*
X007929Y001510D01*
X007928Y001508D02*
X008332Y001508D01*
X008332Y001506D02*
X007927Y001506D01*
X007927Y001503D02*
X008333Y001503D01*
X008334Y001501D02*
X007926Y001501D01*
X007925Y001498D02*
X008335Y001498D01*
X008336Y001496D02*
X007924Y001496D01*
X007923Y001493D02*
X008337Y001493D01*
X008337Y001491D02*
X007922Y001491D01*
X007922Y001488D02*
X008338Y001488D01*
X008339Y001486D02*
X007921Y001486D01*
X007920Y001484D02*
X008340Y001484D01*
X008340Y001481D02*
X007920Y001481D01*
X007920Y001479D02*
X008340Y001479D01*
X008340Y001476D02*
X007919Y001476D01*
X007919Y001474D02*
X008341Y001474D01*
X008341Y001471D02*
X007919Y001471D01*
X007919Y001469D02*
X008341Y001469D01*
X008342Y001467D02*
X007918Y001467D01*
X007918Y001464D02*
X008342Y001464D01*
X008342Y001462D02*
X007918Y001462D01*
X007918Y001459D02*
X008342Y001459D01*
X008343Y001457D02*
X007917Y001457D01*
X007917Y001454D02*
X008343Y001454D01*
X008343Y001452D02*
X007917Y001452D01*
X007916Y001449D02*
X008343Y001449D01*
X008344Y001447D02*
X007916Y001447D01*
X007916Y001445D02*
X008344Y001445D01*
X008344Y001442D02*
X007916Y001442D01*
X007915Y001440D02*
X008345Y001440D01*
X008345Y001437D02*
X007915Y001437D01*
X007915Y001435D02*
X008345Y001435D01*
X008345Y001432D02*
X007915Y001432D01*
X007915Y001430D02*
X008345Y001430D01*
X008345Y001428D02*
X007915Y001428D01*
X007915Y001425D02*
X008345Y001425D01*
X008345Y001423D02*
X007915Y001423D01*
X007915Y001420D02*
X008345Y001420D01*
X008345Y001418D02*
X007915Y001418D01*
X007915Y001415D02*
X008345Y001415D01*
X008345Y001413D02*
X007915Y001413D01*
X007915Y001410D02*
X008345Y001410D01*
X008345Y001408D02*
X007915Y001408D01*
X007915Y001406D02*
X008345Y001406D01*
X008345Y001403D02*
X007915Y001403D01*
X007915Y001401D02*
X008345Y001401D01*
X008345Y001398D02*
X007915Y001398D01*
X007915Y001396D02*
X008345Y001396D01*
X008345Y001393D02*
X007915Y001393D01*
X007915Y001391D02*
X008345Y001391D01*
X008345Y001389D02*
X007915Y001389D01*
X007915Y001386D02*
X008345Y001386D01*
X008345Y001384D02*
X007915Y001384D01*
X007915Y001381D02*
X008345Y001381D01*
X008345Y001379D02*
X007915Y001379D01*
X007915Y001376D02*
X008345Y001376D01*
X008345Y001374D02*
X007915Y001374D01*
X007915Y001371D02*
X008345Y001371D01*
X008345Y001369D02*
X007915Y001369D01*
X007915Y001367D02*
X008345Y001367D01*
X008345Y001364D02*
X007915Y001364D01*
X007915Y001362D02*
X008345Y001362D01*
X008345Y001359D02*
X007915Y001359D01*
X007915Y001357D02*
X008345Y001357D01*
X008345Y001354D02*
X007915Y001354D01*
X007915Y001352D02*
X008345Y001352D01*
X008345Y001350D02*
X007915Y001350D01*
X007915Y001347D02*
X008345Y001347D01*
X008345Y001345D02*
X007915Y001345D01*
X007915Y001342D02*
X008345Y001342D01*
X008345Y001340D02*
X007915Y001340D01*
X007915Y001337D02*
X008345Y001337D01*
X008345Y001335D02*
X007915Y001335D01*
X007915Y001332D02*
X008345Y001332D01*
X008345Y001330D02*
X007915Y001330D01*
X007915Y001328D02*
X008345Y001328D01*
X008345Y001325D02*
X007915Y001325D01*
X007915Y001323D02*
X008345Y001323D01*
X008345Y001320D02*
X007915Y001320D01*
X007915Y001318D02*
X008345Y001318D01*
X008345Y001315D02*
X007915Y001315D01*
X007915Y001313D02*
X008345Y001313D01*
X008345Y001311D02*
X007915Y001311D01*
X007915Y001308D02*
X008345Y001308D01*
X008345Y001306D02*
X007915Y001306D01*
X007915Y001303D02*
X008345Y001303D01*
X008345Y001301D02*
X007915Y001301D01*
X007915Y001298D02*
X008345Y001298D01*
X008345Y001296D02*
X007915Y001296D01*
X007915Y001293D02*
X008345Y001293D01*
X008345Y001291D02*
X007915Y001291D01*
X007915Y001289D02*
X008345Y001289D01*
X008345Y001286D02*
X007915Y001286D01*
X007915Y001284D02*
X008345Y001284D01*
X008345Y001281D02*
X007915Y001281D01*
X007915Y001279D02*
X008345Y001279D01*
X008345Y001276D02*
X007915Y001276D01*
X007915Y001274D02*
X008345Y001274D01*
X008345Y001272D02*
X007915Y001272D01*
X007915Y001269D02*
X008345Y001269D01*
X008345Y001267D02*
X007915Y001267D01*
X007915Y001264D02*
X008345Y001264D01*
X008345Y001262D02*
X007915Y001262D01*
X007915Y001259D02*
X008345Y001259D01*
X008345Y001257D02*
X007915Y001257D01*
X007915Y001254D02*
X008345Y001254D01*
X008345Y001252D02*
X007915Y001252D01*
X007915Y001250D02*
X008345Y001250D01*
X008345Y001247D02*
X007915Y001247D01*
X007915Y001245D02*
X008345Y001245D01*
X008345Y001242D02*
X007915Y001242D01*
X007915Y001240D02*
X008345Y001240D01*
X008345Y001237D02*
X007915Y001237D01*
X007915Y001235D02*
X008345Y001235D01*
X008345Y001233D02*
X007915Y001233D01*
X007915Y001230D02*
X008345Y001230D01*
X008345Y001228D02*
X007915Y001228D01*
X007915Y001225D02*
X008345Y001225D01*
X008345Y001223D02*
X007915Y001223D01*
X007915Y001220D02*
X008345Y001220D01*
X008345Y001218D02*
X007915Y001218D01*
X007915Y001215D02*
X008345Y001215D01*
X008345Y001213D02*
X007915Y001213D01*
X007915Y001211D02*
X008345Y001211D01*
X008345Y001208D02*
X007915Y001208D01*
X007915Y001206D02*
X008345Y001206D01*
X008344Y001198D02*
X007915Y001198D01*
X007916Y001196D02*
X008344Y001196D01*
X008344Y001194D02*
X007916Y001194D01*
X007916Y001191D02*
X008344Y001191D01*
X008343Y001189D02*
X007917Y001189D01*
X007917Y001186D02*
X008343Y001186D01*
X008343Y001184D02*
X007917Y001184D01*
X007917Y001181D02*
X008343Y001181D01*
X008342Y001179D02*
X007918Y001179D01*
X007918Y001177D02*
X008342Y001177D01*
X008342Y001174D02*
X007918Y001174D01*
X007918Y001172D02*
X008341Y001172D01*
X008341Y001169D02*
X007919Y001169D01*
X007919Y001167D02*
X008341Y001167D01*
X008341Y001164D02*
X007919Y001164D01*
X007920Y001162D02*
X008340Y001162D01*
X008340Y001159D02*
X007920Y001159D01*
X007920Y001157D02*
X008340Y001157D01*
X008339Y001155D02*
X007920Y001155D01*
X007921Y001152D02*
X008339Y001152D01*
X008338Y001150D02*
X007922Y001150D01*
X007923Y001147D02*
X008337Y001147D01*
X008336Y001145D02*
X007924Y001145D01*
X007924Y001142D02*
X008335Y001142D01*
X008335Y001140D02*
X007925Y001140D01*
X007926Y001138D02*
X008334Y001138D01*
X008333Y001135D02*
X007927Y001135D01*
X007928Y001133D02*
X008332Y001133D01*
X008331Y001130D02*
X007929Y001130D01*
X007930Y001128D02*
X008330Y001128D01*
X008329Y001125D02*
X007930Y001125D01*
X007931Y001123D02*
X008329Y001123D01*
X008328Y001120D02*
X007932Y001120D01*
X007933Y001118D02*
X008327Y001118D01*
X008326Y001116D02*
X007934Y001116D01*
X007935Y001113D02*
X008325Y001113D01*
X008324Y001111D02*
X007935Y001111D01*
X007936Y001108D02*
X008324Y001108D01*
X008322Y001106D02*
X007938Y001106D01*
X007939Y001103D02*
X008320Y001103D01*
X008319Y001101D02*
X007941Y001101D01*
X007942Y001099D02*
X008317Y001099D01*
X008316Y001096D02*
X007944Y001096D01*
X007945Y001094D02*
X008314Y001094D01*
X008313Y001091D02*
X007947Y001091D01*
X007949Y001089D02*
X008311Y001089D01*
X008310Y001086D02*
X007950Y001086D01*
X007952Y001084D02*
X008308Y001084D01*
X008307Y001081D02*
X007953Y001081D01*
X007955Y001079D02*
X008305Y001079D01*
X008304Y001077D02*
X007956Y001077D01*
X007958Y001074D02*
X008302Y001074D01*
X008301Y001072D02*
X007959Y001072D01*
X007961Y001069D02*
X008299Y001069D01*
X008297Y001067D02*
X007963Y001067D01*
X007965Y001064D02*
X008295Y001064D01*
X008292Y001062D02*
X007967Y001062D01*
X007970Y001060D02*
X008290Y001060D01*
X008288Y001057D02*
X007972Y001057D01*
X007975Y001055D02*
X008285Y001055D01*
X008283Y001052D02*
X007977Y001052D01*
X007980Y001050D02*
X008280Y001050D01*
X008278Y001047D02*
X007982Y001047D01*
X007985Y001045D02*
X008275Y001045D01*
X008273Y001042D02*
X007987Y001042D01*
X007989Y001040D02*
X008270Y001040D01*
X008268Y001038D02*
X007992Y001038D01*
X007994Y001035D02*
X008266Y001035D01*
X008263Y001033D02*
X007997Y001033D01*
X008001Y001030D02*
X008259Y001030D01*
X008255Y001028D02*
X008005Y001028D01*
X008009Y001025D02*
X008251Y001025D01*
X008247Y001023D02*
X008013Y001023D01*
X008017Y001021D02*
X008243Y001021D01*
X008239Y001018D02*
X008020Y001018D01*
X008024Y001016D02*
X008236Y001016D01*
X008232Y001013D02*
X008028Y001013D01*
X008032Y001011D02*
X008228Y001011D01*
X008224Y001008D02*
X008036Y001008D01*
X008042Y001006D02*
X008218Y001006D01*
X008211Y001003D02*
X008049Y001003D01*
X008056Y001001D02*
X008204Y001001D01*
X008197Y000999D02*
X008063Y000999D01*
X008070Y000996D02*
X008190Y000996D01*
X008183Y000994D02*
X008077Y000994D01*
X008088Y000991D02*
X008172Y000991D01*
X008150Y000989D02*
X008110Y000989D01*
X011316Y001201D02*
X011321Y001154D01*
X011337Y001108D01*
X011363Y001067D01*
X011698Y001067D01*
X011699Y001067D02*
X011724Y001108D01*
X011740Y001154D01*
X011746Y001201D01*
X011745Y001201D02*
X011316Y001201D01*
X011316Y001438D01*
X011321Y001485D01*
X011337Y001531D01*
X011363Y001572D01*
X011397Y001606D01*
X011437Y001631D01*
X011483Y001647D01*
X011531Y001652D01*
X011579Y001647D01*
X011482Y001647D01*
X011475Y001644D02*
X011586Y001644D01*
X011593Y001642D02*
X011468Y001642D01*
X011461Y001640D02*
X011600Y001640D01*
X011607Y001637D02*
X011454Y001637D01*
X011447Y001635D02*
X011614Y001635D01*
X011621Y001632D02*
X011440Y001632D01*
X011435Y001630D02*
X011626Y001630D01*
X011624Y001631D02*
X011579Y001647D01*
X011559Y001649D02*
X011503Y001649D01*
X011524Y001652D02*
X011537Y001652D01*
X011624Y001631D02*
X011665Y001606D01*
X011699Y001572D01*
X011724Y001531D01*
X011740Y001485D01*
X011746Y001438D01*
X011746Y001201D01*
X011746Y001203D02*
X011316Y001203D01*
X011316Y001206D02*
X011746Y001206D01*
X011746Y001208D02*
X011316Y001208D01*
X011316Y001211D02*
X011746Y001211D01*
X011746Y001213D02*
X011316Y001213D01*
X011316Y001215D02*
X011746Y001215D01*
X011746Y001218D02*
X011316Y001218D01*
X011316Y001220D02*
X011746Y001220D01*
X011746Y001223D02*
X011316Y001223D01*
X011316Y001225D02*
X011746Y001225D01*
X011746Y001228D02*
X011316Y001228D01*
X011316Y001230D02*
X011746Y001230D01*
X011746Y001233D02*
X011316Y001233D01*
X011316Y001235D02*
X011746Y001235D01*
X011746Y001237D02*
X011316Y001237D01*
X011316Y001240D02*
X011746Y001240D01*
X011746Y001242D02*
X011316Y001242D01*
X011316Y001245D02*
X011746Y001245D01*
X011746Y001247D02*
X011316Y001247D01*
X011316Y001250D02*
X011746Y001250D01*
X011746Y001252D02*
X011316Y001252D01*
X011316Y001254D02*
X011746Y001254D01*
X011746Y001257D02*
X011316Y001257D01*
X011316Y001259D02*
X011746Y001259D01*
X011746Y001262D02*
X011316Y001262D01*
X011316Y001264D02*
X011746Y001264D01*
X011746Y001267D02*
X011316Y001267D01*
X011316Y001269D02*
X011746Y001269D01*
X011746Y001272D02*
X011316Y001272D01*
X011316Y001274D02*
X011746Y001274D01*
X011746Y001276D02*
X011316Y001276D01*
X011316Y001279D02*
X011746Y001279D01*
X011746Y001281D02*
X011316Y001281D01*
X011316Y001284D02*
X011746Y001284D01*
X011746Y001286D02*
X011316Y001286D01*
X011316Y001289D02*
X011746Y001289D01*
X011746Y001291D02*
X011316Y001291D01*
X011316Y001293D02*
X011746Y001293D01*
X011746Y001296D02*
X011316Y001296D01*
X011316Y001298D02*
X011746Y001298D01*
X011746Y001301D02*
X011316Y001301D01*
X011316Y001303D02*
X011746Y001303D01*
X011746Y001306D02*
X011316Y001306D01*
X011316Y001308D02*
X011746Y001308D01*
X011746Y001311D02*
X011316Y001311D01*
X011316Y001313D02*
X011746Y001313D01*
X011746Y001315D02*
X011316Y001315D01*
X011316Y001318D02*
X011746Y001318D01*
X011746Y001320D02*
X011316Y001320D01*
X011316Y001323D02*
X011746Y001323D01*
X011746Y001325D02*
X011316Y001325D01*
X011316Y001328D02*
X011746Y001328D01*
X011746Y001330D02*
X011316Y001330D01*
X011316Y001332D02*
X011746Y001332D01*
X011746Y001335D02*
X011316Y001335D01*
X011316Y001337D02*
X011746Y001337D01*
X011746Y001340D02*
X011316Y001340D01*
X011316Y001342D02*
X011746Y001342D01*
X011746Y001345D02*
X011316Y001345D01*
X011316Y001347D02*
X011746Y001347D01*
X011746Y001350D02*
X011316Y001350D01*
X011316Y001352D02*
X011746Y001352D01*
X011746Y001354D02*
X011316Y001354D01*
X011316Y001357D02*
X011746Y001357D01*
X011746Y001359D02*
X011316Y001359D01*
X011316Y001362D02*
X011746Y001362D01*
X011746Y001364D02*
X011316Y001364D01*
X011316Y001367D02*
X011746Y001367D01*
X011746Y001369D02*
X011316Y001369D01*
X011316Y001371D02*
X011746Y001371D01*
X011746Y001374D02*
X011316Y001374D01*
X011316Y001376D02*
X011746Y001376D01*
X011746Y001379D02*
X011316Y001379D01*
X011316Y001381D02*
X011746Y001381D01*
X011746Y001384D02*
X011316Y001384D01*
X011316Y001386D02*
X011746Y001386D01*
X011746Y001389D02*
X011316Y001389D01*
X011316Y001391D02*
X011746Y001391D01*
X011746Y001393D02*
X011316Y001393D01*
X011316Y001396D02*
X011746Y001396D01*
X011746Y001398D02*
X011316Y001398D01*
X011316Y001401D02*
X011746Y001401D01*
X011746Y001403D02*
X011316Y001403D01*
X011316Y001406D02*
X011746Y001406D01*
X011746Y001408D02*
X011316Y001408D01*
X011316Y001410D02*
X011746Y001410D01*
X011746Y001413D02*
X011316Y001413D01*
X011316Y001415D02*
X011746Y001415D01*
X011746Y001418D02*
X011316Y001418D01*
X011316Y001420D02*
X011746Y001420D01*
X011746Y001423D02*
X011316Y001423D01*
X011316Y001425D02*
X011746Y001425D01*
X011746Y001428D02*
X011316Y001428D01*
X011316Y001430D02*
X011746Y001430D01*
X011746Y001432D02*
X011316Y001432D01*
X011316Y001435D02*
X011746Y001435D01*
X011746Y001437D02*
X011316Y001437D01*
X011316Y001440D02*
X011745Y001440D01*
X011745Y001442D02*
X011316Y001442D01*
X011317Y001445D02*
X011745Y001445D01*
X011745Y001447D02*
X011317Y001447D01*
X011317Y001449D02*
X011744Y001449D01*
X011744Y001452D02*
X011317Y001452D01*
X011318Y001454D02*
X011744Y001454D01*
X011743Y001457D02*
X011318Y001457D01*
X011318Y001459D02*
X011743Y001459D01*
X011743Y001462D02*
X011319Y001462D01*
X011319Y001464D02*
X011743Y001464D01*
X011742Y001467D02*
X011319Y001467D01*
X011319Y001469D02*
X011742Y001469D01*
X011742Y001471D02*
X011320Y001471D01*
X011320Y001474D02*
X011741Y001474D01*
X011741Y001476D02*
X011320Y001476D01*
X011320Y001479D02*
X011741Y001479D01*
X011741Y001481D02*
X011321Y001481D01*
X011321Y001484D02*
X011740Y001484D01*
X011740Y001486D02*
X011321Y001486D01*
X011322Y001488D02*
X011739Y001488D01*
X011738Y001491D02*
X011323Y001491D01*
X011324Y001493D02*
X011737Y001493D01*
X011737Y001496D02*
X011325Y001496D01*
X011326Y001498D02*
X011736Y001498D01*
X011735Y001501D02*
X011327Y001501D01*
X011327Y001503D02*
X011734Y001503D01*
X011733Y001506D02*
X011328Y001506D01*
X011329Y001508D02*
X011732Y001508D01*
X011731Y001510D02*
X011330Y001510D01*
X011331Y001513D02*
X011731Y001513D01*
X011730Y001515D02*
X011332Y001515D01*
X011333Y001518D02*
X011729Y001518D01*
X011728Y001520D02*
X011333Y001520D01*
X011334Y001523D02*
X011727Y001523D01*
X011726Y001525D02*
X011335Y001525D01*
X011336Y001527D02*
X011725Y001527D01*
X011725Y001530D02*
X011337Y001530D01*
X011338Y001532D02*
X011723Y001532D01*
X011722Y001535D02*
X011340Y001535D01*
X011341Y001537D02*
X011720Y001537D01*
X011719Y001540D02*
X011343Y001540D01*
X011344Y001542D02*
X011717Y001542D01*
X011716Y001545D02*
X011346Y001545D01*
X011347Y001547D02*
X011714Y001547D01*
X011713Y001549D02*
X011349Y001549D01*
X011350Y001552D02*
X011711Y001552D01*
X011710Y001554D02*
X011352Y001554D01*
X011353Y001557D02*
X011708Y001557D01*
X011707Y001559D02*
X011355Y001559D01*
X011356Y001562D02*
X011705Y001562D01*
X011703Y001564D02*
X011358Y001564D01*
X011360Y001566D02*
X011702Y001566D01*
X011700Y001569D02*
X011361Y001569D01*
X011363Y001571D02*
X011699Y001571D01*
X011697Y001574D02*
X011365Y001574D01*
X011367Y001576D02*
X011694Y001576D01*
X011692Y001579D02*
X011370Y001579D01*
X011372Y001581D02*
X011689Y001581D01*
X011687Y001584D02*
X011375Y001584D01*
X011377Y001586D02*
X011684Y001586D01*
X011682Y001588D02*
X011380Y001588D01*
X011382Y001591D02*
X011679Y001591D01*
X011677Y001593D02*
X011384Y001593D01*
X011387Y001596D02*
X011675Y001596D01*
X011672Y001598D02*
X011389Y001598D01*
X011392Y001601D02*
X011670Y001601D01*
X011667Y001603D02*
X011394Y001603D01*
X011397Y001605D02*
X011665Y001605D01*
X011661Y001608D02*
X011400Y001608D01*
X011404Y001610D02*
X011657Y001610D01*
X011653Y001613D02*
X011408Y001613D01*
X011412Y001615D02*
X011649Y001615D01*
X011646Y001618D02*
X011416Y001618D01*
X011420Y001620D02*
X011642Y001620D01*
X011638Y001623D02*
X011424Y001623D01*
X011428Y001625D02*
X011634Y001625D01*
X011630Y001627D02*
X011431Y001627D01*
X011316Y001198D02*
X011745Y001198D01*
X011745Y001196D02*
X011316Y001196D01*
X011317Y001194D02*
X011745Y001194D01*
X011744Y001191D02*
X011317Y001191D01*
X011317Y001189D02*
X011744Y001189D01*
X011744Y001186D02*
X011318Y001186D01*
X011318Y001184D02*
X011744Y001184D01*
X011743Y001181D02*
X011318Y001181D01*
X011318Y001179D02*
X011743Y001179D01*
X011743Y001177D02*
X011319Y001177D01*
X011319Y001174D02*
X011742Y001174D01*
X011742Y001172D02*
X011319Y001172D01*
X011319Y001169D02*
X011742Y001169D01*
X011742Y001167D02*
X011320Y001167D01*
X011320Y001164D02*
X011741Y001164D01*
X011741Y001162D02*
X011320Y001162D01*
X011321Y001159D02*
X011741Y001159D01*
X011741Y001157D02*
X011321Y001157D01*
X011321Y001155D02*
X011740Y001155D01*
X011740Y001152D02*
X011322Y001152D01*
X011323Y001150D02*
X011739Y001150D01*
X011738Y001147D02*
X011323Y001147D01*
X011324Y001145D02*
X011737Y001145D01*
X011736Y001142D02*
X011325Y001142D01*
X011326Y001140D02*
X011735Y001140D01*
X011735Y001138D02*
X011327Y001138D01*
X011328Y001135D02*
X011734Y001135D01*
X011733Y001133D02*
X011329Y001133D01*
X011329Y001130D02*
X011732Y001130D01*
X011731Y001128D02*
X011330Y001128D01*
X011331Y001125D02*
X011730Y001125D01*
X011729Y001123D02*
X011332Y001123D01*
X011333Y001120D02*
X011729Y001120D01*
X011728Y001118D02*
X011334Y001118D01*
X011335Y001116D02*
X011727Y001116D01*
X011726Y001113D02*
X011335Y001113D01*
X011336Y001111D02*
X011725Y001111D01*
X011724Y001108D02*
X011337Y001108D01*
X011339Y001106D02*
X011723Y001106D01*
X011721Y001103D02*
X011340Y001103D01*
X011342Y001101D02*
X011720Y001101D01*
X011718Y001099D02*
X011343Y001099D01*
X011345Y001096D02*
X011717Y001096D01*
X011715Y001094D02*
X011346Y001094D01*
X011348Y001091D02*
X011714Y001091D01*
X011712Y001089D02*
X011349Y001089D01*
X011351Y001086D02*
X011711Y001086D01*
X011709Y001084D02*
X011352Y001084D01*
X011354Y001081D02*
X011707Y001081D01*
X011706Y001079D02*
X011355Y001079D01*
X011357Y001077D02*
X011704Y001077D01*
X011703Y001074D02*
X011359Y001074D01*
X011360Y001072D02*
X011701Y001072D01*
X011700Y001069D02*
X011362Y001069D01*
X011363Y001067D02*
X011397Y001033D01*
X011437Y001008D01*
X011625Y001008D01*
X011624Y001008D02*
X011665Y001033D01*
X011699Y001067D01*
X011696Y001064D02*
X011366Y001064D01*
X011368Y001062D02*
X011693Y001062D01*
X011691Y001060D02*
X011371Y001060D01*
X011373Y001057D02*
X011688Y001057D01*
X011686Y001055D02*
X011376Y001055D01*
X011378Y001052D02*
X011683Y001052D01*
X011681Y001050D02*
X011380Y001050D01*
X011383Y001047D02*
X011679Y001047D01*
X011676Y001045D02*
X011385Y001045D01*
X011388Y001042D02*
X011674Y001042D01*
X011671Y001040D02*
X011390Y001040D01*
X011393Y001038D02*
X011669Y001038D01*
X011666Y001035D02*
X011395Y001035D01*
X011398Y001033D02*
X011663Y001033D01*
X011660Y001030D02*
X011402Y001030D01*
X011406Y001028D02*
X011656Y001028D01*
X011652Y001025D02*
X011410Y001025D01*
X011413Y001023D02*
X011648Y001023D01*
X011644Y001021D02*
X011417Y001021D01*
X011421Y001018D02*
X011640Y001018D01*
X011636Y001016D02*
X011425Y001016D01*
X011429Y001013D02*
X011632Y001013D01*
X011629Y001011D02*
X011433Y001011D01*
X011437Y001008D02*
X011483Y000992D01*
X011531Y000987D01*
X011579Y000992D01*
X011624Y001008D01*
X011618Y001006D02*
X011443Y001006D01*
X011450Y001003D02*
X011611Y001003D01*
X011604Y001001D02*
X011457Y001001D01*
X011464Y000999D02*
X011597Y000999D01*
X011590Y000996D02*
X011471Y000996D01*
X011478Y000994D02*
X011584Y000994D01*
X011572Y000991D02*
X011489Y000991D01*
X011511Y000989D02*
X011551Y000989D01*
X011531Y002483D02*
X011579Y002488D01*
X011624Y002504D01*
X011665Y002530D01*
X011699Y002564D01*
X011724Y002604D01*
X011740Y002650D01*
X011746Y002697D01*
X011316Y002697D01*
X011321Y002650D01*
X011337Y002604D01*
X011363Y002564D01*
X011397Y002530D01*
X011437Y002504D01*
X011483Y002488D01*
X011531Y002483D01*
X011529Y002483D02*
X011533Y002483D01*
X011554Y002485D02*
X011507Y002485D01*
X011485Y002488D02*
X011576Y002488D01*
X011585Y002490D02*
X011477Y002490D01*
X011470Y002493D02*
X011592Y002493D01*
X011599Y002495D02*
X011463Y002495D01*
X011456Y002497D02*
X011606Y002497D01*
X011613Y002500D02*
X011449Y002500D01*
X011442Y002502D02*
X011620Y002502D01*
X011625Y002505D02*
X011436Y002505D01*
X011432Y002507D02*
X011629Y002507D01*
X011633Y002510D02*
X011428Y002510D01*
X011424Y002512D02*
X011637Y002512D01*
X011641Y002515D02*
X011421Y002515D01*
X011417Y002517D02*
X011645Y002517D01*
X011649Y002519D02*
X011413Y002519D01*
X011409Y002522D02*
X011653Y002522D01*
X011656Y002524D02*
X011405Y002524D01*
X011401Y002527D02*
X011660Y002527D01*
X011664Y002529D02*
X011397Y002529D01*
X011395Y002532D02*
X011667Y002532D01*
X011669Y002534D02*
X011392Y002534D01*
X011390Y002536D02*
X011672Y002536D01*
X011674Y002539D02*
X011387Y002539D01*
X011385Y002541D02*
X011677Y002541D01*
X011679Y002544D02*
X011382Y002544D01*
X011380Y002546D02*
X011681Y002546D01*
X011684Y002549D02*
X011378Y002549D01*
X011375Y002551D02*
X011686Y002551D01*
X011689Y002554D02*
X011373Y002554D01*
X011370Y002556D02*
X011691Y002556D01*
X011694Y002558D02*
X011368Y002558D01*
X011365Y002561D02*
X011696Y002561D01*
X011698Y002563D02*
X011363Y002563D01*
X011361Y002566D02*
X011700Y002566D01*
X011702Y002568D02*
X011360Y002568D01*
X011358Y002571D02*
X011703Y002571D01*
X011705Y002573D02*
X011357Y002573D01*
X011355Y002575D02*
X011706Y002575D01*
X011708Y002578D02*
X011354Y002578D01*
X011352Y002580D02*
X011709Y002580D01*
X011711Y002583D02*
X011351Y002583D01*
X011349Y002585D02*
X011712Y002585D01*
X011714Y002588D02*
X011348Y002588D01*
X011346Y002590D02*
X011715Y002590D01*
X011717Y002593D02*
X011344Y002593D01*
X011343Y002595D02*
X011718Y002595D01*
X011720Y002597D02*
X011341Y002597D01*
X011340Y002600D02*
X011722Y002600D01*
X011723Y002602D02*
X011338Y002602D01*
X011337Y002605D02*
X011724Y002605D01*
X011725Y002607D02*
X011336Y002607D01*
X011335Y002610D02*
X011726Y002610D01*
X011727Y002612D02*
X011334Y002612D01*
X011334Y002614D02*
X011728Y002614D01*
X011729Y002617D02*
X011333Y002617D01*
X011332Y002619D02*
X011730Y002619D01*
X011730Y002622D02*
X011331Y002622D01*
X011330Y002624D02*
X011731Y002624D01*
X011732Y002627D02*
X011329Y002627D01*
X011328Y002629D02*
X011733Y002629D01*
X011734Y002632D02*
X011328Y002632D01*
X011327Y002634D02*
X011735Y002634D01*
X011736Y002636D02*
X011326Y002636D01*
X011325Y002639D02*
X011736Y002639D01*
X011737Y002641D02*
X011324Y002641D01*
X011323Y002644D02*
X011738Y002644D01*
X011739Y002646D02*
X011322Y002646D01*
X011322Y002649D02*
X011740Y002649D01*
X011740Y002651D02*
X011321Y002651D01*
X011321Y002653D02*
X011741Y002653D01*
X011741Y002656D02*
X011321Y002656D01*
X011320Y002658D02*
X011741Y002658D01*
X011741Y002661D02*
X011320Y002661D01*
X011320Y002663D02*
X011742Y002663D01*
X011742Y002666D02*
X011319Y002666D01*
X011319Y002668D02*
X011742Y002668D01*
X011743Y002671D02*
X011319Y002671D01*
X011319Y002673D02*
X011743Y002673D01*
X011743Y002675D02*
X011318Y002675D01*
X011318Y002678D02*
X011743Y002678D01*
X011744Y002680D02*
X011318Y002680D01*
X011318Y002683D02*
X011744Y002683D01*
X011744Y002685D02*
X011317Y002685D01*
X011317Y002688D02*
X011744Y002688D01*
X011745Y002690D02*
X011317Y002690D01*
X011316Y002692D02*
X011745Y002692D01*
X011745Y002695D02*
X011316Y002695D01*
X011316Y002697D02*
X011316Y002934D01*
X011746Y002934D01*
X011740Y002982D01*
X011724Y003027D01*
X011699Y003068D01*
X011665Y003102D01*
X011624Y003127D01*
X011579Y003143D01*
X011531Y003149D01*
X011483Y003143D01*
X011437Y003127D01*
X011397Y003102D01*
X011664Y003102D01*
X011667Y003099D02*
X011395Y003099D01*
X011397Y003102D02*
X011363Y003068D01*
X011699Y003068D01*
X011700Y003065D02*
X011361Y003065D01*
X011360Y003063D02*
X011702Y003063D01*
X011703Y003061D02*
X011358Y003061D01*
X011357Y003058D02*
X011705Y003058D01*
X011706Y003056D02*
X011355Y003056D01*
X011354Y003053D02*
X011708Y003053D01*
X011709Y003051D02*
X011352Y003051D01*
X011351Y003048D02*
X011711Y003048D01*
X011712Y003046D02*
X011349Y003046D01*
X011348Y003043D02*
X011714Y003043D01*
X011715Y003041D02*
X011346Y003041D01*
X011344Y003039D02*
X011717Y003039D01*
X011719Y003036D02*
X011343Y003036D01*
X011341Y003034D02*
X011720Y003034D01*
X011722Y003031D02*
X011340Y003031D01*
X011338Y003029D02*
X011723Y003029D01*
X011724Y003026D02*
X011337Y003026D01*
X011337Y003027D02*
X011321Y002982D01*
X011316Y002934D01*
X011316Y002936D02*
X011745Y002936D01*
X011746Y002934D02*
X011746Y002697D01*
X011746Y002700D02*
X011316Y002700D01*
X011316Y002702D02*
X011746Y002702D01*
X011746Y002705D02*
X011316Y002705D01*
X011316Y002707D02*
X011746Y002707D01*
X011746Y002710D02*
X011316Y002710D01*
X011316Y002712D02*
X011746Y002712D01*
X011746Y002714D02*
X011316Y002714D01*
X011316Y002717D02*
X011746Y002717D01*
X011746Y002719D02*
X011316Y002719D01*
X011316Y002722D02*
X011746Y002722D01*
X011746Y002724D02*
X011316Y002724D01*
X011316Y002727D02*
X011746Y002727D01*
X011746Y002729D02*
X011316Y002729D01*
X011316Y002731D02*
X011746Y002731D01*
X011746Y002734D02*
X011316Y002734D01*
X011316Y002736D02*
X011746Y002736D01*
X011746Y002739D02*
X011316Y002739D01*
X011316Y002741D02*
X011746Y002741D01*
X011746Y002744D02*
X011316Y002744D01*
X011316Y002746D02*
X011746Y002746D01*
X011746Y002749D02*
X011316Y002749D01*
X011316Y002751D02*
X011746Y002751D01*
X011746Y002753D02*
X011316Y002753D01*
X011316Y002756D02*
X011746Y002756D01*
X011746Y002758D02*
X011316Y002758D01*
X011316Y002761D02*
X011746Y002761D01*
X011746Y002763D02*
X011316Y002763D01*
X011316Y002766D02*
X011746Y002766D01*
X011746Y002768D02*
X011316Y002768D01*
X011316Y002770D02*
X011746Y002770D01*
X011746Y002773D02*
X011316Y002773D01*
X011316Y002775D02*
X011746Y002775D01*
X011746Y002778D02*
X011316Y002778D01*
X011316Y002780D02*
X011746Y002780D01*
X011746Y002783D02*
X011316Y002783D01*
X011316Y002785D02*
X011746Y002785D01*
X011746Y002788D02*
X011316Y002788D01*
X011316Y002790D02*
X011746Y002790D01*
X011746Y002792D02*
X011316Y002792D01*
X011316Y002795D02*
X011746Y002795D01*
X011746Y002797D02*
X011316Y002797D01*
X011316Y002800D02*
X011746Y002800D01*
X011746Y002802D02*
X011316Y002802D01*
X011316Y002805D02*
X011746Y002805D01*
X011746Y002807D02*
X011316Y002807D01*
X011316Y002809D02*
X011746Y002809D01*
X011746Y002812D02*
X011316Y002812D01*
X011316Y002814D02*
X011746Y002814D01*
X011746Y002817D02*
X011316Y002817D01*
X011316Y002819D02*
X011746Y002819D01*
X011746Y002822D02*
X011316Y002822D01*
X011316Y002824D02*
X011746Y002824D01*
X011746Y002827D02*
X011316Y002827D01*
X011316Y002829D02*
X011746Y002829D01*
X011746Y002831D02*
X011316Y002831D01*
X011316Y002834D02*
X011746Y002834D01*
X011746Y002836D02*
X011316Y002836D01*
X011316Y002839D02*
X011746Y002839D01*
X011746Y002841D02*
X011316Y002841D01*
X011316Y002844D02*
X011746Y002844D01*
X011746Y002846D02*
X011316Y002846D01*
X011316Y002848D02*
X011746Y002848D01*
X011746Y002851D02*
X011316Y002851D01*
X011316Y002853D02*
X011746Y002853D01*
X011746Y002856D02*
X011316Y002856D01*
X011316Y002858D02*
X011746Y002858D01*
X011746Y002861D02*
X011316Y002861D01*
X011316Y002863D02*
X011746Y002863D01*
X011746Y002866D02*
X011316Y002866D01*
X011316Y002868D02*
X011746Y002868D01*
X011746Y002870D02*
X011316Y002870D01*
X011316Y002873D02*
X011746Y002873D01*
X011746Y002875D02*
X011316Y002875D01*
X011316Y002878D02*
X011746Y002878D01*
X011746Y002880D02*
X011316Y002880D01*
X011316Y002883D02*
X011746Y002883D01*
X011746Y002885D02*
X011316Y002885D01*
X011316Y002887D02*
X011746Y002887D01*
X011746Y002890D02*
X011316Y002890D01*
X011316Y002892D02*
X011746Y002892D01*
X011746Y002895D02*
X011316Y002895D01*
X011316Y002897D02*
X011746Y002897D01*
X011746Y002900D02*
X011316Y002900D01*
X011316Y002902D02*
X011746Y002902D01*
X011746Y002905D02*
X011316Y002905D01*
X011316Y002907D02*
X011746Y002907D01*
X011746Y002909D02*
X011316Y002909D01*
X011316Y002912D02*
X011746Y002912D01*
X011746Y002914D02*
X011316Y002914D01*
X011316Y002917D02*
X011746Y002917D01*
X011746Y002919D02*
X011316Y002919D01*
X011316Y002922D02*
X011746Y002922D01*
X011746Y002924D02*
X011316Y002924D01*
X011316Y002926D02*
X011746Y002926D01*
X011746Y002929D02*
X011316Y002929D01*
X011316Y002931D02*
X011746Y002931D01*
X011745Y002939D02*
X011316Y002939D01*
X011317Y002941D02*
X011745Y002941D01*
X011744Y002944D02*
X011317Y002944D01*
X011317Y002946D02*
X011744Y002946D01*
X011744Y002948D02*
X011318Y002948D01*
X011318Y002951D02*
X011744Y002951D01*
X011743Y002953D02*
X011318Y002953D01*
X011318Y002956D02*
X011743Y002956D01*
X011743Y002958D02*
X011319Y002958D01*
X011319Y002961D02*
X011743Y002961D01*
X011742Y002963D02*
X011319Y002963D01*
X011319Y002965D02*
X011742Y002965D01*
X011742Y002968D02*
X011320Y002968D01*
X011320Y002970D02*
X011741Y002970D01*
X011741Y002973D02*
X011320Y002973D01*
X011321Y002975D02*
X011741Y002975D01*
X011741Y002978D02*
X011321Y002978D01*
X011321Y002980D02*
X011740Y002980D01*
X011740Y002983D02*
X011322Y002983D01*
X011322Y002985D02*
X011739Y002985D01*
X011738Y002987D02*
X011323Y002987D01*
X011324Y002990D02*
X011737Y002990D01*
X011736Y002992D02*
X011325Y002992D01*
X011326Y002995D02*
X011736Y002995D01*
X011735Y002997D02*
X011327Y002997D01*
X011328Y003000D02*
X011734Y003000D01*
X011733Y003002D02*
X011328Y003002D01*
X011329Y003004D02*
X011732Y003004D01*
X011731Y003007D02*
X011330Y003007D01*
X011331Y003009D02*
X011730Y003009D01*
X011730Y003012D02*
X011332Y003012D01*
X011333Y003014D02*
X011729Y003014D01*
X011728Y003017D02*
X011334Y003017D01*
X011334Y003019D02*
X011727Y003019D01*
X011726Y003022D02*
X011335Y003022D01*
X011336Y003024D02*
X011725Y003024D01*
X011696Y003070D02*
X011365Y003070D01*
X011363Y003068D02*
X011337Y003027D01*
X011368Y003073D02*
X011694Y003073D01*
X011691Y003075D02*
X011370Y003075D01*
X011373Y003078D02*
X011689Y003078D01*
X011686Y003080D02*
X011375Y003080D01*
X011378Y003082D02*
X011684Y003082D01*
X011681Y003085D02*
X011380Y003085D01*
X011382Y003087D02*
X011679Y003087D01*
X011677Y003090D02*
X011385Y003090D01*
X011387Y003092D02*
X011674Y003092D01*
X011672Y003095D02*
X011390Y003095D01*
X011392Y003097D02*
X011669Y003097D01*
X011660Y003104D02*
X011401Y003104D01*
X011405Y003107D02*
X011657Y003107D01*
X011653Y003109D02*
X011409Y003109D01*
X011413Y003112D02*
X011649Y003112D01*
X011645Y003114D02*
X011417Y003114D01*
X011420Y003117D02*
X011641Y003117D01*
X011637Y003119D02*
X011424Y003119D01*
X011428Y003121D02*
X011633Y003121D01*
X011629Y003124D02*
X011432Y003124D01*
X011436Y003126D02*
X011625Y003126D01*
X011620Y003129D02*
X011442Y003129D01*
X011449Y003131D02*
X011613Y003131D01*
X011606Y003134D02*
X011456Y003134D01*
X011463Y003136D02*
X011599Y003136D01*
X011592Y003138D02*
X011470Y003138D01*
X011476Y003141D02*
X011585Y003141D01*
X011577Y003143D02*
X011485Y003143D01*
X011506Y003146D02*
X011555Y003146D01*
X011534Y003148D02*
X011528Y003148D01*
D13*
X012431Y001479D03*
X011631Y000579D03*
X010331Y000529D03*
X009331Y000529D03*
X008031Y000579D03*
X007231Y001479D03*
D14*
X007831Y002829D02*
X011831Y002829D01*
D15*
X011531Y001320D02*
X011531Y000679D01*
X011631Y000579D01*
X008131Y000629D02*
X008031Y000579D01*
X008131Y000629D02*
X008131Y001320D01*
D16*
X008081Y002766D02*
X008131Y002816D01*
D17*
X008331Y002816D01*
X008131Y002615D01*
X008131Y001320D01*
X009231Y002079D02*
X010430Y002079D01*
X010430Y000628D01*
X010331Y000529D01*
X010430Y002079D02*
X011831Y002079D01*
X012431Y001479D01*
D18*
X010430Y002079D03*
X009231Y002079D03*
M02*
