G75*
G70*
%OFA0B0*%
%FSLAX24Y24*%
%IPPOS*%
%LPD*%
%AMOC8*
5,1,8,0,0,1.08239X$1,22.5*
%
%ADD10C,0.0050*%
%ADD11C,0.0100*%
D10*
X006846Y001369D02*
X006846Y001589D01*
X006891Y001689D02*
X006891Y001269D01*
X006936Y001219D02*
X006936Y001739D01*
X006981Y001789D02*
X006981Y001169D01*
X007026Y001144D02*
X007026Y001814D01*
X007071Y001839D02*
X007071Y001119D01*
X007116Y001119D02*
X007116Y001839D01*
X007161Y001864D02*
X007161Y001094D01*
X007206Y001094D02*
X007206Y001864D01*
X007251Y001864D02*
X007251Y001094D01*
X007296Y001094D02*
X007296Y001864D01*
X007341Y001864D02*
X007341Y001094D01*
X007386Y001119D02*
X007386Y001839D01*
X007431Y001839D02*
X007431Y001119D01*
X007231Y000879D02*
X007233Y000845D01*
X007239Y000812D01*
X007248Y000780D01*
X007261Y000749D01*
X007277Y000719D01*
X007296Y000692D01*
X007319Y000667D01*
X007344Y000644D01*
X007371Y000625D01*
X007401Y000609D01*
X007432Y000596D01*
X007464Y000587D01*
X007497Y000581D01*
X007531Y000579D01*
X012081Y000579D01*
X012016Y000599D02*
X011246Y000599D01*
X011246Y000554D02*
X012016Y000554D01*
X012016Y000509D02*
X011246Y000509D01*
X011271Y000464D02*
X011991Y000464D01*
X011991Y000419D02*
X011271Y000419D01*
X011296Y000374D02*
X011966Y000374D01*
X011941Y000329D02*
X011321Y000329D01*
X011371Y000284D02*
X011891Y000284D01*
X011841Y000239D02*
X011421Y000239D01*
X011521Y000194D02*
X011741Y000194D01*
X011991Y000779D02*
X012008Y000743D01*
X012021Y000706D01*
X012031Y000668D01*
X012037Y000630D01*
X012040Y000590D01*
X012039Y000551D01*
X012034Y000512D01*
X012025Y000474D01*
X012012Y000436D01*
X011997Y000401D01*
X011977Y000366D01*
X011955Y000334D01*
X011929Y000304D01*
X011901Y000277D01*
X011870Y000252D01*
X011837Y000231D01*
X011802Y000213D01*
X011766Y000198D01*
X011728Y000187D01*
X011690Y000179D01*
X011651Y000175D01*
X011611Y000175D01*
X011572Y000179D01*
X011534Y000187D01*
X011496Y000198D01*
X011460Y000213D01*
X011425Y000231D01*
X011392Y000252D01*
X011361Y000277D01*
X011333Y000304D01*
X011307Y000334D01*
X011285Y000366D01*
X011265Y000401D01*
X011250Y000436D01*
X011237Y000474D01*
X011228Y000512D01*
X011223Y000551D01*
X011222Y000590D01*
X011225Y000630D01*
X011231Y000668D01*
X011241Y000706D01*
X011254Y000743D01*
X011271Y000779D01*
X011991Y000779D01*
X011991Y000734D02*
X011271Y000734D01*
X011246Y000689D02*
X012016Y000689D01*
X012016Y000644D02*
X011246Y000644D01*
X010716Y000639D02*
X009946Y000639D01*
X009946Y000594D02*
X010716Y000594D01*
X010716Y000549D02*
X009946Y000549D01*
X009946Y000504D02*
X010716Y000504D01*
X010716Y000459D02*
X009946Y000459D01*
X009971Y000414D02*
X010691Y000414D01*
X010691Y000369D02*
X009971Y000369D01*
X009996Y000324D02*
X010666Y000324D01*
X010641Y000279D02*
X010021Y000279D01*
X010071Y000234D02*
X010591Y000234D01*
X010541Y000189D02*
X010121Y000189D01*
X010221Y000144D02*
X010441Y000144D01*
X010691Y000729D02*
X010708Y000693D01*
X010721Y000656D01*
X010731Y000618D01*
X010737Y000580D01*
X010740Y000540D01*
X010739Y000501D01*
X010734Y000462D01*
X010725Y000424D01*
X010712Y000386D01*
X010697Y000351D01*
X010677Y000316D01*
X010655Y000284D01*
X010629Y000254D01*
X010601Y000227D01*
X010570Y000202D01*
X010537Y000181D01*
X010502Y000163D01*
X010466Y000148D01*
X010428Y000137D01*
X010390Y000129D01*
X010351Y000125D01*
X010311Y000125D01*
X010272Y000129D01*
X010234Y000137D01*
X010196Y000148D01*
X010160Y000163D01*
X010125Y000181D01*
X010092Y000202D01*
X010061Y000227D01*
X010033Y000254D01*
X010007Y000284D01*
X009985Y000316D01*
X009965Y000351D01*
X009950Y000386D01*
X009937Y000424D01*
X009928Y000462D01*
X009923Y000501D01*
X009922Y000540D01*
X009925Y000580D01*
X009931Y000618D01*
X009941Y000656D01*
X009954Y000693D01*
X009971Y000729D01*
X010691Y000729D01*
X010691Y000684D02*
X009971Y000684D01*
X009716Y000639D02*
X008946Y000639D01*
X008946Y000594D02*
X009716Y000594D01*
X009716Y000549D02*
X008946Y000549D01*
X008946Y000504D02*
X009716Y000504D01*
X009716Y000459D02*
X008946Y000459D01*
X008971Y000414D02*
X009691Y000414D01*
X009691Y000369D02*
X008971Y000369D01*
X008996Y000324D02*
X009666Y000324D01*
X009641Y000279D02*
X009021Y000279D01*
X009071Y000234D02*
X009591Y000234D01*
X009541Y000189D02*
X009121Y000189D01*
X009221Y000144D02*
X009441Y000144D01*
X009691Y000729D02*
X009708Y000693D01*
X009721Y000656D01*
X009731Y000618D01*
X009737Y000580D01*
X009740Y000540D01*
X009739Y000501D01*
X009734Y000462D01*
X009725Y000424D01*
X009712Y000386D01*
X009697Y000351D01*
X009677Y000316D01*
X009655Y000284D01*
X009629Y000254D01*
X009601Y000227D01*
X009570Y000202D01*
X009537Y000181D01*
X009502Y000163D01*
X009466Y000148D01*
X009428Y000137D01*
X009390Y000129D01*
X009351Y000125D01*
X009311Y000125D01*
X009272Y000129D01*
X009234Y000137D01*
X009196Y000148D01*
X009160Y000163D01*
X009125Y000181D01*
X009092Y000202D01*
X009061Y000227D01*
X009033Y000254D01*
X009007Y000284D01*
X008985Y000316D01*
X008965Y000351D01*
X008950Y000386D01*
X008937Y000424D01*
X008928Y000462D01*
X008923Y000501D01*
X008922Y000540D01*
X008925Y000580D01*
X008931Y000618D01*
X008941Y000656D01*
X008954Y000693D01*
X008971Y000729D01*
X009691Y000729D01*
X009691Y000684D02*
X008971Y000684D01*
X008416Y000689D02*
X007646Y000689D01*
X007646Y000644D02*
X008416Y000644D01*
X008416Y000599D02*
X007646Y000599D01*
X007646Y000554D02*
X008416Y000554D01*
X008416Y000509D02*
X007646Y000509D01*
X007671Y000464D02*
X008391Y000464D01*
X008391Y000419D02*
X007671Y000419D01*
X007696Y000374D02*
X008366Y000374D01*
X008341Y000329D02*
X007721Y000329D01*
X007771Y000284D02*
X008291Y000284D01*
X008241Y000239D02*
X007821Y000239D01*
X007921Y000194D02*
X008141Y000194D01*
X008391Y000779D02*
X008408Y000743D01*
X008421Y000706D01*
X008431Y000668D01*
X008437Y000630D01*
X008440Y000590D01*
X008439Y000551D01*
X008434Y000512D01*
X008425Y000474D01*
X008412Y000436D01*
X008397Y000401D01*
X008377Y000366D01*
X008355Y000334D01*
X008329Y000304D01*
X008301Y000277D01*
X008270Y000252D01*
X008237Y000231D01*
X008202Y000213D01*
X008166Y000198D01*
X008128Y000187D01*
X008090Y000179D01*
X008051Y000175D01*
X008011Y000175D01*
X007972Y000179D01*
X007934Y000187D01*
X007896Y000198D01*
X007860Y000213D01*
X007825Y000231D01*
X007792Y000252D01*
X007761Y000277D01*
X007733Y000304D01*
X007707Y000334D01*
X007685Y000366D01*
X007665Y000401D01*
X007650Y000436D01*
X007637Y000474D01*
X007628Y000512D01*
X007623Y000551D01*
X007622Y000590D01*
X007625Y000630D01*
X007631Y000668D01*
X007641Y000706D01*
X007654Y000743D01*
X007671Y000779D01*
X008391Y000779D01*
X008391Y000734D02*
X007671Y000734D01*
X007231Y000879D02*
X007231Y003079D01*
X007233Y003105D01*
X007238Y003131D01*
X007246Y003156D01*
X007258Y003179D01*
X007272Y003201D01*
X007290Y003220D01*
X007309Y003238D01*
X007331Y003252D01*
X007354Y003264D01*
X007379Y003272D01*
X007405Y003277D01*
X007431Y003279D01*
X012231Y003279D01*
X012257Y003277D01*
X012283Y003272D01*
X012308Y003264D01*
X012331Y003252D01*
X012353Y003238D01*
X012372Y003220D01*
X012390Y003201D01*
X012404Y003179D01*
X012416Y003156D01*
X012424Y003131D01*
X012429Y003105D01*
X012431Y003079D01*
X012431Y000929D01*
X012411Y001094D02*
X012411Y001864D01*
X012366Y001864D02*
X012366Y001094D01*
X012321Y001094D02*
X012321Y001864D01*
X012276Y001839D02*
X012276Y001119D01*
X012231Y001119D02*
X012231Y001839D01*
X012456Y001864D02*
X012456Y001094D01*
X012501Y001094D02*
X012501Y001864D01*
X012546Y001839D02*
X012546Y001119D01*
X012591Y001119D02*
X012591Y001839D01*
X012636Y001814D02*
X012636Y001144D01*
X012681Y001169D02*
X012681Y001789D01*
X012726Y001739D02*
X012726Y001219D01*
X012771Y001269D02*
X012771Y001689D01*
X012816Y001589D02*
X012816Y001369D01*
X012231Y001119D02*
X012267Y001102D01*
X012304Y001089D01*
X012342Y001079D01*
X012380Y001073D01*
X012420Y001070D01*
X012459Y001071D01*
X012498Y001076D01*
X012536Y001085D01*
X012574Y001098D01*
X012609Y001113D01*
X012644Y001133D01*
X012676Y001155D01*
X012706Y001181D01*
X012733Y001209D01*
X012758Y001240D01*
X012779Y001273D01*
X012797Y001308D01*
X012812Y001344D01*
X012823Y001382D01*
X012831Y001420D01*
X012835Y001459D01*
X012835Y001499D01*
X012831Y001538D01*
X012823Y001576D01*
X012812Y001614D01*
X012797Y001650D01*
X012779Y001685D01*
X012758Y001718D01*
X012733Y001749D01*
X012706Y001777D01*
X012676Y001803D01*
X012644Y001825D01*
X012609Y001845D01*
X012574Y001860D01*
X012536Y001873D01*
X012498Y001882D01*
X012459Y001887D01*
X012420Y001888D01*
X012380Y001885D01*
X012342Y001879D01*
X012304Y001869D01*
X012267Y001856D01*
X012231Y001839D01*
X012431Y000929D02*
X012429Y000892D01*
X012423Y000856D01*
X012414Y000821D01*
X012401Y000787D01*
X012384Y000754D01*
X012364Y000723D01*
X012341Y000695D01*
X012315Y000669D01*
X012287Y000646D01*
X012256Y000626D01*
X012223Y000609D01*
X012189Y000596D01*
X012154Y000587D01*
X012118Y000581D01*
X012081Y000579D01*
X007432Y001119D02*
X007396Y001102D01*
X007359Y001089D01*
X007321Y001079D01*
X007283Y001073D01*
X007243Y001070D01*
X007204Y001071D01*
X007165Y001076D01*
X007127Y001085D01*
X007089Y001098D01*
X007054Y001113D01*
X007019Y001133D01*
X006987Y001155D01*
X006957Y001181D01*
X006930Y001209D01*
X006905Y001240D01*
X006884Y001273D01*
X006866Y001308D01*
X006851Y001344D01*
X006840Y001382D01*
X006832Y001420D01*
X006828Y001459D01*
X006828Y001499D01*
X006832Y001538D01*
X006840Y001576D01*
X006851Y001614D01*
X006866Y001650D01*
X006884Y001685D01*
X006905Y001718D01*
X006930Y001749D01*
X006957Y001777D01*
X006987Y001803D01*
X007019Y001825D01*
X007054Y001845D01*
X007089Y001860D01*
X007127Y001873D01*
X007165Y001882D01*
X007204Y001887D01*
X007243Y001888D01*
X007283Y001885D01*
X007321Y001879D01*
X007359Y001869D01*
X007396Y001856D01*
X007432Y001839D01*
D11*
X007819Y002546D02*
X007849Y002534D01*
X007881Y002529D01*
X008131Y002529D01*
X008131Y003099D01*
X007881Y003099D01*
X007847Y003092D01*
X007816Y003078D01*
X007788Y003056D01*
X007766Y003029D01*
X007750Y002998D01*
X007742Y002964D01*
X007741Y002929D01*
X007741Y002679D01*
X007744Y002647D01*
X007754Y002616D01*
X007770Y002588D01*
X007792Y002564D01*
X007819Y002546D01*
X007814Y002549D02*
X008131Y002549D01*
X008131Y002648D02*
X007744Y002648D01*
X007741Y002746D02*
X008131Y002746D01*
X008131Y002845D02*
X007741Y002845D01*
X007742Y002943D02*
X008131Y002943D01*
X008131Y003042D02*
X007776Y003042D01*
X011531Y003042D02*
X011900Y003042D01*
X011899Y003043D02*
X011914Y003013D01*
X011921Y002979D01*
X011921Y002729D01*
X011924Y002691D01*
X011918Y002653D01*
X011903Y002617D01*
X011881Y002585D01*
X011852Y002559D01*
X011819Y002540D01*
X011781Y002529D01*
X011531Y002529D01*
X011531Y003099D01*
X011781Y003099D01*
X011815Y003098D01*
X011848Y003087D01*
X011876Y003068D01*
X011899Y003043D01*
X011921Y002943D02*
X011531Y002943D01*
X011531Y002845D02*
X011921Y002845D01*
X011921Y002746D02*
X011531Y002746D01*
X011531Y002648D02*
X011916Y002648D01*
X011835Y002549D02*
X011531Y002549D01*
M02*
